<svg width="410" height="214" viewBox="0 0 410 214" fill="none" xmlns="http://www.w3.org/2000/svg">
<rect x="4" y="4" width="402" height="206" rx="16" stroke="#F08F53" stroke-width="8"/>
<path d="M7.99902 158.497L402 158.502" stroke="white" stroke-width="8"/>
<path d="M157.304 195.12C156.056 195.12 154.904 194.896 153.848 194.448C152.808 193.984 151.896 193.336 151.112 192.504C150.344 191.672 149.744 190.696 149.312 189.576C148.88 188.44 148.664 187.208 148.664 185.88C148.664 184.552 148.88 183.328 149.312 182.208C149.744 181.072 150.344 180.088 151.112 179.256C151.896 178.424 152.808 177.784 153.848 177.336C154.904 176.872 156.056 176.64 157.304 176.64C158.552 176.64 159.704 176.872 160.76 177.336C161.816 177.784 162.728 178.424 163.496 179.256C164.28 180.088 164.88 181.072 165.296 182.208C165.728 183.328 165.944 184.552 165.944 185.88C165.944 187.048 165.776 188.144 165.44 189.168C165.104 190.176 164.64 191.072 164.048 191.856C164.752 192.704 165.304 193.648 165.704 194.688C165.336 194.896 164.888 195.104 164.36 195.312C163.848 195.52 163.32 195.704 162.776 195.864C162.248 196.04 161.76 196.176 161.312 196.272C161.104 195.584 160.904 194.976 160.712 194.448C159.656 194.896 158.52 195.12 157.304 195.12ZM152.936 185.04C152.936 186.144 153.056 187.176 153.296 188.136C153.536 189.096 153.864 189.936 154.28 190.656C155.432 189.408 156.776 188.784 158.312 188.784C159.32 188.784 160.328 189.056 161.336 189.6C161.56 188.736 161.672 187.776 161.672 186.72C161.672 185.2 161.456 183.832 161.024 182.616C160.592 181.4 160.008 180.44 159.272 179.736C158.536 179.016 157.712 178.656 156.8 178.656C156.032 178.656 155.352 178.92 154.76 179.448C154.184 179.976 153.736 180.72 153.416 181.68C153.096 182.64 152.936 183.76 152.936 185.04ZM157.808 193.104C158.528 193.104 159.168 192.872 159.728 192.408C159.136 191.496 158.448 191.04 157.664 191.04C156.88 191.04 156.216 191.464 155.672 192.312C156.344 192.84 157.056 193.104 157.808 193.104ZM172.959 195.12C169.391 195.12 167.607 191.864 167.607 185.352C167.607 184.264 167.655 183.096 167.751 181.848C168.135 181.816 168.655 181.792 169.311 181.776C169.983 181.76 170.839 181.752 171.879 181.752C171.783 183.352 171.735 184.776 171.735 186.024C171.735 188.488 171.927 190.304 172.311 191.472C172.711 192.624 173.319 193.2 174.135 193.2C174.679 193.2 175.223 192.976 175.767 192.528C176.327 192.08 176.807 191.488 177.207 190.752C177.191 189.488 177.175 188.072 177.159 186.504C177.159 184.92 177.159 183.296 177.159 181.632C177.815 181.632 178.535 181.64 179.319 181.656C180.119 181.672 180.775 181.696 181.287 181.728C181.287 183.024 181.279 184.336 181.263 185.664C181.263 186.992 181.255 188.264 181.239 189.48C181.239 190.696 181.231 191.784 181.215 192.744C181.199 193.688 181.183 194.424 181.167 194.952C180.543 194.984 179.895 195.008 179.223 195.024C178.551 195.04 177.903 195.048 177.279 195.048C177.263 194.664 177.247 194.168 177.231 193.56C175.855 194.6 174.431 195.12 172.959 195.12ZM190.033 195.12C188.737 195.12 187.569 194.824 186.529 194.232C185.505 193.624 184.689 192.808 184.081 191.784C183.489 190.744 183.193 189.568 183.193 188.256C183.193 186.944 183.481 185.776 184.057 184.752C184.649 183.728 185.449 182.92 186.457 182.328C187.481 181.736 188.641 181.44 189.937 181.44C191.153 181.44 192.241 181.712 193.201 182.256C194.177 182.784 194.961 183.528 195.553 184.488C196.161 185.448 196.521 186.576 196.633 187.872L187.105 189.648C187.409 190.688 187.889 191.536 188.545 192.192C189.201 192.832 189.937 193.152 190.753 193.152C191.505 193.152 192.249 192.896 192.985 192.384C193.721 191.856 194.289 191.184 194.689 190.368L196.393 191.808C195.609 192.864 194.665 193.68 193.561 194.256C192.457 194.832 191.281 195.12 190.033 195.12ZM186.793 187.296C186.793 187.392 186.793 187.472 186.793 187.536L192.385 186.768C192.273 185.744 191.945 184.92 191.401 184.296C190.857 183.672 190.193 183.36 189.409 183.36C188.593 183.36 187.953 183.712 187.489 184.416C187.025 185.104 186.793 186.064 186.793 187.296ZM204.939 195.12C204.283 195.12 203.539 195.072 202.707 194.976C201.875 194.864 201.051 194.728 200.235 194.568C199.419 194.392 198.699 194.208 198.075 194.016L199.131 191.112C199.739 191.464 200.411 191.8 201.147 192.12C201.899 192.424 202.635 192.672 203.355 192.864C204.075 193.056 204.691 193.152 205.203 193.152C205.891 193.152 206.395 193 206.715 192.696C207.035 192.376 207.195 192.04 207.195 191.688C207.195 191.272 207.019 190.928 206.667 190.656C206.315 190.368 205.851 190.12 205.275 189.912C204.715 189.688 204.107 189.48 203.451 189.288C202.859 189.112 202.267 188.92 201.675 188.712C201.083 188.504 200.539 188.264 200.043 187.992C199.563 187.704 199.171 187.36 198.867 186.96C198.579 186.56 198.435 186.08 198.435 185.52C198.435 184.8 198.691 184.136 199.203 183.528C199.715 182.904 200.443 182.4 201.387 182.016C202.331 181.632 203.451 181.44 204.747 181.44C205.803 181.44 206.867 181.576 207.939 181.848C209.027 182.12 210.019 182.504 210.915 183L209.571 185.28C208.691 184.72 207.835 184.264 207.003 183.912C206.187 183.544 205.411 183.36 204.675 183.36C203.971 183.36 203.435 183.512 203.067 183.816C202.699 184.12 202.515 184.432 202.515 184.752C202.515 185.056 202.659 185.312 202.947 185.52C203.235 185.712 203.619 185.88 204.099 186.024C204.595 186.168 205.123 186.312 205.683 186.456C206.307 186.6 206.947 186.776 207.603 186.984C208.259 187.176 208.867 187.424 209.427 187.728C209.987 188.032 210.435 188.424 210.771 188.904C211.107 189.368 211.275 189.952 211.275 190.656C211.275 191.52 211.003 192.288 210.459 192.96C209.915 193.632 209.163 194.16 208.203 194.544C207.259 194.928 206.171 195.12 204.939 195.12ZM214.853 195.048C214.837 194.712 214.821 194.176 214.805 193.44C214.805 192.688 214.797 191.792 214.781 190.752C214.781 189.712 214.773 188.584 214.757 187.368C214.757 186.152 214.757 184.904 214.757 183.624H212.141L211.997 181.416H214.733C214.733 179.8 214.733 178.272 214.733 176.832C215.325 176.832 216.013 176.84 216.797 176.856C217.597 176.872 218.285 176.896 218.861 176.928C218.861 178.304 218.861 179.8 218.861 181.416H221.597L221.453 183.624H218.837C218.837 184.872 218.829 186.104 218.813 187.32C218.813 188.52 218.805 189.632 218.789 190.656C218.789 191.68 218.781 192.568 218.765 193.32C218.765 194.072 218.757 194.616 218.741 194.952C218.197 194.984 217.597 195.008 216.941 195.024C216.285 195.04 215.589 195.048 214.853 195.048ZM223.54 180V176.76H227.62V180H223.54ZM223.636 195.048C223.62 194.52 223.604 193.808 223.588 192.912C223.572 192 223.556 190.96 223.54 189.792C223.54 188.608 223.532 187.344 223.516 186C223.516 184.656 223.516 183.28 223.516 181.872C224.236 181.872 224.988 181.88 225.772 181.896C226.572 181.912 227.196 181.936 227.644 181.968C227.644 183.136 227.636 184.36 227.62 185.64C227.62 186.92 227.612 188.168 227.596 189.384C227.596 190.584 227.588 191.672 227.572 192.648C227.556 193.624 227.54 194.392 227.524 194.952C226.788 194.984 226.084 195.008 225.412 195.024C224.74 195.04 224.148 195.048 223.636 195.048ZM236.343 195.12C235.079 195.12 233.935 194.824 232.911 194.232C231.887 193.64 231.071 192.84 230.463 191.832C229.871 190.824 229.575 189.704 229.575 188.472C229.575 187.496 229.759 186.584 230.127 185.736C230.495 184.888 231.007 184.144 231.663 183.504C232.335 182.848 233.103 182.344 233.967 181.992C234.831 181.624 235.751 181.44 236.727 181.44C237.991 181.44 239.135 181.736 240.159 182.328C241.183 182.92 241.991 183.72 242.583 184.728C243.191 185.72 243.495 186.84 243.495 188.088C243.495 189.064 243.311 189.976 242.943 190.824C242.575 191.672 242.055 192.424 241.383 193.08C240.727 193.72 239.967 194.224 239.103 194.592C238.255 194.944 237.335 195.12 236.343 195.12ZM237.039 193.176C237.887 193.176 238.551 192.816 239.031 192.096C239.511 191.36 239.751 190.344 239.751 189.048C239.751 187.96 239.591 186.992 239.271 186.144C238.951 185.296 238.511 184.624 237.951 184.128C237.391 183.632 236.751 183.384 236.031 183.384C235.183 183.384 234.519 183.752 234.039 184.488C233.559 185.208 233.319 186.216 233.319 187.512C233.319 188.584 233.479 189.552 233.799 190.416C234.119 191.264 234.559 191.936 235.119 192.432C235.695 192.928 236.335 193.176 237.039 193.176ZM245.516 195.048C245.5 194.536 245.484 193.832 245.468 192.936C245.452 192.024 245.436 190.976 245.42 189.792C245.42 188.592 245.412 187.304 245.396 185.928C245.396 184.536 245.396 183.104 245.396 181.632C245.748 181.632 246.18 181.64 246.692 181.656C247.204 181.656 247.716 181.664 248.228 181.68C248.756 181.696 249.188 181.712 249.524 181.728C249.524 182.128 249.524 182.536 249.524 182.952C250.884 181.944 252.268 181.44 253.676 181.44C254.972 181.44 256.02 181.896 256.82 182.808C257.62 183.72 258.196 185.176 258.548 187.176C258.916 189.176 259.1 191.8 259.1 195.048C258.732 195.048 258.292 195.04 257.78 195.024C257.268 195.024 256.764 195.016 256.268 195C255.772 194.984 255.34 194.968 254.972 194.952C254.972 192.12 254.892 189.856 254.732 188.16C254.572 186.464 254.308 185.24 253.94 184.488C253.572 183.736 253.076 183.36 252.452 183.36C251.94 183.36 251.42 183.576 250.892 184.008C250.364 184.44 249.908 185.008 249.524 185.712C249.508 187.072 249.492 188.36 249.476 189.576C249.476 190.792 249.468 191.872 249.452 192.816C249.436 193.744 249.42 194.456 249.404 194.952C248.908 194.968 248.3 194.984 247.58 195C246.876 195.032 246.188 195.048 245.516 195.048Z" fill="white"/>
<path d="M106.057 83.256C105.641 83.256 105.209 83.256 104.761 83.256C104.329 83.24 103.881 83.216 103.417 83.184C103.065 84.432 102.713 85.736 102.361 87.096L99.4811 86.904C100.377 83.88 101.377 80.832 102.481 77.76C103.585 74.672 104.761 71.672 106.009 68.76C106.601 68.696 107.257 68.64 107.977 68.592C108.713 68.544 109.465 68.52 110.233 68.52C111.209 70.888 112.249 73.624 113.353 76.728C114.457 79.832 115.593 83.176 116.761 86.76C115.833 86.92 114.953 87.04 114.121 87.12C113.305 87.2 112.473 87.24 111.625 87.24C111.289 85.896 110.913 84.48 110.497 82.992C109.073 83.168 107.593 83.256 106.057 83.256ZM106.993 71.328C106.657 72.24 106.233 73.504 105.721 75.12C105.225 76.736 104.673 78.632 104.065 80.808C104.705 80.888 105.361 80.944 106.033 80.976C106.721 81.008 107.457 81.024 108.241 81.024C108.529 81.024 108.817 81.024 109.105 81.024C109.409 81.008 109.689 81 109.945 81C109.593 79.72 109.233 78.48 108.865 77.28C108.513 76.064 108.177 74.952 107.857 73.944C107.537 72.92 107.249 72.048 106.993 71.328ZM118.43 87.048C118.414 86.536 118.398 85.832 118.382 84.936C118.366 84.024 118.35 82.976 118.334 81.792C118.334 80.592 118.326 79.304 118.31 77.928C118.31 76.536 118.31 75.104 118.31 73.632C118.662 73.632 119.094 73.64 119.606 73.656C120.118 73.656 120.63 73.664 121.142 73.68C121.67 73.696 122.102 73.712 122.438 73.728C122.438 74.128 122.438 74.536 122.438 74.952C123.798 73.944 125.182 73.44 126.59 73.44C127.886 73.44 128.934 73.896 129.734 74.808C130.534 75.72 131.11 77.176 131.462 79.176C131.83 81.176 132.014 83.8 132.014 87.048C131.646 87.048 131.206 87.04 130.694 87.024C130.182 87.024 129.678 87.016 129.182 87C128.686 86.984 128.254 86.968 127.886 86.952C127.886 84.12 127.806 81.856 127.646 80.16C127.486 78.464 127.222 77.24 126.854 76.488C126.486 75.736 125.99 75.36 125.366 75.36C124.854 75.36 124.334 75.576 123.806 76.008C123.278 76.44 122.822 77.008 122.438 77.712C122.422 79.072 122.406 80.36 122.39 81.576C122.39 82.792 122.382 83.872 122.366 84.816C122.35 85.744 122.334 86.456 122.318 86.952C121.822 86.968 121.214 86.984 120.494 87C119.79 87.032 119.102 87.048 118.43 87.048ZM147.668 87.12C146.308 87.12 145.196 86.792 144.332 86.136C143.484 85.464 143.06 84.592 143.06 83.52C143.06 82.544 143.412 81.64 144.116 80.808C144.836 79.976 145.828 79.272 147.092 78.696C148.356 78.104 149.804 77.696 151.436 77.472C150.86 76.064 150.068 75.36 149.06 75.36C148.452 75.36 147.668 75.592 146.708 76.056C145.748 76.52 144.772 77.128 143.78 77.88L143.06 75.48C145.444 74.12 147.7 73.44 149.828 73.44C151.492 73.44 152.828 73.896 153.836 74.808C154.844 75.704 155.58 77.144 156.044 79.128C156.508 81.096 156.74 83.704 156.74 86.952C156.436 86.968 155.892 86.984 155.108 87C154.34 87.032 153.508 87.048 152.612 87.048C152.612 86.536 152.604 86.032 152.588 85.536C150.94 86.592 149.3 87.12 147.668 87.12ZM147.02 83.352C147.02 83.848 147.212 84.24 147.596 84.528C147.996 84.816 148.524 84.96 149.18 84.96C150.332 84.96 151.444 84.464 152.516 83.472C152.42 81.776 152.236 80.344 151.964 79.176C151.34 79.304 150.732 79.512 150.14 79.8C149.564 80.088 149.036 80.432 148.556 80.832C148.092 81.216 147.716 81.632 147.428 82.08C147.156 82.512 147.02 82.936 147.02 83.352ZM164.146 87.072C162.93 87.072 161.746 87.024 160.594 86.928C160.306 86.048 159.994 85.064 159.658 83.976C159.338 82.888 159.01 81.76 158.674 80.592C158.354 79.408 158.042 78.24 157.738 77.088C157.45 75.92 157.194 74.832 156.97 73.824C158.874 73.632 160.282 73.536 161.194 73.536C161.482 75.264 161.81 77.048 162.178 78.888C162.562 80.728 162.946 82.44 163.33 84.024C163.794 81.976 164.202 80.096 164.554 78.384C164.906 76.672 165.21 75.12 165.466 73.728C165.866 73.712 166.33 73.696 166.858 73.68C167.402 73.664 167.93 73.656 168.442 73.656C168.97 73.64 169.386 73.632 169.69 73.632C169.994 75.392 170.33 77.176 170.698 78.984C171.066 80.776 171.442 82.456 171.826 84.024C172.258 82.12 172.658 80.288 173.026 78.528C173.394 76.752 173.706 75.112 173.962 73.608L176.266 73.752C175.898 75.352 175.506 76.952 175.09 78.552C174.674 80.136 174.258 81.648 173.842 83.088C173.426 84.512 173.026 85.792 172.642 86.928C171.858 87.024 170.674 87.072 169.09 87.072C168.706 85.872 168.298 84.528 167.866 83.04C167.434 81.552 167.026 80.064 166.642 78.576C166.226 80.192 165.802 81.728 165.37 83.184C164.938 84.64 164.53 85.936 164.146 87.072ZM183.345 87.12C182.049 87.12 180.881 86.824 179.841 86.232C178.817 85.624 178.001 84.808 177.393 83.784C176.801 82.744 176.505 81.568 176.505 80.256C176.505 78.944 176.793 77.776 177.369 76.752C177.961 75.728 178.761 74.92 179.769 74.328C180.793 73.736 181.953 73.44 183.249 73.44C184.465 73.44 185.553 73.712 186.513 74.256C187.489 74.784 188.273 75.528 188.865 76.488C189.473 77.448 189.833 78.576 189.945 79.872L180.417 81.648C180.721 82.688 181.201 83.536 181.857 84.192C182.513 84.832 183.249 85.152 184.065 85.152C184.817 85.152 185.561 84.896 186.297 84.384C187.033 83.856 187.601 83.184 188.001 82.368L189.705 83.808C188.921 84.864 187.977 85.68 186.873 86.256C185.769 86.832 184.593 87.12 183.345 87.12ZM180.105 79.296C180.105 79.392 180.105 79.472 180.105 79.536L185.697 78.768C185.585 77.744 185.257 76.92 184.713 76.296C184.169 75.672 183.505 75.36 182.721 75.36C181.905 75.36 181.265 75.712 180.801 76.416C180.337 77.104 180.105 78.064 180.105 79.296ZM198.252 87.12C197.596 87.12 196.852 87.072 196.02 86.976C195.188 86.864 194.364 86.728 193.548 86.568C192.732 86.392 192.012 86.208 191.388 86.016L192.444 83.112C193.052 83.464 193.724 83.8 194.46 84.12C195.212 84.424 195.948 84.672 196.668 84.864C197.388 85.056 198.004 85.152 198.516 85.152C199.204 85.152 199.708 85 200.028 84.696C200.348 84.376 200.508 84.04 200.508 83.688C200.508 83.272 200.332 82.928 199.98 82.656C199.628 82.368 199.164 82.12 198.588 81.912C198.028 81.688 197.42 81.48 196.764 81.288C196.172 81.112 195.58 80.92 194.988 80.712C194.396 80.504 193.852 80.264 193.356 79.992C192.876 79.704 192.484 79.36 192.18 78.96C191.892 78.56 191.748 78.08 191.748 77.52C191.748 76.8 192.004 76.136 192.516 75.528C193.028 74.904 193.756 74.4 194.7 74.016C195.644 73.632 196.764 73.44 198.06 73.44C199.116 73.44 200.18 73.576 201.252 73.848C202.34 74.12 203.332 74.504 204.228 75L202.884 77.28C202.004 76.72 201.148 76.264 200.316 75.912C199.5 75.544 198.724 75.36 197.988 75.36C197.284 75.36 196.748 75.512 196.38 75.816C196.012 76.12 195.828 76.432 195.828 76.752C195.828 77.056 195.972 77.312 196.26 77.52C196.548 77.712 196.932 77.88 197.412 78.024C197.908 78.168 198.436 78.312 198.996 78.456C199.62 78.6 200.26 78.776 200.916 78.984C201.572 79.176 202.18 79.424 202.74 79.728C203.3 80.032 203.748 80.424 204.084 80.904C204.42 81.368 204.588 81.952 204.588 82.656C204.588 83.52 204.316 84.288 203.772 84.96C203.228 85.632 202.476 86.16 201.516 86.544C200.572 86.928 199.484 87.12 198.252 87.12ZM212.804 87.12C211.54 87.12 210.396 86.824 209.372 86.232C208.348 85.64 207.532 84.84 206.924 83.832C206.332 82.824 206.036 81.704 206.036 80.472C206.036 79.496 206.22 78.584 206.588 77.736C206.956 76.888 207.468 76.144 208.124 75.504C208.796 74.848 209.564 74.344 210.428 73.992C211.292 73.624 212.212 73.44 213.188 73.44C214.452 73.44 215.596 73.736 216.62 74.328C217.644 74.92 218.452 75.72 219.044 76.728C219.652 77.72 219.956 78.84 219.956 80.088C219.956 81.064 219.772 81.976 219.404 82.824C219.036 83.672 218.516 84.424 217.844 85.08C217.188 85.72 216.428 86.224 215.564 86.592C214.716 86.944 213.796 87.12 212.804 87.12ZM213.5 85.176C214.348 85.176 215.012 84.816 215.492 84.096C215.972 83.36 216.212 82.344 216.212 81.048C216.212 79.96 216.052 78.992 215.732 78.144C215.412 77.296 214.972 76.624 214.412 76.128C213.852 75.632 213.212 75.384 212.492 75.384C211.644 75.384 210.98 75.752 210.5 76.488C210.02 77.208 209.78 78.216 209.78 79.512C209.78 80.584 209.94 81.552 210.26 82.416C210.58 83.264 211.02 83.936 211.58 84.432C212.156 84.928 212.796 85.176 213.5 85.176ZM225.745 87.048C225.393 87.048 224.961 87.04 224.449 87.024C223.937 87.024 223.441 87.016 222.961 87C222.497 86.984 222.129 86.968 221.857 86.952C221.857 84.952 221.857 83.064 221.857 81.288C221.873 79.512 221.889 77.96 221.905 76.632C221.937 75.288 221.961 74.288 221.977 73.632C222.489 73.632 223.089 73.64 223.777 73.656C224.465 73.672 225.081 73.696 225.625 73.728C225.641 74.064 225.657 74.52 225.673 75.096C226.985 73.992 228.297 73.44 229.609 73.44C230.281 73.44 230.865 73.584 231.361 73.872C231.857 74.16 232.273 74.624 232.609 75.264C233.873 74.048 235.249 73.44 236.737 73.44C238.449 73.44 239.713 74.328 240.529 76.104C241.361 77.88 241.777 80.616 241.777 84.312C241.777 84.744 241.769 85.168 241.753 85.584C241.753 85.984 241.737 86.424 241.705 86.904C241.257 86.968 240.657 87.016 239.905 87.048C239.153 87.08 238.377 87.096 237.577 87.096C237.625 86.424 237.657 85.704 237.673 84.936C237.705 84.168 237.721 83.408 237.721 82.656C237.721 80.176 237.569 78.344 237.265 77.16C236.977 75.96 236.529 75.36 235.921 75.36C235.505 75.36 235.049 75.608 234.553 76.104C234.073 76.6 233.689 77.216 233.401 77.952C233.529 78.704 233.617 79.576 233.665 80.568C233.729 81.544 233.761 82.64 233.761 83.856C233.761 84.912 233.737 85.944 233.689 86.952C233.369 86.968 232.961 86.984 232.465 87C231.985 87.016 231.481 87.024 230.953 87.024C230.441 87.04 229.977 87.048 229.561 87.048C229.609 86.2 229.641 85.288 229.657 84.312C229.689 83.336 229.705 82.408 229.705 81.528C229.705 80.008 229.657 78.8 229.561 77.904C229.481 76.992 229.337 76.344 229.129 75.96C228.937 75.56 228.665 75.36 228.313 75.36C227.881 75.36 227.417 75.616 226.921 76.128C226.441 76.64 226.033 77.272 225.697 78.024C225.713 79.256 225.721 80.648 225.721 82.2C225.737 83.736 225.745 85.352 225.745 87.048ZM250.048 87.12C248.752 87.12 247.584 86.824 246.544 86.232C245.52 85.624 244.704 84.808 244.096 83.784C243.504 82.744 243.208 81.568 243.208 80.256C243.208 78.944 243.496 77.776 244.072 76.752C244.664 75.728 245.464 74.92 246.472 74.328C247.496 73.736 248.656 73.44 249.952 73.44C251.168 73.44 252.256 73.712 253.216 74.256C254.192 74.784 254.976 75.528 255.568 76.488C256.176 77.448 256.536 78.576 256.648 79.872L247.12 81.648C247.424 82.688 247.904 83.536 248.56 84.192C249.216 84.832 249.952 85.152 250.768 85.152C251.52 85.152 252.264 84.896 253 84.384C253.736 83.856 254.304 83.184 254.704 82.368L256.408 83.808C255.624 84.864 254.68 85.68 253.576 86.256C252.472 86.832 251.296 87.12 250.048 87.12ZM246.808 79.296C246.808 79.392 246.808 79.472 246.808 79.536L252.4 78.768C252.288 77.744 251.96 76.92 251.416 76.296C250.872 75.672 250.208 75.36 249.424 75.36C248.608 75.36 247.968 75.712 247.504 76.416C247.04 77.104 246.808 78.064 246.808 79.296ZM272.308 87.12C270.948 87.12 269.836 86.792 268.972 86.136C268.124 85.464 267.7 84.592 267.7 83.52C267.7 82.544 268.052 81.64 268.756 80.808C269.476 79.976 270.468 79.272 271.732 78.696C272.996 78.104 274.444 77.696 276.076 77.472C275.5 76.064 274.708 75.36 273.7 75.36C273.092 75.36 272.308 75.592 271.348 76.056C270.388 76.52 269.412 77.128 268.42 77.88L267.7 75.48C270.084 74.12 272.34 73.44 274.468 73.44C276.132 73.44 277.468 73.896 278.476 74.808C279.484 75.704 280.22 77.144 280.684 79.128C281.148 81.096 281.38 83.704 281.38 86.952C281.076 86.968 280.532 86.984 279.748 87C278.98 87.032 278.148 87.048 277.252 87.048C277.252 86.536 277.244 86.032 277.228 85.536C275.58 86.592 273.94 87.12 272.308 87.12ZM271.66 83.352C271.66 83.848 271.852 84.24 272.236 84.528C272.636 84.816 273.164 84.96 273.82 84.96C274.972 84.96 276.084 84.464 277.156 83.472C277.06 81.776 276.876 80.344 276.604 79.176C275.98 79.304 275.372 79.512 274.78 79.8C274.204 80.088 273.676 80.432 273.196 80.832C272.732 81.216 272.356 81.632 272.068 82.08C271.796 82.512 271.66 82.936 271.66 83.352ZM287.306 89.808C286.714 89.808 286.042 89.792 285.29 89.76C284.554 89.744 283.93 89.728 283.418 89.712C283.402 89.264 283.386 88.592 283.37 87.696C283.37 86.8 283.362 85.768 283.346 84.6C283.33 83.416 283.314 82.184 283.298 80.904C283.298 79.608 283.298 78.344 283.298 77.112C283.298 75.864 283.298 74.736 283.298 73.728C283.65 73.712 284.074 73.696 284.57 73.68C285.066 73.664 285.57 73.656 286.082 73.656C286.61 73.64 287.058 73.632 287.426 73.632C287.426 73.888 287.426 74.152 287.426 74.424C288.386 73.768 289.394 73.44 290.45 73.44C291.474 73.44 292.386 73.728 293.186 74.304C293.986 74.88 294.618 75.672 295.082 76.68C295.546 77.672 295.778 78.808 295.778 80.088C295.778 81.384 295.53 82.568 295.034 83.64C294.554 84.696 293.898 85.544 293.066 86.184C292.25 86.808 291.33 87.12 290.306 87.12C289.378 87.12 288.394 86.848 287.354 86.304C287.354 87.088 287.346 87.784 287.33 88.392C287.33 89 287.322 89.472 287.306 89.808ZM289.346 75.408C288.658 75.408 288.018 75.8 287.426 76.584C287.426 77.688 287.418 78.84 287.402 80.04C287.402 81.224 287.394 82.376 287.378 83.496C287.65 84.024 287.994 84.44 288.41 84.744C288.826 85.048 289.274 85.2 289.754 85.2C290.506 85.2 291.09 84.816 291.506 84.048C291.938 83.28 292.154 82.216 292.154 80.856C292.154 79.816 292.026 78.888 291.77 78.072C291.53 77.24 291.202 76.592 290.786 76.128C290.37 75.648 289.89 75.408 289.346 75.408ZM301.696 89.808C301.104 89.808 300.432 89.792 299.68 89.76C298.944 89.744 298.32 89.728 297.808 89.712C297.792 89.264 297.776 88.592 297.76 87.696C297.76 86.8 297.752 85.768 297.736 84.6C297.72 83.416 297.704 82.184 297.688 80.904C297.688 79.608 297.688 78.344 297.688 77.112C297.688 75.864 297.688 74.736 297.688 73.728C298.04 73.712 298.464 73.696 298.96 73.68C299.456 73.664 299.96 73.656 300.472 73.656C301 73.64 301.448 73.632 301.816 73.632C301.816 73.888 301.816 74.152 301.816 74.424C302.776 73.768 303.784 73.44 304.84 73.44C305.864 73.44 306.776 73.728 307.576 74.304C308.376 74.88 309.008 75.672 309.472 76.68C309.936 77.672 310.168 78.808 310.168 80.088C310.168 81.384 309.92 82.568 309.424 83.64C308.944 84.696 308.288 85.544 307.456 86.184C306.64 86.808 305.72 87.12 304.696 87.12C303.768 87.12 302.784 86.848 301.744 86.304C301.744 87.088 301.736 87.784 301.72 88.392C301.72 89 301.712 89.472 301.696 89.808ZM303.736 75.408C303.048 75.408 302.408 75.8 301.816 76.584C301.816 77.688 301.808 78.84 301.792 80.04C301.792 81.224 301.784 82.376 301.768 83.496C302.04 84.024 302.384 84.44 302.8 84.744C303.216 85.048 303.664 85.2 304.144 85.2C304.896 85.2 305.48 84.816 305.896 84.048C306.328 83.28 306.544 82.216 306.544 80.856C306.544 79.816 306.416 78.888 306.16 78.072C305.92 77.24 305.592 76.592 305.176 76.128C304.76 75.648 304.28 75.408 303.736 75.408Z" fill="white"/>
</svg>
