<svg width="313" height="297" viewBox="0 0 313 297" fill="none" xmlns="http://www.w3.org/2000/svg">
<path d="M58.0635 129.774C58.0635 142.063 55.2147 153.124 50.6749 161.067C46.1143 169.049 40.0109 173.645 33.5474 173.645C27.0839 173.645 20.9803 169.049 16.4198 161.067C11.8801 153.124 9.03125 142.063 9.03125 129.774C9.03125 117.486 11.8801 106.425 16.4198 98.4806C20.9803 90.4997 27.0839 85.9033 33.5474 85.9033C40.0109 85.9033 46.1143 90.4997 50.6749 98.4806C55.2147 106.425 58.0635 117.486 58.0635 129.774Z" fill="white" stroke="black" stroke-width="5"/>
<path d="M305.806 129.774C305.806 142.063 302.957 153.124 298.417 161.067C293.857 169.049 287.754 173.645 281.29 173.645C274.825 173.645 268.722 169.049 264.162 161.067C259.622 153.124 256.773 142.063 256.773 129.774C256.773 117.486 259.622 106.425 264.162 98.4806C268.722 90.4997 274.825 85.9033 281.29 85.9033C287.754 85.9033 293.857 90.4997 298.417 98.4806C302.957 106.425 305.806 117.486 305.806 129.774Z" fill="white" stroke="black" stroke-width="5"/>
<path d="M67.0966 204.612H245.161C274.379 204.612 298.064 228.297 298.064 257.516V297.516H14.1934V257.516C14.1934 228.297 37.879 204.612 67.0966 204.612Z" fill="white" stroke="black" stroke-width="5"/>
<path d="M156.391 235.598C266.275 234.666 299.524 272.248 309.501 292.481C310.959 295.435 310.482 298.253 308.866 300.362C307.225 302.504 304.34 303.985 300.908 303.985H11.8988C8.45848 303.985 5.58431 302.496 3.96806 300.354C2.37915 298.248 1.94067 295.443 3.45853 292.512C13.6799 272.78 47.232 236.519 156.391 235.598Z" fill="white" stroke="black" stroke-width="5"/>
<path d="M157.418 258.806C227.968 258.806 285.16 201.614 285.16 131.064C285.16 60.5143 227.968 3.32227 157.418 3.32227C86.8678 3.32227 29.6758 60.5143 29.6758 131.064C29.6758 201.614 86.8678 258.806 157.418 258.806Z" fill="white" stroke="black" stroke-width="5"/>
<path d="M254.193 131.064C254.193 174.3 211.123 209.774 157.419 209.774C103.714 209.774 60.6445 174.3 60.6445 131.064C60.6445 87.8274 103.714 76.9961 157.419 76.9961C211.123 76.9961 254.193 87.8274 254.193 131.064Z" fill="#5F5F5F" stroke="black" stroke-width="5"/>
</svg>
