<svg width="363" height="327" viewBox="0 0 363 327" fill="none" xmlns="http://www.w3.org/2000/svg">
<rect x="145" y="97" width="13" height="2" fill="#535353" fill-opacity="0.5"/>
<rect x="114" y="141" width="13" height="2" transform="rotate(-90 114 141)" fill="#535353" fill-opacity="0.5"/>
<rect x="260" y="214" width="13" height="2" transform="rotate(-90 260 214)" fill="#535353" fill-opacity="0.5"/>
<rect x="145" y="170" width="13" height="2" fill="#535353" fill-opacity="0.5"/>
<rect x="218" y="170" width="13" height="2" fill="#535353" fill-opacity="0.5"/>
<rect x="218" y="97" width="13" height="2" fill="#6D6307" fill-opacity="0.5"/>
<rect x="145" y="24" width="13" height="2" fill="#076D1E" fill-opacity="0.5"/>
<rect x="218" y="24" width="13" height="2" fill="#076D1E" fill-opacity="0.5"/>
<rect x="260" y="68" width="13" height="2" transform="rotate(-90 260 68)" fill="#076D1E" fill-opacity="0.5"/>
<rect x="236" y="73" width="50" height="50" rx="25" fill="#F0E5A9" fill-opacity="0.5"/>
<g clip-path="url(#clip0_1040_6259)">
<path fill-rule="evenodd" clip-rule="evenodd" d="M246.471 94.012L246.482 93.9534L247.904 86.3674L247.923 86.2664L247.93 86.164L248.278 81.1919C248.297 80.9215 248.551 80.7309 248.816 80.7888L262.388 83.7559L262.386 83.7547L267.36 83.214C267.118 83.0382 266.838 82.909 266.529 82.8416L249.196 79.052C247.872 78.7625 246.599 79.7157 246.504 81.0679L246.157 86.04L244.735 93.6259L242.901 100.738L241.164 105.026C240.649 106.298 241.397 107.727 242.735 108.029L256.223 111.069L255.756 109.141L243.126 106.294C242.858 106.234 242.708 105.948 242.811 105.694L244.549 101.405L244.593 101.296L244.623 101.181L246.457 94.0698L246.471 94.012ZM266.49 85.1529L266.49 85.1525L266.599 85.137L274.487 83.9817C275.828 83.7852 277.031 84.825 277.031 86.1804V91.1646L277.92 98.8313L279.254 106.054L280.688 110.453C281.113 111.757 280.267 113.131 278.911 113.338L261.576 115.992C260.505 116.156 259.472 115.523 259.131 114.494L257.365 109.165L255.721 101.942L255.031 94.2757L255.031 88.7517C255.031 87.6488 255.84 86.7128 256.931 86.553L266.49 85.1529ZM266.363 86.9683L257.189 88.312C256.971 88.3439 256.809 88.5311 256.809 88.7517L256.809 94.1959L257.481 101.664L259.079 108.687L260.818 113.935C260.887 114.141 261.093 114.267 261.308 114.234L278.642 111.581C278.913 111.54 279.082 111.265 278.997 111.004L277.563 106.604L277.527 106.492L277.505 106.376L276.172 99.154L276.161 99.0953L276.154 99.036L275.265 91.3694L275.254 91.2673V91.1646V86.1804C275.254 85.9094 275.013 85.7014 274.745 85.7407L268.164 86.7045L268.163 86.7232L266.362 86.9803L266.363 86.9683ZM265.333 95.3526L267.18 95.0686L267.178 95.0804L273.803 94.0902C274.167 94.0357 274.507 94.2868 274.561 94.651C274.616 95.0151 274.364 95.3544 274 95.4088L266.955 96.4617L266.955 96.4631L265.109 96.7428L265.11 96.7375L259.934 97.511C259.57 97.5654 259.231 97.3144 259.176 96.9502C259.122 96.5861 259.373 96.2468 259.737 96.1923L265.332 95.3561L265.333 95.3526ZM265.004 98.8049L266.577 98.563L266.575 98.5702L269.852 98.0804C270.216 98.026 270.556 98.2771 270.61 98.6412C270.664 99.0054 270.413 99.3447 270.049 99.3991L265.524 100.075L264.201 100.279L264.203 100.273L260.379 100.844C260.015 100.899 259.675 100.648 259.621 100.284C259.566 99.9194 259.818 99.5801 260.182 99.5257L265.004 98.8049ZM263.546 102.446L265.487 102.169L265.485 102.176L266.123 102.08C266.487 102.026 266.826 102.277 266.881 102.641C266.935 103.005 266.684 103.345 266.32 103.399L261.045 104.187C260.681 104.242 260.342 103.991 260.288 103.627C260.233 103.262 260.484 102.923 260.848 102.869L263.54 102.466L263.546 102.446ZM259.293 92.859C258.929 92.9134 258.678 93.2527 258.732 93.6169C258.786 93.981 259.126 94.2321 259.49 94.1777L273.556 92.0755C273.92 92.0211 274.171 91.6818 274.117 91.3176C274.062 90.9535 273.723 90.7024 273.359 90.7568L259.293 92.859Z" fill="#6D6307"/>
</g>
<rect x="236.5" y="73.5" width="49" height="49" rx="24.5" stroke="#6D6307" stroke-opacity="0.2"/>
<rect x="163" y="73" width="50" height="50" rx="25" fill="#EEEEEE" fill-opacity="0.5"/>
<g clip-path="url(#clip1_1040_6259)">
<path fill-rule="evenodd" clip-rule="evenodd" d="M173.471 94.012L173.482 93.9534L174.904 86.3674L174.923 86.2664L174.93 86.164L175.278 81.1919C175.297 80.9215 175.551 80.7309 175.816 80.7888L189.388 83.7559L189.386 83.7547L194.36 83.214C194.118 83.0382 193.838 82.909 193.529 82.8416L176.196 79.052C174.872 78.7625 173.599 79.7157 173.504 81.0679L173.157 86.04L171.735 93.6259L169.901 100.738L168.164 105.026C167.649 106.298 168.397 107.727 169.735 108.029L183.223 111.069L182.756 109.141L170.126 106.294C169.858 106.234 169.708 105.948 169.811 105.694L171.549 101.405L171.593 101.296L171.623 101.181L173.457 94.0698L173.471 94.012ZM193.49 85.1529L193.49 85.1525L193.599 85.137L201.487 83.9817C202.828 83.7852 204.031 84.825 204.031 86.1804V91.1646L204.92 98.8313L206.254 106.054L207.688 110.453C208.113 111.757 207.267 113.131 205.911 113.338L188.576 115.992C187.505 116.156 186.472 115.523 186.131 114.494L184.365 109.165L182.721 101.942L182.031 94.2757L182.031 88.7517C182.031 87.6488 182.84 86.7128 183.931 86.553L193.49 85.1529ZM193.363 86.9683L184.189 88.312C183.971 88.3439 183.809 88.5311 183.809 88.7517L183.809 94.1959L184.481 101.664L186.079 108.687L187.818 113.935C187.887 114.141 188.093 114.267 188.308 114.234L205.642 111.581C205.913 111.54 206.082 111.265 205.997 111.004L204.563 106.604L204.527 106.492L204.505 106.376L203.172 99.154L203.161 99.0953L203.154 99.036L202.265 91.3694L202.254 91.2673V91.1646V86.1804C202.254 85.9094 202.013 85.7014 201.745 85.7407L195.164 86.7045L195.163 86.7232L193.362 86.9803L193.363 86.9683ZM192.333 95.3526L194.18 95.0686L194.178 95.0804L200.803 94.0902C201.167 94.0357 201.507 94.2868 201.561 94.651C201.616 95.0151 201.364 95.3544 201 95.4088L193.955 96.4617L193.955 96.4631L192.109 96.7428L192.11 96.7375L186.934 97.511C186.57 97.5654 186.231 97.3144 186.176 96.9502C186.122 96.5861 186.373 96.2468 186.737 96.1923L192.332 95.3561L192.333 95.3526ZM192.004 98.8049L193.577 98.563L193.575 98.5702L196.852 98.0804C197.216 98.026 197.556 98.2771 197.61 98.6412C197.664 99.0054 197.413 99.3447 197.049 99.3991L192.524 100.075L191.201 100.279L191.203 100.273L187.379 100.844C187.015 100.899 186.675 100.648 186.621 100.284C186.566 99.9194 186.818 99.5801 187.182 99.5257L192.004 98.8049ZM190.546 102.446L192.487 102.169L192.485 102.176L193.123 102.08C193.487 102.026 193.826 102.277 193.881 102.641C193.935 103.005 193.684 103.345 193.32 103.399L188.045 104.187C187.681 104.242 187.342 103.991 187.288 103.627C187.233 103.262 187.484 102.923 187.848 102.869L190.54 102.466L190.546 102.446ZM186.293 92.859C185.929 92.9134 185.678 93.2527 185.732 93.6169C185.786 93.981 186.126 94.2321 186.49 94.1777L200.556 92.0755C200.92 92.0211 201.171 91.6818 201.117 91.3176C201.062 90.9535 200.723 90.7024 200.359 90.7568L186.293 92.859Z" fill="#535353"/>
</g>
<rect x="163.5" y="73.5" width="49" height="49" rx="24.5" stroke="#535353" stroke-opacity="0.2"/>
<rect x="163" y="146" width="50" height="50" rx="25" fill="#EEEEEE" fill-opacity="0.5"/>
<g clip-path="url(#clip2_1040_6259)">
<path fill-rule="evenodd" clip-rule="evenodd" d="M173.471 167.012L173.482 166.953L174.904 159.367L174.923 159.266L174.93 159.164L175.278 154.192C175.297 153.922 175.551 153.731 175.816 153.789L189.388 156.756L189.386 156.755L194.36 156.214C194.118 156.038 193.838 155.909 193.529 155.842L176.196 152.052C174.872 151.762 173.599 152.716 173.504 154.068L173.157 159.04L171.735 166.626L169.901 173.738L168.164 178.026C167.649 179.298 168.397 180.727 169.735 181.029L183.223 184.069L182.756 182.141L170.126 179.294C169.858 179.234 169.708 178.948 169.811 178.694L171.549 174.405L171.593 174.296L171.623 174.181L173.457 167.07L173.471 167.012ZM193.49 158.153L193.49 158.153L193.599 158.137L201.487 156.982C202.828 156.785 204.031 157.825 204.031 159.18V164.165L204.92 171.831L206.254 179.054L207.688 183.453C208.113 184.757 207.267 186.131 205.911 186.338L188.576 188.992C187.505 189.156 186.472 188.523 186.131 187.494L184.365 182.165L182.721 174.942L182.031 167.276L182.031 161.752C182.031 160.649 182.84 159.713 183.931 159.553L193.49 158.153ZM193.363 159.968L184.189 161.312C183.971 161.344 183.809 161.531 183.809 161.752L183.809 167.196L184.481 174.664L186.079 181.687L187.818 186.935C187.887 187.141 188.093 187.267 188.308 187.234L205.642 184.581C205.913 184.54 206.082 184.265 205.997 184.004L204.563 179.604L204.527 179.492L204.505 179.376L203.172 172.154L203.161 172.095L203.154 172.036L202.265 164.369L202.254 164.267V164.165V159.18C202.254 158.909 202.013 158.701 201.745 158.741L195.164 159.705L195.163 159.723L193.362 159.98L193.363 159.968ZM192.333 168.353L194.18 168.069L194.178 168.08L200.803 167.09C201.167 167.036 201.507 167.287 201.561 167.651C201.616 168.015 201.364 168.354 201 168.409L193.955 169.462L193.955 169.463L192.109 169.743L192.11 169.737L186.934 170.511C186.57 170.565 186.231 170.314 186.176 169.95C186.122 169.586 186.373 169.247 186.737 169.192L192.332 168.356L192.333 168.353ZM192.004 171.805L193.577 171.563L193.575 171.57L196.852 171.08C197.216 171.026 197.556 171.277 197.61 171.641C197.664 172.005 197.413 172.345 197.049 172.399L192.524 173.075L191.201 173.279L191.203 173.273L187.379 173.844C187.015 173.899 186.675 173.648 186.621 173.284C186.566 172.919 186.818 172.58 187.182 172.526L192.004 171.805ZM190.546 175.446L192.487 175.169L192.485 175.176L193.123 175.08C193.487 175.026 193.826 175.277 193.881 175.641C193.935 176.005 193.684 176.345 193.32 176.399L188.045 177.187C187.681 177.242 187.342 176.991 187.288 176.627C187.233 176.262 187.484 175.923 187.848 175.869L190.54 175.466L190.546 175.446ZM186.293 165.859C185.929 165.913 185.678 166.253 185.732 166.617C185.786 166.981 186.126 167.232 186.49 167.178L200.556 165.076C200.92 165.021 201.171 164.682 201.117 164.318C201.062 163.953 200.723 163.702 200.359 163.757L186.293 165.859Z" fill="#535353"/>
</g>
<rect x="163.5" y="146.5" width="49" height="49" rx="24.5" stroke="#535353" stroke-opacity="0.2"/>
<rect x="90" width="50" height="50" rx="25" fill="#A9F0B9" fill-opacity="0.5"/>
<g clip-path="url(#clip3_1040_6259)">
<path fill-rule="evenodd" clip-rule="evenodd" d="M100.471 21.012L100.482 20.9534L101.904 13.3674L101.923 13.2664L101.93 13.164L102.278 8.19194C102.297 7.92151 102.551 7.73085 102.816 7.78876L116.388 10.7559L116.386 10.7547L121.36 10.214C121.118 10.0382 120.838 9.90902 120.529 9.84162L103.196 6.052C101.872 5.76249 100.599 6.71574 100.504 8.06793L100.157 13.04L98.7351 20.6259L96.9012 27.7376L95.1637 32.0264C94.6487 33.2976 95.3968 34.7271 96.7347 35.0287L110.223 38.0691L109.756 36.1413L97.1256 33.2944C96.858 33.2342 96.7084 32.9482 96.8114 32.694L98.5489 28.4051L98.5932 28.2958L98.6227 28.1815L100.457 21.0698L100.471 21.012ZM120.49 12.1529L120.49 12.1525L120.599 12.137L128.487 10.9817C129.828 10.7852 131.031 11.825 131.031 13.1804V18.1646L131.92 25.8313L133.254 33.0536L134.688 37.4531C135.113 38.7571 134.267 40.1309 132.911 40.3384L115.576 42.9918C114.505 43.1558 113.472 42.5229 113.131 41.4942L111.365 36.1647L109.721 28.9424L109.031 21.2757L109.031 15.7517C109.031 14.6488 109.84 13.7128 110.931 13.553L120.49 12.1529ZM120.363 13.9683L111.189 15.312C110.971 15.3439 110.809 15.5311 110.809 15.7517L110.809 21.1959L111.481 28.6642L113.079 35.6867L114.818 40.9349C114.887 41.1407 115.093 41.2673 115.308 41.2344L132.642 38.5811C132.913 38.5398 133.082 38.2649 132.997 38.0042L131.563 33.6044L131.527 33.4922L131.505 33.3762L130.172 26.154L130.161 26.0953L130.154 26.036L129.265 18.3694L129.254 18.2673V18.1646V13.1804C129.254 12.9094 129.013 12.7014 128.745 12.7407L122.164 13.7045L122.163 13.7232L120.362 13.9803L120.363 13.9683ZM119.333 22.3526L121.18 22.0686L121.178 22.0804L127.803 21.0902C128.167 21.0357 128.507 21.2868 128.561 21.651C128.616 22.0151 128.364 22.3544 128 22.4088L120.955 23.4617L120.955 23.4631L119.109 23.7428L119.11 23.7375L113.934 24.511C113.57 24.5654 113.231 24.3144 113.176 23.9502C113.122 23.5861 113.373 23.2468 113.737 23.1923L119.332 22.3561L119.333 22.3526ZM119.004 25.8049L120.577 25.563L120.575 25.5702L123.852 25.0804C124.216 25.026 124.556 25.2771 124.61 25.6412C124.664 26.0054 124.413 26.3447 124.049 26.3991L119.524 27.0753L118.201 27.2789L118.203 27.2728L114.379 27.8444C114.015 27.8988 113.675 27.6477 113.621 27.2835C113.566 26.9194 113.818 26.5801 114.182 26.5257L119.004 25.8049ZM117.546 29.4462L119.487 29.1689L119.485 29.1758L120.123 29.0804C120.487 29.026 120.826 29.2771 120.881 29.6411C120.935 30.0053 120.684 30.3447 120.32 30.3991L115.045 31.1873C114.681 31.2418 114.342 30.9907 114.288 30.6267C114.233 30.2624 114.484 29.9231 114.848 29.8687L117.54 29.4664L117.546 29.4462ZM113.293 19.859C112.929 19.9134 112.678 20.2527 112.732 20.6169C112.786 20.981 113.126 21.2321 113.49 21.1777L127.556 19.0755C127.92 19.0211 128.171 18.6818 128.117 18.3176C128.062 17.9535 127.723 17.7024 127.359 17.7568L113.293 19.859Z" fill="#076D1E"/>
</g>
<rect x="90.5" y="0.5" width="49" height="49" rx="24.5" stroke="#076D1E" stroke-opacity="0.2"/>
<rect x="236" width="50" height="50" rx="25" fill="#A9F0B9" fill-opacity="0.5"/>
<g clip-path="url(#clip4_1040_6259)">
<path fill-rule="evenodd" clip-rule="evenodd" d="M242.829 17.1023L257.373 10.6269C257.573 10.5375 257.809 10.6279 257.898 10.8287L261.06 17.9295V17.9814L262.652 21.5475V21.5053L267.211 31.7453C267.3 31.9461 267.21 32.1815 267.009 32.2708L263.884 33.6621L263.886 33.6766L261.06 34.9172V34.9198L252.465 38.7463C252.264 38.8356 252.029 38.7453 251.94 38.5445L242.627 17.6278C242.538 17.427 242.628 17.1918 242.829 17.1023ZM260.008 25.6359L260.007 25.6829C259.876 25.8557 259.711 26.0441 259.51 26.248C259.307 26.4594 259.091 26.6625 258.862 26.8575C258.644 27.0568 258.436 27.2281 258.24 27.3713C257.991 27.0827 257.762 26.8311 257.555 26.6166C257.14 27.0617 256.638 27.4155 256.048 27.6779C255.443 27.9473 254.836 28.0874 254.228 28.0981C253.623 28.0977 253.041 27.9804 252.482 27.7462C251.93 27.5087 251.428 27.165 250.977 26.7153C250.522 26.2578 250.152 25.7071 249.865 25.0633C249.578 24.4195 249.419 23.7795 249.387 23.1433C249.351 22.4993 249.429 21.8927 249.622 21.3236C249.823 20.751 250.127 20.2439 250.534 19.8022C250.946 19.3494 251.454 18.9882 252.059 18.7188C252.664 18.4495 253.273 18.3133 253.885 18.3103C254.494 18.2996 255.074 18.413 255.626 18.6506C256.186 18.8847 256.689 19.2322 257.136 19.6932C257.587 20.1429 257.956 20.6897 258.242 21.3335C258.495 21.8997 258.65 22.4673 258.708 23.0363C258.763 23.5975 258.731 24.132 258.613 24.6399C259.129 24.895 259.594 25.227 260.008 25.6359ZM259.353 10.1811L261.258 14.461L261.26 14.4567L262.652 17.5276V17.5911L267.177 27.7555C267.455 26.9042 267.748 26.0494 268.057 25.191C268.643 23.5523 269.267 21.9603 269.929 20.4149C270.243 20.381 270.591 20.3512 270.973 20.3257C271.364 20.3003 271.763 20.2875 272.171 20.2875C272.689 21.5442 273.24 22.9961 273.826 24.6434C274.412 26.2906 275.015 28.0652 275.635 29.9672C275.142 30.0521 274.675 30.1158 274.234 30.1582C273.801 30.2006 273.359 30.2219 272.909 30.2219C272.731 29.5087 272.531 28.7572 272.311 27.9675C271.555 28.061 270.77 28.1076 269.954 28.1076H269.267C269.037 28.0992 268.8 28.0864 268.553 28.0694C268.397 28.6234 268.241 29.1982 268.085 29.7938L268.665 31.0979C269.112 32.1019 268.661 33.2782 267.657 33.7252L262.652 35.9536V35.9699L261.06 36.6645V36.6625L253.113 40.2006C252.109 40.6478 250.932 40.1962 250.485 39.192L241.173 18.2754C240.726 17.2713 241.177 16.095 242.181 15.648L256.725 9.17255C257.729 8.72551 258.906 9.17707 259.353 10.1811ZM261.06 38.1202V38.2245C261.06 39.3236 261.951 40.2145 263.05 40.2145H278.97C280.069 40.2145 280.96 39.3236 280.96 38.2245V15.3283C280.96 14.2292 280.069 13.3382 278.97 13.3382H263.05C262.697 13.3382 262.365 13.4302 262.077 13.5915L262.776 15.0391C262.848 14.9716 262.944 14.9303 263.05 14.9303H278.97C279.19 14.9303 279.368 15.1085 279.368 15.3283V38.2245C279.368 38.4444 279.19 38.6225 278.97 38.6225H263.05C262.83 38.6225 262.652 38.4444 262.652 38.2245V37.3711L261.06 38.1202ZM252.598 25.1572C252.274 24.7436 251.993 24.2692 251.755 23.734C251.479 23.1135 251.314 22.5359 251.262 22.0015C251.21 21.467 251.267 21.0096 251.432 20.6293C251.605 20.2455 251.878 19.9708 252.25 19.805C252.692 19.6081 253.169 19.6048 253.682 19.795C254.19 19.9774 254.681 20.3168 255.153 20.8131C255.625 21.3093 256.025 21.9259 256.353 22.6628C256.581 23.1748 256.734 23.6643 256.811 24.1316C256.205 24.0854 255.658 24.1711 255.169 24.3887C254.425 24.7202 253.908 25.3128 253.619 26.1665C253.262 25.9073 252.921 25.5708 252.598 25.1572ZM256.638 25.84C256.467 26.1858 256.206 26.4364 255.857 26.5918C255.493 26.7541 255.091 26.7798 254.651 26.6689C254.732 26.1404 254.962 25.7915 255.342 25.6223C255.722 25.453 256.154 25.5256 256.638 25.84ZM269.776 23.79C270.048 22.9325 270.273 22.2617 270.451 21.7777C270.587 22.1598 270.74 22.6225 270.91 23.1659C271.079 23.7009 271.258 24.291 271.445 24.9363C271.64 25.5731 271.831 26.2312 272.018 26.9104C271.882 26.9104 271.733 26.9147 271.572 26.9232H271.113C270.697 26.9232 270.307 26.9147 269.942 26.8977C269.585 26.8807 269.237 26.851 268.897 26.8085C269.22 25.6538 269.513 24.6476 269.776 23.79Z" fill="#076D1E"/>
</g>
<rect x="236.5" y="0.5" width="49" height="49" rx="24.5" stroke="#076D1E" stroke-opacity="0.2"/>
<rect x="163" width="50" height="50" rx="25" fill="#A9F0B9" fill-opacity="0.5"/>
<g clip-path="url(#clip5_1040_6259)">
<path fill-rule="evenodd" clip-rule="evenodd" d="M169.829 17.1023L184.373 10.6269C184.573 10.5375 184.809 10.6279 184.898 10.8287L188.06 17.9295V17.9814L189.652 21.5475V21.5053L194.211 31.7453C194.3 31.9461 194.21 32.1815 194.009 32.2708L190.884 33.6621L190.886 33.6766L188.06 34.9172V34.9198L179.465 38.7463C179.264 38.8356 179.029 38.7453 178.94 38.5445L169.627 17.6278C169.538 17.427 169.628 17.1918 169.829 17.1023ZM187.008 25.6359L187.007 25.6829C186.876 25.8557 186.711 26.0441 186.51 26.248C186.307 26.4594 186.091 26.6625 185.862 26.8575C185.644 27.0568 185.436 27.2281 185.24 27.3713C184.991 27.0827 184.762 26.8311 184.555 26.6166C184.14 27.0617 183.638 27.4155 183.048 27.6779C182.443 27.9473 181.836 28.0874 181.228 28.0981C180.623 28.0977 180.041 27.9804 179.482 27.7462C178.93 27.5087 178.428 27.165 177.977 26.7153C177.522 26.2578 177.152 25.7071 176.865 25.0633C176.578 24.4195 176.419 23.7795 176.387 23.1433C176.351 22.4993 176.429 21.8927 176.622 21.3236C176.823 20.751 177.127 20.2439 177.534 19.8022C177.946 19.3494 178.454 18.9882 179.059 18.7188C179.664 18.4495 180.273 18.3133 180.885 18.3103C181.494 18.2996 182.074 18.413 182.626 18.6506C183.186 18.8847 183.689 19.2322 184.136 19.6932C184.587 20.1429 184.956 20.6897 185.242 21.3335C185.495 21.8997 185.65 22.4673 185.708 23.0363C185.763 23.5975 185.731 24.132 185.613 24.6399C186.129 24.895 186.594 25.227 187.008 25.6359ZM186.353 10.1811L188.258 14.461L188.26 14.4567L189.652 17.5276V17.5911L194.177 27.7555C194.455 26.9042 194.748 26.0494 195.057 25.191C195.643 23.5523 196.267 21.9603 196.929 20.4149C197.243 20.381 197.591 20.3512 197.973 20.3257C198.364 20.3003 198.763 20.2875 199.171 20.2875C199.689 21.5442 200.24 22.9961 200.826 24.6434C201.412 26.2906 202.015 28.0652 202.635 29.9672C202.142 30.0521 201.675 30.1158 201.234 30.1582C200.801 30.2006 200.359 30.2219 199.909 30.2219C199.731 29.5087 199.531 28.7572 199.311 27.9675C198.555 28.061 197.77 28.1076 196.954 28.1076H196.267C196.037 28.0992 195.8 28.0864 195.553 28.0694C195.397 28.6234 195.241 29.1982 195.085 29.7938L195.665 31.0979C196.112 32.1019 195.661 33.2782 194.657 33.7252L189.652 35.9536V35.9699L188.06 36.6645V36.6625L180.113 40.2006C179.109 40.6478 177.932 40.1962 177.485 39.192L168.173 18.2754C167.726 17.2713 168.177 16.095 169.181 15.648L183.725 9.17255C184.729 8.72551 185.906 9.17707 186.353 10.1811ZM188.06 38.1202V38.2245C188.06 39.3236 188.951 40.2145 190.05 40.2145H205.97C207.069 40.2145 207.96 39.3236 207.96 38.2245V15.3283C207.96 14.2292 207.069 13.3382 205.97 13.3382H190.05C189.697 13.3382 189.365 13.4302 189.077 13.5915L189.776 15.0391C189.848 14.9716 189.944 14.9303 190.05 14.9303H205.97C206.19 14.9303 206.368 15.1085 206.368 15.3283V38.2245C206.368 38.4444 206.19 38.6225 205.97 38.6225H190.05C189.83 38.6225 189.652 38.4444 189.652 38.2245V37.3711L188.06 38.1202ZM179.598 25.1572C179.274 24.7436 178.993 24.2692 178.755 23.734C178.479 23.1135 178.314 22.5359 178.262 22.0015C178.21 21.467 178.267 21.0096 178.432 20.6293C178.605 20.2455 178.878 19.9708 179.25 19.805C179.692 19.6081 180.169 19.6048 180.682 19.795C181.19 19.9774 181.681 20.3168 182.153 20.8131C182.625 21.3093 183.025 21.9259 183.353 22.6628C183.581 23.1748 183.734 23.6643 183.811 24.1316C183.205 24.0854 182.658 24.1711 182.169 24.3887C181.425 24.7202 180.908 25.3128 180.619 26.1665C180.262 25.9073 179.921 25.5708 179.598 25.1572ZM183.638 25.84C183.467 26.1858 183.206 26.4364 182.857 26.5918C182.493 26.7541 182.091 26.7798 181.651 26.6689C181.732 26.1404 181.962 25.7915 182.342 25.6223C182.722 25.453 183.154 25.5256 183.638 25.84ZM196.776 23.79C197.048 22.9325 197.273 22.2617 197.451 21.7777C197.587 22.1598 197.74 22.6225 197.91 23.1659C198.079 23.7009 198.258 24.291 198.445 24.9363C198.64 25.5731 198.831 26.2312 199.018 26.9104C198.882 26.9104 198.733 26.9147 198.572 26.9232H198.113C197.697 26.9232 197.307 26.9147 196.942 26.8977C196.585 26.8807 196.237 26.851 195.897 26.8085C196.22 25.6538 196.513 24.6476 196.776 23.79Z" fill="#076D1E"/>
</g>
<rect x="163.5" y="0.5" width="49" height="49" rx="24.5" stroke="#076D1E" stroke-opacity="0.2"/>
<rect x="90" y="73" width="50" height="50" rx="25" fill="#EEEEEE" fill-opacity="0.5"/>
<g clip-path="url(#clip6_1040_6259)">
<path fill-rule="evenodd" clip-rule="evenodd" d="M96.8287 90.1023L111.373 83.6269C111.573 83.5375 111.809 83.6279 111.898 83.8287L115.06 90.9295V90.9814L116.652 94.5475V94.5053L121.211 104.745C121.3 104.946 121.21 105.181 121.009 105.271L117.884 106.662L117.886 106.677L115.06 107.917V107.92L106.465 111.746C106.264 111.836 106.029 111.745 105.94 111.544L96.6269 90.6278C96.5375 90.427 96.6279 90.1918 96.8287 90.1023ZM114.008 98.6359L114.007 98.6829C113.876 98.8557 113.711 99.0441 113.51 99.248C113.307 99.4594 113.091 99.6625 112.862 99.8575C112.644 100.057 112.436 100.228 112.24 100.371C111.991 100.083 111.762 99.8311 111.555 99.6166C111.14 100.062 110.638 100.415 110.048 100.678C109.443 100.947 108.836 101.087 108.228 101.098C107.623 101.098 107.041 100.98 106.482 100.746C105.93 100.509 105.428 100.165 104.977 99.7153C104.522 99.2578 104.152 98.7071 103.865 98.0633C103.578 97.4195 103.419 96.7795 103.387 96.1433C103.351 95.4993 103.429 94.8927 103.622 94.3236C103.823 93.751 104.127 93.2439 104.534 92.8022C104.946 92.3494 105.454 91.9882 106.059 91.7188C106.664 91.4495 107.273 91.3133 107.885 91.3103C108.494 91.2996 109.074 91.413 109.626 91.6506C110.186 91.8847 110.689 92.2322 111.136 92.6932C111.587 93.1429 111.956 93.6897 112.242 94.3335C112.495 94.8997 112.65 95.4673 112.708 96.0363C112.763 96.5975 112.731 97.132 112.613 97.6399C113.129 97.895 113.594 98.227 114.008 98.6359ZM113.353 83.1811L115.258 87.461L115.26 87.4567L116.652 90.5276V90.5911L121.177 100.755C121.455 99.9042 121.748 99.0494 122.057 98.191C122.643 96.5523 123.267 94.9603 123.929 93.4149C124.243 93.381 124.591 93.3512 124.973 93.3257C125.364 93.3003 125.763 93.2875 126.171 93.2875C126.689 94.5442 127.24 95.9961 127.826 97.6434C128.412 99.2906 129.015 101.065 129.635 102.967C129.142 103.052 128.675 103.116 128.234 103.158C127.801 103.201 127.359 103.222 126.909 103.222C126.731 102.509 126.531 101.757 126.311 100.968C125.555 101.061 124.77 101.108 123.954 101.108H123.267C123.037 101.099 122.8 101.086 122.553 101.069C122.397 101.623 122.241 102.198 122.085 102.794L122.665 104.098C123.112 105.102 122.661 106.278 121.657 106.725L116.652 108.954V108.97L115.06 109.664V109.662L107.113 113.201C106.109 113.648 104.932 113.196 104.485 112.192L95.1725 91.2754C94.7255 90.2713 95.1771 89.095 96.1811 88.648L110.725 82.1725C111.729 81.7255 112.906 82.1771 113.353 83.1811ZM115.06 111.12V111.224C115.06 112.324 115.951 113.215 117.05 113.215H132.97C134.069 113.215 134.96 112.324 134.96 111.224V88.3283C134.96 87.2292 134.069 86.3382 132.97 86.3382H117.05C116.697 86.3382 116.365 86.4302 116.077 86.5915L116.776 88.0391C116.848 87.9716 116.944 87.9303 117.05 87.9303H132.97C133.19 87.9303 133.368 88.1085 133.368 88.3283V111.224C133.368 111.444 133.19 111.622 132.97 111.622H117.05C116.83 111.622 116.652 111.444 116.652 111.224V110.371L115.06 111.12ZM106.598 98.1572C106.274 97.7436 105.993 97.2692 105.755 96.734C105.479 96.1135 105.314 95.5359 105.262 95.0015C105.21 94.467 105.267 94.0096 105.432 93.6293C105.605 93.2455 105.878 92.9708 106.25 92.805C106.692 92.6081 107.169 92.6048 107.682 92.795C108.19 92.9774 108.681 93.3168 109.153 93.8131C109.625 94.3093 110.025 94.9259 110.353 95.6628C110.581 96.1748 110.734 96.6643 110.811 97.1316C110.205 97.0854 109.658 97.1711 109.169 97.3887C108.425 97.7202 107.908 98.3128 107.619 99.1665C107.262 98.9073 106.921 98.5708 106.598 98.1572ZM110.638 98.84C110.467 99.1858 110.206 99.4364 109.857 99.5918C109.493 99.7541 109.091 99.7798 108.651 99.6689C108.732 99.1404 108.962 98.7915 109.342 98.6223C109.722 98.453 110.154 98.5256 110.638 98.84ZM123.776 96.79C124.048 95.9325 124.273 95.2617 124.451 94.7777C124.587 95.1598 124.74 95.6225 124.91 96.1659C125.079 96.7009 125.258 97.291 125.445 97.9363C125.64 98.5731 125.831 99.2312 126.018 99.9104C125.882 99.9104 125.733 99.9147 125.572 99.9232H125.113C124.697 99.9232 124.307 99.9147 123.942 99.8977C123.585 99.8807 123.237 99.851 122.897 99.8085C123.22 98.6538 123.513 97.6476 123.776 96.79Z" fill="#535353"/>
</g>
<rect x="90.5" y="73.5" width="49" height="49" rx="24.5" stroke="#535353" stroke-opacity="0.2"/>
<rect x="236" y="146" width="50" height="50" rx="25" fill="#EEEEEE" fill-opacity="0.5"/>
<g clip-path="url(#clip7_1040_6259)">
<path fill-rule="evenodd" clip-rule="evenodd" d="M242.829 163.102L257.373 156.627C257.573 156.538 257.809 156.628 257.898 156.829L261.06 163.929V163.981L262.652 167.548V167.505L267.211 177.745C267.3 177.946 267.21 178.181 267.009 178.271L263.884 179.662L263.886 179.677L261.06 180.917V180.92L252.465 184.746C252.264 184.836 252.029 184.745 251.94 184.544L242.627 163.628C242.538 163.427 242.628 163.192 242.829 163.102ZM260.008 171.636L260.007 171.683C259.876 171.856 259.711 172.044 259.51 172.248C259.307 172.459 259.091 172.663 258.862 172.858C258.644 173.057 258.436 173.228 258.24 173.371C257.991 173.083 257.762 172.831 257.555 172.617C257.14 173.062 256.638 173.415 256.048 173.678C255.443 173.947 254.836 174.087 254.228 174.098C253.623 174.098 253.041 173.98 252.482 173.746C251.93 173.509 251.428 173.165 250.977 172.715C250.522 172.258 250.152 171.707 249.865 171.063C249.578 170.42 249.419 169.779 249.387 169.143C249.351 168.499 249.429 167.893 249.622 167.324C249.823 166.751 250.127 166.244 250.534 165.802C250.946 165.349 251.454 164.988 252.059 164.719C252.664 164.449 253.273 164.313 253.885 164.31C254.494 164.3 255.074 164.413 255.626 164.651C256.186 164.885 256.689 165.232 257.136 165.693C257.587 166.143 257.956 166.69 258.242 167.333C258.495 167.9 258.65 168.467 258.708 169.036C258.763 169.597 258.731 170.132 258.613 170.64C259.129 170.895 259.594 171.227 260.008 171.636ZM259.353 156.181L261.258 160.461L261.26 160.457L262.652 163.528V163.591L267.177 173.755C267.455 172.904 267.748 172.049 268.057 171.191C268.643 169.552 269.267 167.96 269.929 166.415C270.243 166.381 270.591 166.351 270.973 166.326C271.364 166.3 271.763 166.288 272.171 166.288C272.689 167.544 273.24 168.996 273.826 170.643C274.412 172.291 275.015 174.065 275.635 175.967C275.142 176.052 274.675 176.116 274.234 176.158C273.801 176.201 273.359 176.222 272.909 176.222C272.731 175.509 272.531 174.757 272.311 173.968C271.555 174.061 270.77 174.108 269.954 174.108H269.267C269.037 174.099 268.8 174.086 268.553 174.069C268.397 174.623 268.241 175.198 268.085 175.794L268.665 177.098C269.112 178.102 268.661 179.278 267.657 179.725L262.652 181.954V181.97L261.06 182.664V182.662L253.113 186.201C252.109 186.648 250.932 186.196 250.485 185.192L241.173 164.275C240.726 163.271 241.177 162.095 242.181 161.648L256.725 155.173C257.729 154.726 258.906 155.177 259.353 156.181ZM261.06 184.12V184.224C261.06 185.324 261.951 186.215 263.05 186.215H278.97C280.069 186.215 280.96 185.324 280.96 184.224V161.328C280.96 160.229 280.069 159.338 278.97 159.338H263.05C262.697 159.338 262.365 159.43 262.077 159.592L262.776 161.039C262.848 160.972 262.944 160.93 263.05 160.93H278.97C279.19 160.93 279.368 161.108 279.368 161.328V184.224C279.368 184.444 279.19 184.622 278.97 184.622H263.05C262.83 184.622 262.652 184.444 262.652 184.224V183.371L261.06 184.12ZM252.598 171.157C252.274 170.744 251.993 170.269 251.755 169.734C251.479 169.113 251.314 168.536 251.262 168.001C251.21 167.467 251.267 167.01 251.432 166.629C251.605 166.246 251.878 165.971 252.25 165.805C252.692 165.608 253.169 165.605 253.682 165.795C254.19 165.977 254.681 166.317 255.153 166.813C255.625 167.309 256.025 167.926 256.353 168.663C256.581 169.175 256.734 169.664 256.811 170.132C256.205 170.085 255.658 170.171 255.169 170.389C254.425 170.72 253.908 171.313 253.619 172.167C253.262 171.907 252.921 171.571 252.598 171.157ZM256.638 171.84C256.467 172.186 256.206 172.436 255.857 172.592C255.493 172.754 255.091 172.78 254.651 172.669C254.732 172.14 254.962 171.791 255.342 171.622C255.722 171.453 256.154 171.526 256.638 171.84ZM269.776 169.79C270.048 168.932 270.273 168.262 270.451 167.778C270.587 168.16 270.74 168.623 270.91 169.166C271.079 169.701 271.258 170.291 271.445 170.936C271.64 171.573 271.831 172.231 272.018 172.91C271.882 172.91 271.733 172.915 271.572 172.923H271.113C270.697 172.923 270.307 172.915 269.942 172.898C269.585 172.881 269.237 172.851 268.897 172.809C269.22 171.654 269.513 170.648 269.776 169.79Z" fill="#535353"/>
</g>
<rect x="236.5" y="146.5" width="49" height="49" rx="24.5" stroke="#535353" stroke-opacity="0.2"/>
<rect x="90" y="146" width="50" height="50" rx="25" fill="#EEEEEE" fill-opacity="0.5"/>
<g clip-path="url(#clip8_1040_6259)">
<path fill-rule="evenodd" clip-rule="evenodd" d="M96.8287 163.102L111.373 156.627C111.573 156.538 111.809 156.628 111.898 156.829L115.06 163.929V163.981L116.652 167.548V167.505L121.211 177.745C121.3 177.946 121.21 178.181 121.009 178.271L117.884 179.662L117.886 179.677L115.06 180.917V180.92L106.465 184.746C106.264 184.836 106.029 184.745 105.94 184.544L96.6269 163.628C96.5375 163.427 96.6279 163.192 96.8287 163.102ZM114.008 171.636L114.007 171.683C113.876 171.856 113.711 172.044 113.51 172.248C113.307 172.459 113.091 172.663 112.862 172.858C112.644 173.057 112.436 173.228 112.24 173.371C111.991 173.083 111.762 172.831 111.555 172.617C111.14 173.062 110.638 173.415 110.048 173.678C109.443 173.947 108.836 174.087 108.228 174.098C107.623 174.098 107.041 173.98 106.482 173.746C105.93 173.509 105.428 173.165 104.977 172.715C104.522 172.258 104.152 171.707 103.865 171.063C103.578 170.42 103.419 169.779 103.387 169.143C103.351 168.499 103.429 167.893 103.622 167.324C103.823 166.751 104.127 166.244 104.534 165.802C104.946 165.349 105.454 164.988 106.059 164.719C106.664 164.449 107.273 164.313 107.885 164.31C108.494 164.3 109.074 164.413 109.626 164.651C110.186 164.885 110.689 165.232 111.136 165.693C111.587 166.143 111.956 166.69 112.242 167.333C112.495 167.9 112.65 168.467 112.708 169.036C112.763 169.597 112.731 170.132 112.613 170.64C113.129 170.895 113.594 171.227 114.008 171.636ZM113.353 156.181L115.258 160.461L115.26 160.457L116.652 163.528V163.591L121.177 173.755C121.455 172.904 121.748 172.049 122.057 171.191C122.643 169.552 123.267 167.96 123.929 166.415C124.243 166.381 124.591 166.351 124.973 166.326C125.364 166.3 125.763 166.288 126.171 166.288C126.689 167.544 127.24 168.996 127.826 170.643C128.412 172.291 129.015 174.065 129.635 175.967C129.142 176.052 128.675 176.116 128.234 176.158C127.801 176.201 127.359 176.222 126.909 176.222C126.731 175.509 126.531 174.757 126.311 173.968C125.555 174.061 124.77 174.108 123.954 174.108H123.267C123.037 174.099 122.8 174.086 122.553 174.069C122.397 174.623 122.241 175.198 122.085 175.794L122.665 177.098C123.112 178.102 122.661 179.278 121.657 179.725L116.652 181.954V181.97L115.06 182.664V182.662L107.113 186.201C106.109 186.648 104.932 186.196 104.485 185.192L95.1725 164.275C94.7255 163.271 95.1771 162.095 96.1811 161.648L110.725 155.173C111.729 154.726 112.906 155.177 113.353 156.181ZM115.06 184.12V184.224C115.06 185.324 115.951 186.215 117.05 186.215H132.97C134.069 186.215 134.96 185.324 134.96 184.224V161.328C134.96 160.229 134.069 159.338 132.97 159.338H117.05C116.697 159.338 116.365 159.43 116.077 159.592L116.776 161.039C116.848 160.972 116.944 160.93 117.05 160.93H132.97C133.19 160.93 133.368 161.108 133.368 161.328V184.224C133.368 184.444 133.19 184.622 132.97 184.622H117.05C116.83 184.622 116.652 184.444 116.652 184.224V183.371L115.06 184.12ZM106.598 171.157C106.274 170.744 105.993 170.269 105.755 169.734C105.479 169.113 105.314 168.536 105.262 168.001C105.21 167.467 105.267 167.01 105.432 166.629C105.605 166.246 105.878 165.971 106.25 165.805C106.692 165.608 107.169 165.605 107.682 165.795C108.19 165.977 108.681 166.317 109.153 166.813C109.625 167.309 110.025 167.926 110.353 168.663C110.581 169.175 110.734 169.664 110.811 170.132C110.205 170.085 109.658 170.171 109.169 170.389C108.425 170.72 107.908 171.313 107.619 172.167C107.262 171.907 106.921 171.571 106.598 171.157ZM110.638 171.84C110.467 172.186 110.206 172.436 109.857 172.592C109.493 172.754 109.091 172.78 108.651 172.669C108.732 172.14 108.962 171.791 109.342 171.622C109.722 171.453 110.154 171.526 110.638 171.84ZM123.776 169.79C124.048 168.932 124.273 168.262 124.451 167.778C124.587 168.16 124.74 168.623 124.91 169.166C125.079 169.701 125.258 170.291 125.445 170.936C125.64 171.573 125.831 172.231 126.018 172.91C125.882 172.91 125.733 172.915 125.572 172.923H125.113C124.697 172.923 124.307 172.915 123.942 172.898C123.585 172.881 123.237 172.851 122.897 172.809C123.22 171.654 123.513 170.648 123.776 169.79Z" fill="#535353"/>
</g>
<rect x="90.5" y="146.5" width="49" height="49" rx="24.5" stroke="#535353" stroke-opacity="0.2"/>
<rect x="145" y="243" width="13" height="2" fill="#535353" fill-opacity="0.5"/>
<rect x="218" y="243" width="13" height="2" fill="#535353" fill-opacity="0.5"/>
<rect x="163" y="219" width="50" height="50" rx="25" fill="#EEEEEE" fill-opacity="0.5"/>
<g clip-path="url(#clip9_1040_6259)">
<path fill-rule="evenodd" clip-rule="evenodd" d="M173.471 240.012L173.482 239.953L174.904 232.367L174.923 232.266L174.93 232.164L175.278 227.192C175.297 226.922 175.551 226.731 175.816 226.789L189.388 229.756L189.386 229.755L194.36 229.214C194.118 229.038 193.838 228.909 193.529 228.842L176.196 225.052C174.872 224.762 173.599 225.716 173.504 227.068L173.157 232.04L171.735 239.626L169.901 246.738L168.164 251.026C167.649 252.298 168.397 253.727 169.735 254.029L183.223 257.069L182.756 255.141L170.126 252.294C169.858 252.234 169.708 251.948 169.811 251.694L171.549 247.405L171.593 247.296L171.623 247.181L173.457 240.07L173.471 240.012ZM193.49 231.153L193.49 231.153L193.599 231.137L201.487 229.982C202.828 229.785 204.031 230.825 204.031 232.18V237.165L204.92 244.831L206.254 252.054L207.688 256.453C208.113 257.757 207.267 259.131 205.911 259.338L188.576 261.992C187.505 262.156 186.472 261.523 186.131 260.494L184.365 255.165L182.721 247.942L182.031 240.276L182.031 234.752C182.031 233.649 182.84 232.713 183.931 232.553L193.49 231.153ZM193.363 232.968L184.189 234.312C183.971 234.344 183.809 234.531 183.809 234.752L183.809 240.196L184.481 247.664L186.079 254.687L187.818 259.935C187.887 260.141 188.093 260.267 188.308 260.234L205.642 257.581C205.913 257.54 206.082 257.265 205.997 257.004L204.563 252.604L204.527 252.492L204.505 252.376L203.172 245.154L203.161 245.095L203.154 245.036L202.265 237.369L202.254 237.267V237.165V232.18C202.254 231.909 202.013 231.701 201.745 231.741L195.164 232.705L195.163 232.723L193.362 232.98L193.363 232.968ZM192.333 241.353L194.18 241.069L194.178 241.08L200.803 240.09C201.167 240.036 201.507 240.287 201.561 240.651C201.616 241.015 201.364 241.354 201 241.409L193.955 242.462L193.955 242.463L192.109 242.743L192.11 242.737L186.934 243.511C186.57 243.565 186.231 243.314 186.176 242.95C186.122 242.586 186.373 242.247 186.737 242.192L192.332 241.356L192.333 241.353ZM192.004 244.805L193.577 244.563L193.575 244.57L196.852 244.08C197.216 244.026 197.556 244.277 197.61 244.641C197.664 245.005 197.413 245.345 197.049 245.399L192.524 246.075L191.201 246.279L191.203 246.273L187.379 246.844C187.015 246.899 186.675 246.648 186.621 246.284C186.566 245.919 186.818 245.58 187.182 245.526L192.004 244.805ZM190.546 248.446L192.487 248.169L192.485 248.176L193.123 248.08C193.487 248.026 193.826 248.277 193.881 248.641C193.935 249.005 193.684 249.345 193.32 249.399L188.045 250.187C187.681 250.242 187.342 249.991 187.288 249.627C187.233 249.262 187.484 248.923 187.848 248.869L190.54 248.466L190.546 248.446ZM186.293 238.859C185.929 238.913 185.678 239.253 185.732 239.617C185.786 239.981 186.126 240.232 186.49 240.178L200.556 238.076C200.92 238.021 201.171 237.682 201.117 237.318C201.062 236.953 200.723 236.702 200.359 236.757L186.293 238.859Z" fill="#535353"/>
</g>
<rect x="163.5" y="219.5" width="49" height="49" rx="24.5" stroke="#535353" stroke-opacity="0.2"/>
<rect x="236" y="219" width="50" height="50" rx="25" fill="#EEEEEE" fill-opacity="0.5"/>
<g clip-path="url(#clip10_1040_6259)">
<path fill-rule="evenodd" clip-rule="evenodd" d="M242.829 236.102L257.373 229.627C257.573 229.538 257.809 229.628 257.898 229.829L261.06 236.929V236.981L262.652 240.548V240.505L267.211 250.745C267.3 250.946 267.21 251.181 267.009 251.271L263.884 252.662L263.886 252.677L261.06 253.917V253.92L252.465 257.746C252.264 257.836 252.029 257.745 251.94 257.544L242.627 236.628C242.538 236.427 242.628 236.192 242.829 236.102ZM260.008 244.636L260.007 244.683C259.876 244.856 259.711 245.044 259.51 245.248C259.307 245.459 259.091 245.663 258.862 245.858C258.644 246.057 258.436 246.228 258.24 246.371C257.991 246.083 257.762 245.831 257.555 245.617C257.14 246.062 256.638 246.415 256.048 246.678C255.443 246.947 254.836 247.087 254.228 247.098C253.623 247.098 253.041 246.98 252.482 246.746C251.93 246.509 251.428 246.165 250.977 245.715C250.522 245.258 250.152 244.707 249.865 244.063C249.578 243.42 249.419 242.779 249.387 242.143C249.351 241.499 249.429 240.893 249.622 240.324C249.823 239.751 250.127 239.244 250.534 238.802C250.946 238.349 251.454 237.988 252.059 237.719C252.664 237.449 253.273 237.313 253.885 237.31C254.494 237.3 255.074 237.413 255.626 237.651C256.186 237.885 256.689 238.232 257.136 238.693C257.587 239.143 257.956 239.69 258.242 240.333C258.495 240.9 258.65 241.467 258.708 242.036C258.763 242.597 258.731 243.132 258.613 243.64C259.129 243.895 259.594 244.227 260.008 244.636ZM259.353 229.181L261.258 233.461L261.26 233.457L262.652 236.528V236.591L267.177 246.755C267.455 245.904 267.748 245.049 268.057 244.191C268.643 242.552 269.267 240.96 269.929 239.415C270.243 239.381 270.591 239.351 270.973 239.326C271.364 239.3 271.763 239.288 272.171 239.288C272.689 240.544 273.24 241.996 273.826 243.643C274.412 245.291 275.015 247.065 275.635 248.967C275.142 249.052 274.675 249.116 274.234 249.158C273.801 249.201 273.359 249.222 272.909 249.222C272.731 248.509 272.531 247.757 272.311 246.968C271.555 247.061 270.77 247.108 269.954 247.108H269.267C269.037 247.099 268.8 247.086 268.553 247.069C268.397 247.623 268.241 248.198 268.085 248.794L268.665 250.098C269.112 251.102 268.661 252.278 267.657 252.725L262.652 254.954V254.97L261.06 255.664V255.662L253.113 259.201C252.109 259.648 250.932 259.196 250.485 258.192L241.173 237.275C240.726 236.271 241.177 235.095 242.181 234.648L256.725 228.173C257.729 227.726 258.906 228.177 259.353 229.181ZM261.06 257.12V257.224C261.06 258.324 261.951 259.215 263.05 259.215H278.97C280.069 259.215 280.96 258.324 280.96 257.224V234.328C280.96 233.229 280.069 232.338 278.97 232.338H263.05C262.697 232.338 262.365 232.43 262.077 232.592L262.776 234.039C262.848 233.972 262.944 233.93 263.05 233.93H278.97C279.19 233.93 279.368 234.108 279.368 234.328V257.224C279.368 257.444 279.19 257.622 278.97 257.622H263.05C262.83 257.622 262.652 257.444 262.652 257.224V256.371L261.06 257.12ZM252.598 244.157C252.274 243.744 251.993 243.269 251.755 242.734C251.479 242.113 251.314 241.536 251.262 241.001C251.21 240.467 251.267 240.01 251.432 239.629C251.605 239.246 251.878 238.971 252.25 238.805C252.692 238.608 253.169 238.605 253.682 238.795C254.19 238.977 254.681 239.317 255.153 239.813C255.625 240.309 256.025 240.926 256.353 241.663C256.581 242.175 256.734 242.664 256.811 243.132C256.205 243.085 255.658 243.171 255.169 243.389C254.425 243.72 253.908 244.313 253.619 245.167C253.262 244.907 252.921 244.571 252.598 244.157ZM256.638 244.84C256.467 245.186 256.206 245.436 255.857 245.592C255.493 245.754 255.091 245.78 254.651 245.669C254.732 245.14 254.962 244.791 255.342 244.622C255.722 244.453 256.154 244.526 256.638 244.84ZM269.776 242.79C270.048 241.932 270.273 241.262 270.451 240.778C270.587 241.16 270.74 241.623 270.91 242.166C271.079 242.701 271.258 243.291 271.445 243.936C271.64 244.573 271.831 245.231 272.018 245.91C271.882 245.91 271.733 245.915 271.572 245.923H271.113C270.697 245.923 270.307 245.915 269.942 245.898C269.585 245.881 269.237 245.851 268.897 245.809C269.22 244.654 269.513 243.648 269.776 242.79Z" fill="#535353"/>
</g>
<rect x="236.5" y="219.5" width="49" height="49" rx="24.5" stroke="#535353" stroke-opacity="0.2"/>
<rect x="90" y="219" width="50" height="50" rx="25" fill="#EEEEEE" fill-opacity="0.5"/>
<g clip-path="url(#clip11_1040_6259)">
<path fill-rule="evenodd" clip-rule="evenodd" d="M96.8287 236.102L111.373 229.627C111.573 229.538 111.809 229.628 111.898 229.829L115.06 236.929V236.981L116.652 240.548V240.505L121.211 250.745C121.3 250.946 121.21 251.181 121.009 251.271L117.884 252.662L117.886 252.677L115.06 253.917V253.92L106.465 257.746C106.264 257.836 106.029 257.745 105.94 257.544L96.6269 236.628C96.5375 236.427 96.6279 236.192 96.8287 236.102ZM114.008 244.636L114.007 244.683C113.876 244.856 113.711 245.044 113.51 245.248C113.307 245.459 113.091 245.663 112.862 245.858C112.644 246.057 112.436 246.228 112.24 246.371C111.991 246.083 111.762 245.831 111.555 245.617C111.14 246.062 110.638 246.415 110.048 246.678C109.443 246.947 108.836 247.087 108.228 247.098C107.623 247.098 107.041 246.98 106.482 246.746C105.93 246.509 105.428 246.165 104.977 245.715C104.522 245.258 104.152 244.707 103.865 244.063C103.578 243.42 103.419 242.779 103.387 242.143C103.351 241.499 103.429 240.893 103.622 240.324C103.823 239.751 104.127 239.244 104.534 238.802C104.946 238.349 105.454 237.988 106.059 237.719C106.664 237.449 107.273 237.313 107.885 237.31C108.494 237.3 109.074 237.413 109.626 237.651C110.186 237.885 110.689 238.232 111.136 238.693C111.587 239.143 111.956 239.69 112.242 240.333C112.495 240.9 112.65 241.467 112.708 242.036C112.763 242.597 112.731 243.132 112.613 243.64C113.129 243.895 113.594 244.227 114.008 244.636ZM113.353 229.181L115.258 233.461L115.26 233.457L116.652 236.528V236.591L121.177 246.755C121.455 245.904 121.748 245.049 122.057 244.191C122.643 242.552 123.267 240.96 123.929 239.415C124.243 239.381 124.591 239.351 124.973 239.326C125.364 239.3 125.763 239.288 126.171 239.288C126.689 240.544 127.24 241.996 127.826 243.643C128.412 245.291 129.015 247.065 129.635 248.967C129.142 249.052 128.675 249.116 128.234 249.158C127.801 249.201 127.359 249.222 126.909 249.222C126.731 248.509 126.531 247.757 126.311 246.968C125.555 247.061 124.77 247.108 123.954 247.108H123.267C123.037 247.099 122.8 247.086 122.553 247.069C122.397 247.623 122.241 248.198 122.085 248.794L122.665 250.098C123.112 251.102 122.661 252.278 121.657 252.725L116.652 254.954V254.97L115.06 255.664V255.662L107.113 259.201C106.109 259.648 104.932 259.196 104.485 258.192L95.1725 237.275C94.7255 236.271 95.1771 235.095 96.1811 234.648L110.725 228.173C111.729 227.726 112.906 228.177 113.353 229.181ZM115.06 257.12V257.224C115.06 258.324 115.951 259.215 117.05 259.215H132.97C134.069 259.215 134.96 258.324 134.96 257.224V234.328C134.96 233.229 134.069 232.338 132.97 232.338H117.05C116.697 232.338 116.365 232.43 116.077 232.592L116.776 234.039C116.848 233.972 116.944 233.93 117.05 233.93H132.97C133.19 233.93 133.368 234.108 133.368 234.328V257.224C133.368 257.444 133.19 257.622 132.97 257.622H117.05C116.83 257.622 116.652 257.444 116.652 257.224V256.371L115.06 257.12ZM106.598 244.157C106.274 243.744 105.993 243.269 105.755 242.734C105.479 242.113 105.314 241.536 105.262 241.001C105.21 240.467 105.267 240.01 105.432 239.629C105.605 239.246 105.878 238.971 106.25 238.805C106.692 238.608 107.169 238.605 107.682 238.795C108.19 238.977 108.681 239.317 109.153 239.813C109.625 240.309 110.025 240.926 110.353 241.663C110.581 242.175 110.734 242.664 110.811 243.132C110.205 243.085 109.658 243.171 109.169 243.389C108.425 243.72 107.908 244.313 107.619 245.167C107.262 244.907 106.921 244.571 106.598 244.157ZM110.638 244.84C110.467 245.186 110.206 245.436 109.857 245.592C109.493 245.754 109.091 245.78 108.651 245.669C108.732 245.14 108.962 244.791 109.342 244.622C109.722 244.453 110.154 244.526 110.638 244.84ZM123.776 242.79C124.048 241.932 124.273 241.262 124.451 240.778C124.587 241.16 124.74 241.623 124.91 242.166C125.079 242.701 125.258 243.291 125.445 243.936C125.64 244.573 125.831 245.231 126.018 245.91C125.882 245.91 125.733 245.915 125.572 245.923H125.113C124.697 245.923 124.307 245.915 123.942 245.898C123.585 245.881 123.237 245.851 122.897 245.809C123.22 244.654 123.513 243.648 123.776 242.79Z" fill="#535353"/>
</g>
<rect x="90.5" y="219.5" width="49" height="49" rx="24.5" stroke="#535353" stroke-opacity="0.2"/>
<g filter="url(#filter0_d_1040_6259)">
<rect x="10" y="108" width="172.158" height="111.083" rx="10" fill="white"/>
<line x1="44" y1="142" x2="133" y2="142" stroke="#ACACAC" stroke-width="4" stroke-linecap="round"/>
<line x1="44" y1="152" x2="148" y2="152" stroke="#ACACAC" stroke-width="4" stroke-linecap="round"/>
<line x1="43.9885" y1="162.389" x2="109.989" y2="162.011" stroke="#ACACAC" stroke-width="4" stroke-linecap="round"/>
<line x1="44" y1="172.4" x2="148" y2="172.4" stroke="#ACACAC" stroke-width="4" stroke-linecap="round"/>
<line x1="44" y1="182.4" x2="139" y2="182.4" stroke="#ACACAC" stroke-width="4" stroke-linecap="round"/>
<line x1="44" y1="193" x2="148" y2="193" stroke="#ACACAC" stroke-width="4" stroke-linecap="round"/>
<path d="M52.4102 126.08V127H47.8926V126.08H52.4102ZM48.1211 118.469V127H46.9902V118.469H48.1211ZM51.8125 122.137V123.057H47.8926V122.137H51.8125ZM52.3516 118.469V119.395H47.8926V118.469H52.3516ZM54.3789 120.66L55.7676 122.969L57.1738 120.66H58.4453L56.3711 123.789L58.5098 127H57.2559L55.791 124.621L54.3262 127H53.0664L55.1992 123.789L53.1309 120.66H54.3789ZM60.6836 121.879V129.438H59.5938V120.66H60.5898L60.6836 121.879ZM64.9551 123.777V123.9C64.9551 124.361 64.9004 124.789 64.791 125.184C64.6816 125.574 64.5215 125.914 64.3105 126.203C64.1035 126.492 63.8477 126.717 63.543 126.877C63.2383 127.037 62.8887 127.117 62.4941 127.117C62.0918 127.117 61.7363 127.051 61.4277 126.918C61.1191 126.785 60.8574 126.592 60.6426 126.338C60.4277 126.084 60.2559 125.779 60.127 125.424C60.002 125.068 59.916 124.668 59.8691 124.223V123.566C59.916 123.098 60.0039 122.678 60.1328 122.307C60.2617 121.936 60.4316 121.619 60.6426 121.357C60.8574 121.092 61.1172 120.891 61.4219 120.754C61.7266 120.613 62.0781 120.543 62.4766 120.543C62.875 120.543 63.2285 120.621 63.5371 120.777C63.8457 120.93 64.1055 121.148 64.3164 121.434C64.5273 121.719 64.6855 122.061 64.791 122.459C64.9004 122.854 64.9551 123.293 64.9551 123.777ZM63.8652 123.9V123.777C63.8652 123.461 63.832 123.164 63.7656 122.887C63.6992 122.605 63.5957 122.359 63.4551 122.148C63.3184 121.934 63.1426 121.766 62.9277 121.645C62.7129 121.52 62.457 121.457 62.1602 121.457C61.8867 121.457 61.6484 121.504 61.4453 121.598C61.2461 121.691 61.0762 121.818 60.9355 121.979C60.7949 122.135 60.6797 122.314 60.5898 122.518C60.5039 122.717 60.4395 122.924 60.3965 123.139V124.656C60.4746 124.93 60.584 125.188 60.7246 125.43C60.8652 125.668 61.0527 125.861 61.2871 126.01C61.5215 126.154 61.8164 126.227 62.1719 126.227C62.4648 126.227 62.7168 126.166 62.9277 126.045C63.1426 125.92 63.3184 125.75 63.4551 125.535C63.5957 125.32 63.6992 125.074 63.7656 124.797C63.832 124.516 63.8652 124.217 63.8652 123.9ZM67.5156 118V127H66.4258V118H67.5156ZM72.9941 125.916V122.652C72.9941 122.402 72.9434 122.186 72.8418 122.002C72.7441 121.814 72.5957 121.67 72.3965 121.568C72.1973 121.467 71.9512 121.416 71.6582 121.416C71.3848 121.416 71.1445 121.463 70.9375 121.557C70.7344 121.65 70.5742 121.773 70.457 121.926C70.3438 122.078 70.2871 122.242 70.2871 122.418H69.2031C69.2031 122.191 69.2617 121.967 69.3789 121.744C69.4961 121.521 69.6641 121.32 69.8828 121.141C70.1055 120.957 70.3711 120.812 70.6797 120.707C70.9922 120.598 71.3398 120.543 71.7227 120.543C72.1836 120.543 72.5898 120.621 72.9414 120.777C73.2969 120.934 73.5742 121.17 73.7734 121.486C73.9766 121.799 74.0781 122.191 74.0781 122.664V125.617C74.0781 125.828 74.0957 126.053 74.1309 126.291C74.1699 126.529 74.2266 126.734 74.3008 126.906V127H73.1699C73.1152 126.875 73.0723 126.709 73.041 126.502C73.0098 126.291 72.9941 126.096 72.9941 125.916ZM73.1816 123.156L73.1934 123.918H72.0977C71.7891 123.918 71.5137 123.943 71.2715 123.994C71.0293 124.041 70.8262 124.113 70.6621 124.211C70.498 124.309 70.373 124.432 70.2871 124.58C70.2012 124.725 70.1582 124.895 70.1582 125.09C70.1582 125.289 70.2031 125.471 70.293 125.635C70.3828 125.799 70.5176 125.93 70.6973 126.027C70.8809 126.121 71.1055 126.168 71.3711 126.168C71.7031 126.168 71.9961 126.098 72.25 125.957C72.5039 125.816 72.7051 125.645 72.8535 125.441C73.0059 125.238 73.0879 125.041 73.0996 124.85L73.5625 125.371C73.5352 125.535 73.4609 125.717 73.3398 125.916C73.2188 126.115 73.0566 126.307 72.8535 126.49C72.6543 126.67 72.416 126.82 72.1387 126.941C71.8652 127.059 71.5566 127.117 71.2129 127.117C70.7832 127.117 70.4062 127.033 70.082 126.865C69.7617 126.697 69.5117 126.473 69.332 126.191C69.1562 125.906 69.0684 125.588 69.0684 125.236C69.0684 124.896 69.1348 124.598 69.2676 124.34C69.4004 124.078 69.5918 123.861 69.8418 123.689C70.0918 123.514 70.3926 123.381 70.7441 123.291C71.0957 123.201 71.4883 123.156 71.9219 123.156H73.1816ZM76.8672 122.014V127H75.7832V120.66H76.8086L76.8672 122.014ZM76.6094 123.59L76.1582 123.572C76.1621 123.139 76.2266 122.738 76.3516 122.371C76.4766 122 76.6523 121.678 76.8789 121.404C77.1055 121.131 77.375 120.92 77.6875 120.771C78.0039 120.619 78.3535 120.543 78.7363 120.543C79.0488 120.543 79.3301 120.586 79.5801 120.672C79.8301 120.754 80.043 120.887 80.2188 121.07C80.3984 121.254 80.5352 121.492 80.6289 121.785C80.7227 122.074 80.7695 122.428 80.7695 122.846V127H79.6797V122.834C79.6797 122.502 79.6309 122.236 79.5332 122.037C79.4355 121.834 79.293 121.688 79.1055 121.598C78.918 121.504 78.6875 121.457 78.4141 121.457C78.1445 121.457 77.8984 121.514 77.6758 121.627C77.457 121.74 77.2676 121.896 77.1074 122.096C76.9512 122.295 76.8281 122.523 76.7383 122.781C76.6523 123.035 76.6094 123.305 76.6094 123.59ZM86.1543 125.916V122.652C86.1543 122.402 86.1035 122.186 86.002 122.002C85.9043 121.814 85.7559 121.67 85.5566 121.568C85.3574 121.467 85.1113 121.416 84.8184 121.416C84.5449 121.416 84.3047 121.463 84.0977 121.557C83.8945 121.65 83.7344 121.773 83.6172 121.926C83.5039 122.078 83.4473 122.242 83.4473 122.418H82.3633C82.3633 122.191 82.4219 121.967 82.5391 121.744C82.6562 121.521 82.8242 121.32 83.043 121.141C83.2656 120.957 83.5312 120.812 83.8398 120.707C84.1523 120.598 84.5 120.543 84.8828 120.543C85.3438 120.543 85.75 120.621 86.1016 120.777C86.457 120.934 86.7344 121.17 86.9336 121.486C87.1367 121.799 87.2383 122.191 87.2383 122.664V125.617C87.2383 125.828 87.2559 126.053 87.291 126.291C87.3301 126.529 87.3867 126.734 87.4609 126.906V127H86.3301C86.2754 126.875 86.2324 126.709 86.2012 126.502C86.1699 126.291 86.1543 126.096 86.1543 125.916ZM86.3418 123.156L86.3535 123.918H85.2578C84.9492 123.918 84.6738 123.943 84.4316 123.994C84.1895 124.041 83.9863 124.113 83.8223 124.211C83.6582 124.309 83.5332 124.432 83.4473 124.58C83.3613 124.725 83.3184 124.895 83.3184 125.09C83.3184 125.289 83.3633 125.471 83.4531 125.635C83.543 125.799 83.6777 125.93 83.8574 126.027C84.041 126.121 84.2656 126.168 84.5312 126.168C84.8633 126.168 85.1562 126.098 85.4102 125.957C85.6641 125.816 85.8652 125.645 86.0137 125.441C86.166 125.238 86.248 125.041 86.2598 124.85L86.7227 125.371C86.6953 125.535 86.6211 125.717 86.5 125.916C86.3789 126.115 86.2168 126.307 86.0137 126.49C85.8145 126.67 85.5762 126.82 85.2988 126.941C85.0254 127.059 84.7168 127.117 84.373 127.117C83.9434 127.117 83.5664 127.033 83.2422 126.865C82.9219 126.697 82.6719 126.473 82.4922 126.191C82.3164 125.906 82.2285 125.588 82.2285 125.236C82.2285 124.896 82.2949 124.598 82.4277 124.34C82.5605 124.078 82.752 123.861 83.002 123.689C83.252 123.514 83.5527 123.381 83.9043 123.291C84.2559 123.201 84.6484 123.156 85.082 123.156H86.3418ZM91.5977 120.66V121.492H88.1699V120.66H91.5977ZM89.3301 119.119H90.4141V125.43C90.4141 125.645 90.4473 125.807 90.5137 125.916C90.5801 126.025 90.666 126.098 90.7715 126.133C90.877 126.168 90.9902 126.186 91.1113 126.186C91.2012 126.186 91.2949 126.178 91.3926 126.162C91.4941 126.143 91.5703 126.127 91.6211 126.115L91.627 127C91.541 127.027 91.4277 127.053 91.2871 127.076C91.1504 127.104 90.9844 127.117 90.7891 127.117C90.5234 127.117 90.2793 127.064 90.0566 126.959C89.834 126.854 89.6562 126.678 89.5234 126.432C89.3945 126.182 89.3301 125.846 89.3301 125.424V119.119ZM94.0469 120.66V127H92.957V120.66H94.0469ZM92.875 118.979C92.875 118.803 92.9277 118.654 93.0332 118.533C93.1426 118.412 93.3027 118.352 93.5137 118.352C93.7207 118.352 93.8789 118.412 93.9883 118.533C94.1016 118.654 94.1582 118.803 94.1582 118.979C94.1582 119.146 94.1016 119.291 93.9883 119.412C93.8789 119.529 93.7207 119.588 93.5137 119.588C93.3027 119.588 93.1426 119.529 93.0332 119.412C92.9277 119.291 92.875 119.146 92.875 118.979ZM95.5 123.9V123.766C95.5 123.309 95.5664 122.885 95.6992 122.494C95.832 122.1 96.0234 121.758 96.2734 121.469C96.5234 121.176 96.8262 120.949 97.1816 120.789C97.5371 120.625 97.9355 120.543 98.377 120.543C98.8223 120.543 99.2227 120.625 99.5781 120.789C99.9375 120.949 100.242 121.176 100.492 121.469C100.746 121.758 100.939 122.1 101.072 122.494C101.205 122.885 101.271 123.309 101.271 123.766V123.9C101.271 124.357 101.205 124.781 101.072 125.172C100.939 125.562 100.746 125.904 100.492 126.197C100.242 126.486 99.9395 126.713 99.584 126.877C99.2324 127.037 98.834 127.117 98.3887 127.117C97.9434 127.117 97.543 127.037 97.1875 126.877C96.832 126.713 96.5273 126.486 96.2734 126.197C96.0234 125.904 95.832 125.562 95.6992 125.172C95.5664 124.781 95.5 124.357 95.5 123.9ZM96.584 123.766V123.9C96.584 124.217 96.6211 124.516 96.6953 124.797C96.7695 125.074 96.8809 125.32 97.0293 125.535C97.1816 125.75 97.3711 125.92 97.5977 126.045C97.8242 126.166 98.0879 126.227 98.3887 126.227C98.6855 126.227 98.9453 126.166 99.168 126.045C99.3945 125.92 99.582 125.75 99.7305 125.535C99.8789 125.32 99.9902 125.074 100.064 124.797C100.143 124.516 100.182 124.217 100.182 123.9V123.766C100.182 123.453 100.143 123.158 100.064 122.881C99.9902 122.6 99.877 122.352 99.7246 122.137C99.5762 121.918 99.3887 121.746 99.1621 121.621C98.9395 121.496 98.6777 121.434 98.377 121.434C98.0801 121.434 97.8184 121.496 97.5918 121.621C97.3691 121.746 97.1816 121.918 97.0293 122.137C96.8809 122.352 96.7695 122.6 96.6953 122.881C96.6211 123.158 96.584 123.453 96.584 123.766ZM103.715 122.014V127H102.631V120.66H103.656L103.715 122.014ZM103.457 123.59L103.006 123.572C103.01 123.139 103.074 122.738 103.199 122.371C103.324 122 103.5 121.678 103.727 121.404C103.953 121.131 104.223 120.92 104.535 120.771C104.852 120.619 105.201 120.543 105.584 120.543C105.896 120.543 106.178 120.586 106.428 120.672C106.678 120.754 106.891 120.887 107.066 121.07C107.246 121.254 107.383 121.492 107.477 121.785C107.57 122.074 107.617 122.428 107.617 122.846V127H106.527V122.834C106.527 122.502 106.479 122.236 106.381 122.037C106.283 121.834 106.141 121.688 105.953 121.598C105.766 121.504 105.535 121.457 105.262 121.457C104.992 121.457 104.746 121.514 104.523 121.627C104.305 121.74 104.115 121.896 103.955 122.096C103.799 122.295 103.676 122.523 103.586 122.781C103.5 123.035 103.457 123.305 103.457 123.59Z" fill="black"/>
<rect x="10.5" y="108.5" width="171.158" height="110.083" rx="9.5" stroke="#1C2639"/>
</g>
<g filter="url(#filter1_d_1040_6259)">
<g clip-path="url(#clip12_1040_6259)">
<rect x="162" y="181" width="172.158" height="111.083" rx="10" fill="white"/>
<rect width="170.663" height="31.9877" transform="translate(162.773 260.014)" fill="#ACACAC"/>
<path d="M222.134 277.455C222.134 277.289 222.108 277.143 222.056 277.016C222.007 276.885 221.919 276.768 221.792 276.664C221.668 276.56 221.496 276.461 221.274 276.366C221.056 276.272 220.78 276.176 220.444 276.078C220.093 275.974 219.775 275.858 219.492 275.731C219.209 275.601 218.966 275.453 218.765 275.287C218.563 275.121 218.408 274.931 218.301 274.716C218.193 274.501 218.14 274.255 218.14 273.979C218.14 273.702 218.197 273.446 218.311 273.212C218.424 272.978 218.587 272.774 218.799 272.602C219.014 272.426 219.269 272.289 219.565 272.191C219.862 272.094 220.192 272.045 220.557 272.045C221.09 272.045 221.543 272.147 221.914 272.353C222.288 272.554 222.573 272.82 222.769 273.148C222.964 273.474 223.062 273.822 223.062 274.193H222.124C222.124 273.926 222.067 273.69 221.953 273.485C221.839 273.277 221.667 273.114 221.436 272.997C221.204 272.877 220.911 272.816 220.557 272.816C220.221 272.816 219.945 272.867 219.727 272.968C219.508 273.069 219.346 273.205 219.238 273.378C219.134 273.55 219.082 273.747 219.082 273.969C219.082 274.118 219.113 274.255 219.175 274.379C219.24 274.499 219.339 274.612 219.473 274.716C219.609 274.82 219.782 274.916 219.99 275.004C220.202 275.092 220.454 275.176 220.747 275.258C221.151 275.372 221.499 275.499 221.792 275.639C222.085 275.779 222.326 275.937 222.515 276.112C222.707 276.285 222.848 276.482 222.939 276.703C223.034 276.921 223.081 277.169 223.081 277.445C223.081 277.735 223.022 277.997 222.905 278.231C222.788 278.466 222.62 278.666 222.402 278.832C222.184 278.998 221.922 279.127 221.616 279.218C221.313 279.306 220.975 279.35 220.601 279.35C220.272 279.35 219.948 279.304 219.629 279.213C219.313 279.122 219.025 278.985 218.765 278.803C218.507 278.62 218.301 278.396 218.145 278.129C217.992 277.859 217.915 277.546 217.915 277.191H218.853C218.853 277.436 218.9 277.646 218.994 277.821C219.089 277.994 219.217 278.137 219.38 278.251C219.546 278.365 219.733 278.45 219.941 278.505C220.153 278.557 220.373 278.583 220.601 278.583C220.929 278.583 221.208 278.537 221.436 278.446C221.663 278.355 221.836 278.225 221.953 278.056C222.074 277.886 222.134 277.686 222.134 277.455ZM225.049 271.752V279.252H224.146V271.752H225.049ZM224.834 276.41L224.458 276.396C224.461 276.034 224.515 275.701 224.619 275.395C224.723 275.085 224.87 274.817 225.059 274.589C225.247 274.361 225.472 274.185 225.732 274.062C225.996 273.935 226.287 273.871 226.606 273.871C226.867 273.871 227.101 273.907 227.31 273.979C227.518 274.047 227.695 274.158 227.842 274.311C227.992 274.464 228.105 274.662 228.184 274.906C228.262 275.147 228.301 275.442 228.301 275.79V279.252H227.393V275.78C227.393 275.504 227.352 275.282 227.271 275.116C227.189 274.947 227.07 274.825 226.914 274.75C226.758 274.672 226.566 274.633 226.338 274.633C226.113 274.633 225.908 274.68 225.723 274.774C225.54 274.869 225.382 274.999 225.249 275.165C225.119 275.331 225.016 275.521 224.941 275.736C224.87 275.948 224.834 276.173 224.834 276.41ZM229.414 276.669V276.557C229.414 276.176 229.469 275.823 229.58 275.497C229.691 275.168 229.85 274.883 230.059 274.643C230.267 274.398 230.519 274.21 230.815 274.076C231.112 273.939 231.444 273.871 231.812 273.871C232.183 273.871 232.516 273.939 232.812 274.076C233.112 274.21 233.366 274.398 233.574 274.643C233.786 274.883 233.947 275.168 234.058 275.497C234.168 275.823 234.224 276.176 234.224 276.557V276.669C234.224 277.05 234.168 277.403 234.058 277.729C233.947 278.054 233.786 278.339 233.574 278.583C233.366 278.824 233.114 279.013 232.817 279.149C232.524 279.283 232.192 279.35 231.821 279.35C231.45 279.35 231.117 279.283 230.82 279.149C230.524 279.013 230.27 278.824 230.059 278.583C229.85 278.339 229.691 278.054 229.58 277.729C229.469 277.403 229.414 277.05 229.414 276.669ZM230.317 276.557V276.669C230.317 276.933 230.348 277.182 230.41 277.416C230.472 277.647 230.565 277.852 230.688 278.031C230.815 278.21 230.973 278.352 231.162 278.456C231.351 278.557 231.571 278.607 231.821 278.607C232.069 278.607 232.285 278.557 232.471 278.456C232.66 278.352 232.816 278.21 232.939 278.031C233.063 277.852 233.156 277.647 233.218 277.416C233.283 277.182 233.315 276.933 233.315 276.669V276.557C233.315 276.296 233.283 276.05 233.218 275.819C233.156 275.585 233.062 275.378 232.935 275.199C232.811 275.017 232.655 274.874 232.466 274.77C232.28 274.665 232.062 274.613 231.812 274.613C231.564 274.613 231.346 274.665 231.157 274.77C230.972 274.874 230.815 275.017 230.688 275.199C230.565 275.378 230.472 275.585 230.41 275.819C230.348 276.05 230.317 276.296 230.317 276.557ZM236.694 278.314L238.052 273.969H238.647L238.53 274.833L237.148 279.252H236.567L236.694 278.314ZM235.781 273.969L236.938 278.363L237.021 279.252H236.411L234.878 273.969H235.781ZM239.946 278.329L241.05 273.969H241.948L240.415 279.252H239.81L239.946 278.329ZM238.779 273.969L240.107 278.241L240.259 279.252H239.683L238.262 274.823L238.145 273.969H238.779ZM248.125 272.772L245.771 279.252H244.81L247.52 272.143H248.14L248.125 272.772ZM250.098 279.252L247.739 272.772L247.725 272.143H248.345L251.064 279.252H250.098ZM249.976 276.62V277.392H245.981V276.62H249.976ZM252.783 275.097V279.252H251.88V273.969H252.734L252.783 275.097ZM252.568 276.41L252.192 276.396C252.196 276.034 252.249 275.701 252.354 275.395C252.458 275.085 252.604 274.817 252.793 274.589C252.982 274.361 253.206 274.185 253.467 274.062C253.73 273.935 254.022 273.871 254.341 273.871C254.601 273.871 254.836 273.907 255.044 273.979C255.252 274.047 255.43 274.158 255.576 274.311C255.726 274.464 255.84 274.662 255.918 274.906C255.996 275.147 256.035 275.442 256.035 275.79V279.252H255.127V275.78C255.127 275.504 255.086 275.282 255.005 275.116C254.924 274.947 254.805 274.825 254.648 274.75C254.492 274.672 254.3 274.633 254.072 274.633C253.848 274.633 253.643 274.68 253.457 274.774C253.275 274.869 253.117 274.999 252.983 275.165C252.853 275.331 252.751 275.521 252.676 275.736C252.604 275.948 252.568 276.173 252.568 276.41ZM260.483 277.851C260.483 277.72 260.454 277.6 260.396 277.489C260.34 277.375 260.225 277.273 260.049 277.182C259.876 277.087 259.616 277.006 259.268 276.938C258.975 276.876 258.709 276.802 258.472 276.718C258.237 276.633 258.037 276.531 257.871 276.41C257.708 276.29 257.583 276.148 257.495 275.985C257.407 275.823 257.363 275.632 257.363 275.414C257.363 275.206 257.409 275.009 257.5 274.823C257.594 274.638 257.726 274.473 257.896 274.33C258.068 274.187 258.275 274.075 258.516 273.993C258.757 273.912 259.025 273.871 259.321 273.871C259.744 273.871 260.106 273.946 260.405 274.096C260.705 274.245 260.934 274.446 261.094 274.696C261.253 274.944 261.333 275.219 261.333 275.521H260.43C260.43 275.375 260.386 275.233 260.298 275.097C260.213 274.957 260.088 274.841 259.922 274.75C259.759 274.659 259.559 274.613 259.321 274.613C259.071 274.613 258.867 274.652 258.711 274.73C258.558 274.805 258.446 274.901 258.374 275.019C258.306 275.136 258.271 275.259 258.271 275.39C258.271 275.487 258.288 275.575 258.32 275.653C258.356 275.728 258.418 275.798 258.506 275.863C258.594 275.925 258.717 275.984 258.877 276.039C259.036 276.094 259.24 276.15 259.487 276.205C259.92 276.303 260.277 276.42 260.557 276.557C260.837 276.693 261.045 276.861 261.182 277.06C261.318 277.258 261.387 277.499 261.387 277.782C261.387 278.013 261.338 278.225 261.24 278.417C261.146 278.609 261.007 278.775 260.825 278.915C260.646 279.052 260.431 279.159 260.181 279.237C259.933 279.312 259.655 279.35 259.346 279.35C258.88 279.35 258.486 279.267 258.164 279.101C257.842 278.935 257.598 278.72 257.432 278.456C257.266 278.192 257.183 277.914 257.183 277.621H258.091C258.104 277.868 258.175 278.065 258.306 278.212C258.436 278.355 258.595 278.458 258.784 278.52C258.973 278.578 259.16 278.607 259.346 278.607C259.593 278.607 259.8 278.575 259.966 278.51C260.135 278.445 260.264 278.355 260.352 278.241C260.439 278.127 260.483 277.997 260.483 277.851ZM263.911 278.314L265.269 273.969H265.864L265.747 274.833L264.365 279.252H263.784L263.911 278.314ZM262.998 273.969L264.155 278.363L264.238 279.252H263.628L262.095 273.969H262.998ZM267.163 278.329L268.267 273.969H269.165L267.632 279.252H267.026L267.163 278.329ZM265.996 273.969L267.324 278.241L267.476 279.252H266.899L265.479 274.823L265.361 273.969H265.996ZM272.285 279.35C271.917 279.35 271.584 279.288 271.284 279.164C270.988 279.037 270.732 278.86 270.518 278.632C270.306 278.404 270.143 278.134 270.029 277.821C269.915 277.509 269.858 277.167 269.858 276.796V276.591C269.858 276.161 269.922 275.779 270.049 275.443C270.176 275.105 270.348 274.818 270.566 274.584C270.785 274.35 271.032 274.172 271.309 274.052C271.585 273.931 271.872 273.871 272.168 273.871C272.546 273.871 272.871 273.936 273.145 274.066C273.421 274.197 273.647 274.379 273.823 274.613C273.999 274.844 274.129 275.118 274.214 275.434C274.299 275.746 274.341 276.088 274.341 276.459V276.864H270.396V276.127H273.438V276.059C273.424 275.824 273.376 275.596 273.291 275.375C273.21 275.154 273.079 274.971 272.9 274.828C272.721 274.685 272.477 274.613 272.168 274.613C271.963 274.613 271.774 274.657 271.602 274.745C271.429 274.83 271.281 274.957 271.157 275.126C271.034 275.295 270.938 275.502 270.869 275.746C270.801 275.99 270.767 276.272 270.767 276.591V276.796C270.767 277.047 270.801 277.283 270.869 277.504C270.941 277.722 271.043 277.914 271.177 278.08C271.313 278.246 271.478 278.376 271.67 278.471C271.865 278.565 272.087 278.612 272.334 278.612C272.653 278.612 272.923 278.547 273.145 278.417C273.366 278.287 273.56 278.113 273.726 277.895L274.272 278.329C274.159 278.502 274.014 278.666 273.838 278.822C273.662 278.979 273.446 279.105 273.188 279.203C272.935 279.301 272.633 279.35 272.285 279.35ZM276.299 274.799V279.252H275.396V273.969H276.274L276.299 274.799ZM277.949 273.939L277.944 274.779C277.869 274.763 277.798 274.753 277.729 274.75C277.664 274.743 277.59 274.74 277.505 274.74C277.297 274.74 277.113 274.773 276.953 274.838C276.794 274.903 276.659 274.994 276.548 275.111C276.437 275.229 276.349 275.368 276.284 275.531C276.222 275.691 276.182 275.867 276.162 276.059L275.908 276.205C275.908 275.886 275.939 275.587 276.001 275.307C276.066 275.027 276.165 274.779 276.299 274.564C276.432 274.346 276.602 274.177 276.807 274.057C277.015 273.933 277.262 273.871 277.549 273.871C277.614 273.871 277.689 273.879 277.773 273.896C277.858 273.909 277.917 273.923 277.949 273.939Z" fill="black"/>
<line x1="196" y1="215" x2="285" y2="215" stroke="#ACACAC" stroke-width="4" stroke-linecap="round"/>
<line x1="196" y1="225" x2="300" y2="225" stroke="#ACACAC" stroke-width="4" stroke-linecap="round"/>
<line x1="196" y1="235" x2="300" y2="235" stroke="#ACACAC" stroke-width="4" stroke-linecap="round"/>
<path d="M199.887 199.021L202.055 200.738L201.293 201.441L199.16 199.748L199.887 199.021ZM202.025 195.465V196.004C202.025 196.645 201.945 197.219 201.785 197.727C201.625 198.234 201.395 198.666 201.094 199.021C200.793 199.377 200.432 199.648 200.01 199.836C199.592 200.023 199.123 200.117 198.604 200.117C198.1 200.117 197.637 200.023 197.215 199.836C196.797 199.648 196.434 199.377 196.125 199.021C195.82 198.666 195.584 198.234 195.416 197.727C195.248 197.219 195.164 196.645 195.164 196.004V195.465C195.164 194.824 195.246 194.252 195.41 193.748C195.578 193.24 195.814 192.809 196.119 192.453C196.424 192.094 196.785 191.82 197.203 191.633C197.625 191.445 198.088 191.352 198.592 191.352C199.111 191.352 199.582 191.445 200.004 191.633C200.426 191.82 200.787 192.094 201.088 192.453C201.389 192.809 201.619 193.24 201.779 193.748C201.943 194.252 202.025 194.824 202.025 195.465ZM200.906 196.004V195.453C200.906 194.945 200.854 194.496 200.748 194.105C200.646 193.715 200.496 193.387 200.297 193.121C200.098 192.855 199.855 192.654 199.57 192.518C199.285 192.381 198.959 192.312 198.592 192.312C198.244 192.312 197.928 192.381 197.643 192.518C197.361 192.654 197.119 192.855 196.916 193.121C196.713 193.387 196.557 193.715 196.447 194.105C196.338 194.496 196.283 194.945 196.283 195.453V196.004C196.283 196.516 196.338 196.969 196.447 197.363C196.557 197.754 196.713 198.084 196.916 198.354C197.123 198.619 197.369 198.82 197.654 198.957C197.939 199.094 198.256 199.162 198.604 199.162C198.971 199.162 199.297 199.094 199.582 198.957C199.867 198.82 200.107 198.619 200.303 198.354C200.502 198.084 200.652 197.754 200.754 197.363C200.855 196.969 200.906 196.516 200.906 196.004ZM207.486 198.535V193.66H208.576V200H207.539L207.486 198.535ZM207.691 197.199L208.143 197.188C208.143 197.609 208.098 198 208.008 198.359C207.922 198.715 207.781 199.023 207.586 199.285C207.391 199.547 207.135 199.752 206.818 199.9C206.502 200.045 206.117 200.117 205.664 200.117C205.355 200.117 205.072 200.072 204.814 199.982C204.561 199.893 204.342 199.754 204.158 199.566C203.975 199.379 203.832 199.135 203.73 198.834C203.633 198.533 203.584 198.172 203.584 197.75V193.66H204.668V197.762C204.668 198.047 204.699 198.283 204.762 198.471C204.828 198.654 204.916 198.801 205.025 198.91C205.139 199.016 205.264 199.09 205.4 199.133C205.541 199.176 205.686 199.197 205.834 199.197C206.295 199.197 206.66 199.109 206.93 198.934C207.199 198.754 207.393 198.514 207.51 198.213C207.631 197.908 207.691 197.57 207.691 197.199ZM212.859 200.117C212.418 200.117 212.018 200.043 211.658 199.895C211.303 199.742 210.996 199.529 210.738 199.256C210.484 198.982 210.289 198.658 210.152 198.283C210.016 197.908 209.947 197.498 209.947 197.053V196.807C209.947 196.291 210.023 195.832 210.176 195.43C210.328 195.023 210.535 194.68 210.797 194.398C211.059 194.117 211.355 193.904 211.688 193.76C212.02 193.615 212.363 193.543 212.719 193.543C213.172 193.543 213.562 193.621 213.891 193.777C214.223 193.934 214.494 194.152 214.705 194.434C214.916 194.711 215.072 195.039 215.174 195.418C215.275 195.793 215.326 196.203 215.326 196.648V197.135H210.592V196.25H214.242V196.168C214.227 195.887 214.168 195.613 214.066 195.348C213.969 195.082 213.812 194.863 213.598 194.691C213.383 194.52 213.09 194.434 212.719 194.434C212.473 194.434 212.246 194.486 212.039 194.592C211.832 194.693 211.654 194.846 211.506 195.049C211.357 195.252 211.242 195.5 211.16 195.793C211.078 196.086 211.037 196.424 211.037 196.807V197.053C211.037 197.354 211.078 197.637 211.16 197.902C211.246 198.164 211.369 198.395 211.529 198.594C211.693 198.793 211.891 198.949 212.121 199.062C212.355 199.176 212.621 199.232 212.918 199.232C213.301 199.232 213.625 199.154 213.891 198.998C214.156 198.842 214.389 198.633 214.588 198.371L215.244 198.893C215.107 199.1 214.934 199.297 214.723 199.484C214.512 199.672 214.252 199.824 213.943 199.941C213.639 200.059 213.277 200.117 212.859 200.117ZM220.283 198.318C220.283 198.162 220.248 198.018 220.178 197.885C220.111 197.748 219.973 197.625 219.762 197.516C219.555 197.402 219.242 197.305 218.824 197.223C218.473 197.148 218.154 197.061 217.869 196.959C217.588 196.857 217.348 196.734 217.148 196.59C216.953 196.445 216.803 196.275 216.697 196.08C216.592 195.885 216.539 195.656 216.539 195.395C216.539 195.145 216.594 194.908 216.703 194.686C216.816 194.463 216.975 194.266 217.178 194.094C217.385 193.922 217.633 193.787 217.922 193.689C218.211 193.592 218.533 193.543 218.889 193.543C219.396 193.543 219.83 193.633 220.189 193.812C220.549 193.992 220.824 194.232 221.016 194.533C221.207 194.83 221.303 195.16 221.303 195.523H220.219C220.219 195.348 220.166 195.178 220.061 195.014C219.959 194.846 219.809 194.707 219.609 194.598C219.414 194.488 219.174 194.434 218.889 194.434C218.588 194.434 218.344 194.48 218.156 194.574C217.973 194.664 217.838 194.779 217.752 194.92C217.67 195.061 217.629 195.209 217.629 195.365C217.629 195.482 217.648 195.588 217.688 195.682C217.73 195.771 217.805 195.855 217.91 195.934C218.016 196.008 218.164 196.078 218.355 196.145C218.547 196.211 218.791 196.277 219.088 196.344C219.607 196.461 220.035 196.602 220.371 196.766C220.707 196.93 220.957 197.131 221.121 197.369C221.285 197.607 221.367 197.896 221.367 198.236C221.367 198.514 221.309 198.768 221.191 198.998C221.078 199.229 220.912 199.428 220.693 199.596C220.479 199.76 220.221 199.889 219.92 199.982C219.623 200.072 219.289 200.117 218.918 200.117C218.359 200.117 217.887 200.018 217.5 199.818C217.113 199.619 216.82 199.361 216.621 199.045C216.422 198.729 216.322 198.395 216.322 198.043H217.412C217.428 198.34 217.514 198.576 217.67 198.752C217.826 198.924 218.018 199.047 218.244 199.121C218.471 199.191 218.695 199.227 218.918 199.227C219.215 199.227 219.463 199.188 219.662 199.109C219.865 199.031 220.02 198.924 220.125 198.787C220.23 198.65 220.283 198.494 220.283 198.318ZM225.445 193.66V194.492H222.018V193.66H225.445ZM223.178 192.119H224.262V198.43C224.262 198.645 224.295 198.807 224.361 198.916C224.428 199.025 224.514 199.098 224.619 199.133C224.725 199.168 224.838 199.186 224.959 199.186C225.049 199.186 225.143 199.178 225.24 199.162C225.342 199.143 225.418 199.127 225.469 199.115L225.475 200C225.389 200.027 225.275 200.053 225.135 200.076C224.998 200.104 224.832 200.117 224.637 200.117C224.371 200.117 224.127 200.064 223.904 199.959C223.682 199.854 223.504 199.678 223.371 199.432C223.242 199.182 223.178 198.846 223.178 198.424V192.119ZM227.895 193.66V200H226.805V193.66H227.895ZM226.723 191.979C226.723 191.803 226.775 191.654 226.881 191.533C226.99 191.412 227.15 191.352 227.361 191.352C227.568 191.352 227.727 191.412 227.836 191.533C227.949 191.654 228.006 191.803 228.006 191.979C228.006 192.146 227.949 192.291 227.836 192.412C227.727 192.529 227.568 192.588 227.361 192.588C227.15 192.588 226.99 192.529 226.881 192.412C226.775 192.291 226.723 192.146 226.723 191.979ZM229.348 196.9V196.766C229.348 196.309 229.414 195.885 229.547 195.494C229.68 195.1 229.871 194.758 230.121 194.469C230.371 194.176 230.674 193.949 231.029 193.789C231.385 193.625 231.783 193.543 232.225 193.543C232.67 193.543 233.07 193.625 233.426 193.789C233.785 193.949 234.09 194.176 234.34 194.469C234.594 194.758 234.787 195.1 234.92 195.494C235.053 195.885 235.119 196.309 235.119 196.766V196.9C235.119 197.357 235.053 197.781 234.92 198.172C234.787 198.562 234.594 198.904 234.34 199.197C234.09 199.486 233.787 199.713 233.432 199.877C233.08 200.037 232.682 200.117 232.236 200.117C231.791 200.117 231.391 200.037 231.035 199.877C230.68 199.713 230.375 199.486 230.121 199.197C229.871 198.904 229.68 198.562 229.547 198.172C229.414 197.781 229.348 197.357 229.348 196.9ZM230.432 196.766V196.9C230.432 197.217 230.469 197.516 230.543 197.797C230.617 198.074 230.729 198.32 230.877 198.535C231.029 198.75 231.219 198.92 231.445 199.045C231.672 199.166 231.936 199.227 232.236 199.227C232.533 199.227 232.793 199.166 233.016 199.045C233.242 198.92 233.43 198.75 233.578 198.535C233.727 198.32 233.838 198.074 233.912 197.797C233.99 197.516 234.029 197.217 234.029 196.9V196.766C234.029 196.453 233.99 196.158 233.912 195.881C233.838 195.6 233.725 195.352 233.572 195.137C233.424 194.918 233.236 194.746 233.01 194.621C232.787 194.496 232.525 194.434 232.225 194.434C231.928 194.434 231.666 194.496 231.439 194.621C231.217 194.746 231.029 194.918 230.877 195.137C230.729 195.352 230.617 195.6 230.543 195.881C230.469 196.158 230.432 196.453 230.432 196.766ZM237.562 195.014V200H236.479V193.66H237.504L237.562 195.014ZM237.305 196.59L236.854 196.572C236.857 196.139 236.922 195.738 237.047 195.371C237.172 195 237.348 194.678 237.574 194.404C237.801 194.131 238.07 193.92 238.383 193.771C238.699 193.619 239.049 193.543 239.432 193.543C239.744 193.543 240.025 193.586 240.275 193.672C240.525 193.754 240.738 193.887 240.914 194.07C241.094 194.254 241.23 194.492 241.324 194.785C241.418 195.074 241.465 195.428 241.465 195.846V200H240.375V195.834C240.375 195.502 240.326 195.236 240.229 195.037C240.131 194.834 239.988 194.688 239.801 194.598C239.613 194.504 239.383 194.457 239.109 194.457C238.84 194.457 238.594 194.514 238.371 194.627C238.152 194.74 237.963 194.896 237.803 195.096C237.646 195.295 237.523 195.523 237.434 195.781C237.348 196.035 237.305 196.305 237.305 196.59Z" fill="black"/>
</g>
<rect x="162.5" y="181.5" width="171.158" height="110.083" rx="9.5" stroke="#1C2639"/>
</g>
<rect x="225" y="289.754" width="39" height="15" rx="5" transform="rotate(-3.5 225 289.754)" fill="white" fill-opacity="0.69"/>
<path d="M235.775 292.953L236.212 300.088L235.31 300.143L234.943 294.134L233.165 294.908L233.115 294.094L235.634 292.962L235.775 292.953ZM242.075 295.488L242.333 299.714L241.427 299.769L241.104 294.496L241.962 294.443L242.075 295.488ZM241.974 296.889L241.554 296.9C241.536 296.539 241.562 296.203 241.635 295.892C241.707 295.578 241.825 295.301 241.99 295.063C242.155 294.825 242.367 294.636 242.625 294.496C242.884 294.353 243.189 294.271 243.54 294.249C243.787 294.234 244.016 294.256 244.229 294.315C244.441 294.37 244.628 294.468 244.79 294.608C244.952 294.748 245.082 294.933 245.181 295.161C245.279 295.39 245.339 295.67 245.359 296.002L245.574 299.516L244.672 299.571L244.46 296.101C244.443 295.824 244.383 295.606 244.278 295.446C244.177 295.286 244.04 295.174 243.866 295.11C243.693 295.042 243.492 295.015 243.265 295.029C242.998 295.045 242.779 295.106 242.606 295.211C242.433 295.316 242.298 295.455 242.201 295.627C242.104 295.8 242.037 295.994 242.002 296.212C241.969 296.426 241.96 296.651 241.974 296.889ZM245.36 296.183L244.767 296.405C244.753 296.115 244.783 295.835 244.858 295.563C244.936 295.29 245.056 295.045 245.219 294.826C245.385 294.607 245.594 294.43 245.847 294.294C246.099 294.154 246.393 294.075 246.727 294.054C247.01 294.037 247.262 294.059 247.485 294.12C247.71 294.182 247.902 294.286 248.061 294.432C248.223 294.576 248.351 294.765 248.444 295.001C248.536 295.237 248.593 295.52 248.613 295.852L248.825 299.317L247.918 299.372L247.706 295.897C247.688 295.602 247.627 295.375 247.522 295.219C247.421 295.059 247.284 294.951 247.111 294.896C246.942 294.838 246.741 294.816 246.511 294.83C246.312 294.843 246.139 294.887 245.99 294.965C245.842 295.043 245.719 295.145 245.623 295.271C245.526 295.395 245.455 295.534 245.409 295.69C245.366 295.846 245.35 296.01 245.36 296.183ZM250.847 293.9L251.169 299.173L250.263 299.229L249.94 293.955L250.847 293.9ZM249.786 292.561C249.777 292.415 249.814 292.288 249.895 292.182C249.98 292.076 250.11 292.018 250.286 292.007C250.458 291.996 250.593 292.039 250.69 292.134C250.79 292.229 250.845 292.349 250.854 292.496C250.862 292.635 250.822 292.758 250.734 292.865C250.649 292.968 250.521 293.025 250.349 293.035C250.173 293.046 250.037 293.005 249.94 292.913C249.846 292.818 249.795 292.701 249.786 292.561ZM253.265 294.882L253.518 299.03L252.617 299.085L252.294 293.811L253.147 293.759L253.265 294.882ZM253.13 296.206L252.754 296.215C252.735 295.854 252.769 295.517 252.854 295.206C252.939 294.891 253.069 294.614 253.243 294.375C253.418 294.136 253.631 293.947 253.884 293.807C254.139 293.664 254.426 293.583 254.744 293.564C255.004 293.548 255.241 293.569 255.453 293.628C255.665 293.684 255.849 293.783 256.004 293.927C256.163 294.071 256.289 294.262 256.382 294.501C256.475 294.736 256.532 295.028 256.553 295.376L256.764 298.831L255.858 298.887L255.646 295.421C255.629 295.145 255.575 294.927 255.483 294.766C255.392 294.602 255.266 294.487 255.105 294.422C254.944 294.354 254.75 294.327 254.523 294.34C254.299 294.354 254.097 294.414 253.917 294.519C253.741 294.625 253.592 294.764 253.469 294.938C253.349 295.112 253.258 295.308 253.196 295.527C253.138 295.743 253.116 295.969 253.13 296.206Z" fill="black"/>
<rect x="268.918" y="287.068" width="39" height="15" rx="5" transform="rotate(-3.5 268.918 287.068)" fill="white" fill-opacity="0.69"/>
<path d="M276.697 290.451L277.134 297.586L276.232 297.641L275.864 291.632L274.087 292.406L274.037 291.592L276.556 290.46L276.697 290.451ZM283.988 293.038L284.054 294.12C284.09 294.702 284.068 295.196 283.988 295.602C283.909 296.008 283.779 296.338 283.599 296.594C283.419 296.85 283.194 297.041 282.925 297.168C282.658 297.292 282.353 297.365 282.008 297.386C281.735 297.403 281.482 297.384 281.247 297.33C281.012 297.276 280.797 297.18 280.603 297.041C280.412 296.9 280.244 296.711 280.099 296.475C279.954 296.24 279.837 295.95 279.747 295.607C279.658 295.263 279.599 294.859 279.57 294.394L279.504 293.312C279.469 292.731 279.491 292.24 279.571 291.841C279.654 291.441 279.786 291.117 279.966 290.868C280.146 290.615 280.37 290.429 280.636 290.308C280.906 290.187 281.212 290.116 281.553 290.095C281.829 290.079 282.084 290.097 282.319 290.151C282.557 290.202 282.772 290.295 282.962 290.43C283.153 290.562 283.319 290.744 283.461 290.977C283.605 291.206 283.722 291.491 283.811 291.831C283.901 292.171 283.959 292.574 283.988 293.038ZM283.157 294.322L283.072 292.943C283.053 292.624 283.016 292.346 282.962 292.108C282.912 291.866 282.845 291.662 282.763 291.494C282.681 291.326 282.582 291.192 282.465 291.091C282.351 290.991 282.221 290.92 282.075 290.88C281.932 290.837 281.773 290.821 281.598 290.831C281.383 290.844 281.196 290.897 281.035 290.988C280.874 291.076 280.742 291.21 280.639 291.389C280.539 291.568 280.468 291.799 280.427 292.082C280.385 292.365 280.377 292.706 280.401 293.106L280.486 294.485C280.505 294.804 280.54 295.084 280.591 295.325C280.645 295.566 280.715 295.774 280.8 295.948C280.886 296.119 280.986 296.258 281.1 296.365C281.214 296.472 281.342 296.549 281.486 296.596C281.632 296.639 281.791 296.656 281.963 296.645C282.184 296.632 282.375 296.578 282.535 296.483C282.696 296.388 282.826 296.248 282.925 296.063C283.028 295.874 283.098 295.636 283.136 295.35C283.174 295.061 283.181 294.718 283.157 294.322ZM288.611 292.643L288.87 296.868L287.963 296.924L287.64 291.651L288.498 291.598L288.611 292.643ZM288.511 294.043L288.091 294.054C288.072 293.693 288.099 293.357 288.171 293.047C288.243 292.732 288.362 292.456 288.526 292.218C288.691 291.979 288.903 291.79 289.162 291.65C289.421 291.507 289.725 291.425 290.076 291.404C290.323 291.389 290.553 291.41 290.765 291.469C290.977 291.525 291.164 291.623 291.326 291.763C291.488 291.903 291.618 292.087 291.717 292.316C291.816 292.545 291.875 292.825 291.896 293.156L292.111 296.67L291.209 296.725L290.997 293.255C290.98 292.979 290.919 292.761 290.815 292.601C290.714 292.441 290.576 292.329 290.403 292.264C290.229 292.197 290.029 292.17 289.801 292.184C289.535 292.2 289.315 292.261 289.142 292.366C288.969 292.471 288.834 292.61 288.737 292.782C288.64 292.954 288.574 293.149 288.538 293.367C288.505 293.58 288.496 293.806 288.511 294.043ZM291.897 293.337L291.304 293.559C291.289 293.27 291.32 292.989 291.394 292.717C291.472 292.445 291.592 292.2 291.755 291.981C291.921 291.762 292.13 291.585 292.383 291.449C292.635 291.309 292.929 291.229 293.264 291.209C293.546 291.191 293.799 291.214 294.021 291.275C294.247 291.336 294.439 291.44 294.598 291.587C294.76 291.73 294.887 291.92 294.98 292.156C295.073 292.391 295.129 292.675 295.149 293.006L295.361 296.471L294.455 296.527L294.242 293.052C294.224 292.756 294.163 292.53 294.059 292.373C293.958 292.213 293.821 292.106 293.648 292.051C293.478 291.993 293.278 291.971 293.047 291.985C292.849 291.997 292.675 292.042 292.527 292.12C292.378 292.197 292.256 292.299 292.159 292.426C292.062 292.549 291.991 292.689 291.945 292.845C291.902 293.001 291.886 293.165 291.897 293.337ZM297.383 291.055L297.706 296.328L296.799 296.383L296.476 291.11L297.383 291.055ZM296.323 289.716C296.314 289.569 296.35 289.443 296.432 289.337C296.516 289.231 296.647 289.172 296.822 289.162C296.994 289.151 297.129 289.193 297.226 289.288C297.326 289.383 297.381 289.504 297.39 289.65C297.399 289.79 297.359 289.913 297.271 290.02C297.186 290.123 297.057 290.179 296.885 290.19C296.709 290.201 296.573 290.16 296.476 290.068C296.382 289.973 296.331 289.855 296.323 289.716ZM299.801 292.037L300.055 296.184L299.153 296.239L298.83 290.966L299.683 290.914L299.801 292.037ZM299.667 293.361L299.291 293.369C299.272 293.008 299.305 292.672 299.39 292.36C299.475 292.045 299.605 291.768 299.78 291.529C299.954 291.29 300.168 291.101 300.42 290.962C300.676 290.819 300.962 290.738 301.281 290.718C301.541 290.702 301.777 290.724 301.989 290.783C302.201 290.838 302.385 290.938 302.541 291.082C302.7 291.225 302.825 291.416 302.918 291.655C303.011 291.891 303.068 292.183 303.089 292.53L303.301 295.986L302.394 296.041L302.182 292.576C302.165 292.3 302.111 292.081 302.02 291.921C301.928 291.757 301.802 291.642 301.642 291.577C301.481 291.508 301.287 291.481 301.059 291.495C300.835 291.509 300.633 291.568 300.454 291.674C300.278 291.779 300.128 291.919 300.005 292.093C299.885 292.266 299.794 292.463 299.733 292.682C299.674 292.897 299.652 293.124 299.667 293.361Z" fill="black"/>
<rect x="312.836" y="284.381" width="39" height="15" rx="5" transform="rotate(-3.5 312.836 284.381)" fill="white" fill-opacity="0.69"/>
<path d="M323.738 292.338L323.783 293.079L318.656 293.392L318.624 292.861L321.501 287.749L322.237 287.704L321.534 289.176L319.634 292.589L323.738 292.338ZM322.461 287.69L322.895 294.787L321.993 294.842L321.559 287.746L322.461 287.69ZM330.537 293.292L330.142 286.829L331.049 286.774L331.507 294.26L330.678 294.311L330.537 293.292ZM326.894 291.954L326.888 291.852C326.863 291.449 326.89 291.08 326.967 290.746C327.048 290.409 327.172 290.116 327.339 289.867C327.51 289.619 327.718 289.424 327.964 289.281C328.212 289.136 328.494 289.053 328.809 289.034C329.141 289.014 329.434 289.054 329.688 289.156C329.945 289.255 330.166 289.409 330.352 289.62C330.541 289.827 330.695 290.081 330.815 290.384C330.934 290.686 331.025 291.031 331.088 291.419L331.116 291.867C331.104 292.256 331.055 292.608 330.97 292.923C330.888 293.238 330.766 293.509 330.604 293.738C330.445 293.966 330.244 294.146 330.001 294.279C329.758 294.408 329.469 294.482 329.134 294.503C328.826 294.522 328.539 294.472 328.274 294.355C328.012 294.237 327.782 294.064 327.582 293.835C327.385 293.605 327.226 293.331 327.106 293.013C326.988 292.69 326.918 292.338 326.894 291.954ZM327.795 291.796L327.801 291.899C327.817 292.162 327.858 292.407 327.924 292.635C327.993 292.862 328.09 293.06 328.215 293.228C328.339 293.397 328.492 293.526 328.674 293.616C328.855 293.703 329.068 293.739 329.312 293.724C329.61 293.706 329.852 293.627 330.036 293.489C330.223 293.35 330.369 293.173 330.473 292.958C330.577 292.743 330.654 292.512 330.705 292.264L330.633 291.09C330.583 290.913 330.515 290.744 330.431 290.583C330.349 290.419 330.245 290.275 330.12 290.152C329.999 290.026 329.851 289.929 329.677 289.861C329.507 289.794 329.308 289.767 329.08 289.781C328.833 289.796 328.624 289.861 328.451 289.976C328.282 290.087 328.146 290.236 328.043 290.421C327.94 290.604 327.868 290.813 327.827 291.051C327.789 291.285 327.778 291.533 327.795 291.796ZM335.964 293.082L335.798 290.368C335.786 290.16 335.732 289.982 335.639 289.834C335.548 289.683 335.417 289.571 335.246 289.496C335.075 289.422 334.868 289.392 334.624 289.407C334.397 289.421 334.199 289.472 334.032 289.561C333.868 289.649 333.741 289.76 333.651 289.892C333.565 290.025 333.526 290.164 333.535 290.31L332.633 290.365C332.622 290.177 332.659 289.987 332.745 289.796C332.831 289.605 332.961 289.429 333.134 289.268C333.309 289.104 333.523 288.971 333.774 288.867C334.029 288.76 334.315 288.697 334.634 288.678C335.017 288.654 335.359 288.699 335.659 288.811C335.963 288.923 336.206 289.105 336.387 289.358C336.572 289.608 336.677 289.929 336.701 290.322L336.851 292.779C336.862 292.954 336.888 293.14 336.929 293.336C336.974 293.533 337.031 293.7 337.102 293.839L337.106 293.917L336.166 293.975C336.114 293.874 336.07 293.738 336.033 293.567C335.997 293.393 335.974 293.232 335.964 293.082ZM335.98 290.777L336.029 291.41L335.117 291.466C334.86 291.482 334.633 291.517 334.434 291.571C334.235 291.623 334.069 291.693 333.938 291.783C333.807 291.872 333.709 291.981 333.645 292.109C333.581 292.233 333.554 292.377 333.564 292.539C333.574 292.705 333.62 292.854 333.703 292.986C333.786 293.118 333.905 293.22 334.06 293.292C334.217 293.36 334.406 293.388 334.627 293.374C334.903 293.357 335.144 293.284 335.348 293.154C335.552 293.024 335.71 292.871 335.823 292.695C335.94 292.518 335.998 292.35 335.998 292.19L336.41 292.6C336.395 292.738 336.343 292.893 336.252 293.065C336.161 293.236 336.036 293.404 335.877 293.567C335.72 293.727 335.53 293.864 335.305 293.979C335.084 294.09 334.83 294.154 334.544 294.172C334.187 294.194 333.869 294.143 333.591 294.02C333.316 293.896 333.096 293.722 332.932 293.498C332.772 293.269 332.682 293.009 332.665 292.717C332.647 292.434 332.687 292.182 332.785 291.961C332.882 291.736 333.03 291.546 333.229 291.391C333.428 291.232 333.672 291.106 333.959 291.013C334.247 290.921 334.572 290.863 334.932 290.841L335.98 290.777ZM339.71 293.21L340.888 288.393L341.853 288.334L340.11 294.551C340.069 294.684 340.012 294.827 339.94 294.982C339.872 295.139 339.78 295.29 339.665 295.434C339.55 295.578 339.407 295.698 339.237 295.793C339.07 295.891 338.866 295.948 338.626 295.962C338.554 295.967 338.463 295.962 338.351 295.95C338.239 295.937 338.16 295.925 338.114 295.915L338.065 295.184C338.091 295.186 338.132 295.187 338.187 295.187C338.246 295.19 338.287 295.19 338.309 295.189C338.514 295.177 338.686 295.138 338.826 295.074C338.966 295.014 339.08 294.917 339.17 294.784C339.263 294.655 339.339 294.479 339.397 294.257L339.71 293.21ZM338.344 288.549L339.963 292.559L340.255 293.495L339.628 293.866L337.359 288.609L338.344 288.549ZM345.974 291.971C345.966 291.841 345.929 291.723 345.864 291.616C345.802 291.505 345.68 291.41 345.499 291.33C345.321 291.246 345.056 291.181 344.705 291.134C344.408 291.09 344.139 291.033 343.897 290.963C343.658 290.893 343.452 290.803 343.279 290.693C343.109 290.582 342.975 290.449 342.877 290.292C342.78 290.135 342.724 289.947 342.711 289.73C342.698 289.522 342.732 289.322 342.811 289.131C342.894 288.941 343.016 288.768 343.176 288.615C343.339 288.462 343.539 288.337 343.774 288.241C344.01 288.145 344.275 288.088 344.571 288.07C344.993 288.044 345.359 288.097 345.667 288.228C345.975 288.359 346.216 288.545 346.391 288.785C346.565 289.023 346.661 289.292 346.68 289.594L345.778 289.65C345.769 289.503 345.717 289.365 345.621 289.234C345.528 289.099 345.395 288.991 345.224 288.911C345.056 288.829 344.854 288.796 344.616 288.811C344.366 288.826 344.165 288.877 344.014 288.965C343.866 289.049 343.76 289.152 343.696 289.273C343.635 289.394 343.608 289.52 343.616 289.65C343.622 289.747 343.643 289.834 343.681 289.91C343.721 289.982 343.787 290.049 343.879 290.108C343.97 290.165 344.097 290.215 344.26 290.261C344.422 290.306 344.629 290.349 344.879 290.389C345.317 290.46 345.68 290.556 345.968 290.675C346.256 290.794 346.474 290.949 346.623 291.139C346.771 291.329 346.854 291.565 346.871 291.848C346.885 292.078 346.85 292.293 346.764 292.49C346.681 292.688 346.553 292.862 346.38 293.013C346.21 293.16 346.002 293.28 345.756 293.374C345.514 293.463 345.239 293.518 344.93 293.537C344.465 293.565 344.067 293.506 343.735 293.36C343.403 293.214 343.147 293.015 342.965 292.762C342.783 292.509 342.683 292.236 342.665 291.943L343.572 291.888C343.6 292.134 343.683 292.326 343.822 292.465C343.961 292.6 344.126 292.692 344.319 292.742C344.511 292.789 344.699 292.807 344.885 292.796C345.131 292.781 345.336 292.736 345.498 292.661C345.663 292.585 345.785 292.488 345.866 292.369C345.947 292.25 345.983 292.117 345.974 291.971Z" fill="black"/>
<defs>
<filter id="filter0_d_1040_6259" x="0" y="104" width="210.16" height="149.082" filterUnits="userSpaceOnUse" color-interpolation-filters="sRGB">
<feFlood flood-opacity="0" result="BackgroundImageFix"/>
<feColorMatrix in="SourceAlpha" type="matrix" values="0 0 0 0 0 0 0 0 0 0 0 0 0 0 0 0 0 0 127 0" result="hardAlpha"/>
<feMorphology radius="3" operator="erode" in="SourceAlpha" result="effect1_dropShadow_1040_6259"/>
<feOffset dx="9" dy="15"/>
<feGaussianBlur stdDeviation="11"/>
<feComposite in2="hardAlpha" operator="out"/>
<feColorMatrix type="matrix" values="0 0 0 0 0 0 0 0 0 0 0 0 0 0 0 0 0 0 0.25 0"/>
<feBlend mode="normal" in2="BackgroundImageFix" result="effect1_dropShadow_1040_6259"/>
<feBlend mode="normal" in="SourceGraphic" in2="effect1_dropShadow_1040_6259" result="shape"/>
</filter>
<filter id="filter1_d_1040_6259" x="152" y="177" width="210.16" height="149.082" filterUnits="userSpaceOnUse" color-interpolation-filters="sRGB">
<feFlood flood-opacity="0" result="BackgroundImageFix"/>
<feColorMatrix in="SourceAlpha" type="matrix" values="0 0 0 0 0 0 0 0 0 0 0 0 0 0 0 0 0 0 127 0" result="hardAlpha"/>
<feMorphology radius="3" operator="erode" in="SourceAlpha" result="effect1_dropShadow_1040_6259"/>
<feOffset dx="9" dy="15"/>
<feGaussianBlur stdDeviation="11"/>
<feComposite in2="hardAlpha" operator="out"/>
<feColorMatrix type="matrix" values="0 0 0 0 0 0 0 0 0 0 0 0 0 0 0 0 0 0 0.25 0"/>
<feBlend mode="normal" in2="BackgroundImageFix" result="effect1_dropShadow_1040_6259"/>
<feBlend mode="normal" in="SourceGraphic" in2="effect1_dropShadow_1040_6259" result="shape"/>
</filter>
<clipPath id="clip0_1040_6259">
<rect width="40" height="37.1111" fill="white" transform="translate(241 79)"/>
</clipPath>
<clipPath id="clip1_1040_6259">
<rect width="40" height="37.1111" fill="white" transform="translate(168 79)"/>
</clipPath>
<clipPath id="clip2_1040_6259">
<rect width="40" height="37.1111" fill="white" transform="translate(168 152)"/>
</clipPath>
<clipPath id="clip3_1040_6259">
<rect width="40" height="37.1111" fill="white" transform="translate(95 6)"/>
</clipPath>
<clipPath id="clip4_1040_6259">
<rect width="40" height="31.4428" fill="white" transform="translate(241 9)"/>
</clipPath>
<clipPath id="clip5_1040_6259">
<rect width="40" height="31.4428" fill="white" transform="translate(168 9)"/>
</clipPath>
<clipPath id="clip6_1040_6259">
<rect width="40" height="31.4428" fill="white" transform="translate(95 82)"/>
</clipPath>
<clipPath id="clip7_1040_6259">
<rect width="40" height="31.4428" fill="white" transform="translate(241 155)"/>
</clipPath>
<clipPath id="clip8_1040_6259">
<rect width="40" height="31.4428" fill="white" transform="translate(95 155)"/>
</clipPath>
<clipPath id="clip9_1040_6259">
<rect width="40" height="37.1111" fill="white" transform="translate(168 225)"/>
</clipPath>
<clipPath id="clip10_1040_6259">
<rect width="40" height="31.4428" fill="white" transform="translate(241 228)"/>
</clipPath>
<clipPath id="clip11_1040_6259">
<rect width="40" height="31.4428" fill="white" transform="translate(95 228)"/>
</clipPath>
<clipPath id="clip12_1040_6259">
<rect x="162" y="181" width="172.158" height="111.083" rx="10" fill="white"/>
</clipPath>
</defs>
</svg>
