<svg width="143" height="196" viewBox="0 0 143 196" fill="none" xmlns="http://www.w3.org/2000/svg">
<g clip-path="url(#clip0_1011_6386)">
<path d="M49.6136 70.6758H40.1289V72.133H49.6136V70.6758Z" fill="#535353" fill-opacity="0.5"/>
<path d="M17.5117 93.2642V102.736H18.9709V93.2642H17.5117Z" fill="#535353" fill-opacity="0.5"/>
<path d="M124.031 146.454V155.926H125.49V146.454H124.031Z" fill="#535353" fill-opacity="0.5"/>
<path d="M49.6136 123.865H40.1289V125.322H49.6136V123.865Z" fill="#535353" fill-opacity="0.5"/>
<path d="M102.871 123.865H93.3867V125.322H102.871V123.865Z" fill="#535353" fill-opacity="0.5"/>
<path d="M102.871 70.6758H93.3867V72.133H102.871V70.6758Z" fill="#6D6307" fill-opacity="0.5"/>
<path d="M49.6136 17.4863H40.1289V18.9436H49.6136V17.4863Z" fill="#076D1E" fill-opacity="0.5"/>
<path d="M102.871 17.4863H93.3867V18.9436H102.871V17.4863Z" fill="#076D1E" fill-opacity="0.5"/>
<path d="M124.031 40.0748V49.5469H125.49V40.0748H124.031Z" fill="#076D1E" fill-opacity="0.5"/>
<path d="M142.999 71.4051C142.999 61.3449 134.833 53.1895 124.759 53.1895C114.686 53.1895 106.52 61.3449 106.52 71.4051C106.52 81.4653 114.686 89.6207 124.759 89.6207C134.833 89.6207 142.999 81.4653 142.999 71.4051Z" fill="#F0E5A9" fill-opacity="0.5"/>
<path fill-rule="evenodd" clip-rule="evenodd" d="M114.159 68.4987L114.167 68.456L115.205 62.9286L115.219 62.855L115.224 62.7804L115.478 59.1576C115.492 58.9606 115.677 58.8217 115.87 58.8639L125.772 61.0258L125.771 61.0249L129.4 60.631C129.223 60.5029 129.019 60.4087 128.794 60.3596L116.147 57.5984C115.182 57.3875 114.253 58.082 114.183 59.0673L113.93 62.6901L112.893 68.2173L111.555 73.3994L110.287 76.5237C109.912 77.4505 110.457 78.4917 111.434 78.7118L121.274 80.9268L120.934 79.522L111.719 77.4476C111.523 77.4039 111.414 77.1955 111.489 77.0105L112.757 73.8854L112.789 73.806L112.811 73.7222L114.149 68.5408L114.159 68.4987ZM128.765 62.0437V62.0434L128.845 62.0321L134.6 61.1903C135.578 61.0472 136.456 61.8048 136.456 62.7924V66.424L137.104 72.0101L138.078 77.2728L139.124 80.478C139.434 81.4281 138.817 82.4292 137.827 82.5801L125.18 84.5138C124.398 84.6333 123.645 84.1721 123.396 83.4224L122.108 79.5395L120.908 74.2767L120.405 68.6908V64.6659C120.405 63.8623 120.995 63.1803 121.791 63.0638L128.765 62.0437ZM128.672 63.3664L121.979 64.3455C121.82 64.3687 121.702 64.5051 121.702 64.6659V68.6327L122.192 74.0741L123.358 79.1912L124.627 83.015C124.677 83.1651 124.827 83.257 124.984 83.2329L137.631 81.2999C137.829 81.27 137.952 81.0696 137.89 80.8794L136.844 77.6735L136.818 77.5919L136.802 77.5074L135.829 72.2452L135.821 72.2025L135.816 72.1593L135.167 66.5732L135.159 66.4988V66.424V62.7924C135.159 62.5949 134.983 62.4434 134.788 62.472L129.986 63.1742L129.986 63.1879L128.672 63.3752L128.672 63.3664ZM127.921 69.4755L129.268 69.2685L129.267 69.2771L134.101 68.5556C134.366 68.5159 134.614 68.6989 134.654 68.9643C134.694 69.2295 134.51 69.4768 134.244 69.5164L129.104 70.2836V70.2846L127.757 70.4884L127.758 70.4845L123.982 71.0481C123.716 71.0878 123.469 70.9049 123.429 70.6395C123.389 70.3742 123.573 70.127 123.838 70.0873L127.92 69.478L127.921 69.4755ZM127.681 71.9909L128.829 71.8146L128.827 71.8199L131.218 71.463C131.484 71.4234 131.732 71.6063 131.771 71.8716C131.81 72.137 131.627 72.3842 131.362 72.4238L128.06 72.9163L127.095 73.0649L127.096 73.0606L124.307 73.4766C124.041 73.5167 123.793 73.3338 123.753 73.0686C123.713 72.8029 123.897 72.5557 124.163 72.5161L127.681 71.9909ZM126.617 74.6439L128.033 74.442L128.032 74.4472L128.497 74.3772C128.763 74.3379 129.01 74.5207 129.05 74.786C129.09 75.0512 128.907 75.2989 128.641 75.3383L124.792 75.9124C124.527 75.9525 124.28 75.7696 124.24 75.5044C124.2 75.2384 124.383 74.9914 124.649 74.9521L126.613 74.6585L126.617 74.6439ZM123.514 67.6586C123.249 67.6982 123.065 67.9454 123.105 68.2108C123.144 68.4761 123.392 68.659 123.658 68.6194L133.92 67.0877C134.186 67.048 134.369 66.8008 134.33 66.5354C134.29 66.2702 134.042 66.0872 133.777 66.1268L123.514 67.6586Z" fill="#6D6307"/>
<path d="M142.637 71.406C142.637 61.547 134.634 53.5547 124.762 53.5547C114.89 53.5547 106.887 61.547 106.887 71.406C106.887 81.265 114.89 89.2573 124.762 89.2573C134.634 89.2573 142.637 81.265 142.637 71.406Z" stroke="#6D6307" stroke-opacity="0.2"/>
<path d="M89.7413 71.4051C89.7413 61.3449 81.5751 53.1895 71.5015 53.1895C61.428 53.1895 53.2617 61.3449 53.2617 71.4051C53.2617 81.4653 61.428 89.6207 71.5015 89.6207C81.5751 89.6207 89.7413 81.4653 89.7413 71.4051Z" fill="#EEEEEE" fill-opacity="0.5"/>
<path fill-rule="evenodd" clip-rule="evenodd" d="M60.8982 68.4987L60.9062 68.456L61.9434 62.9286L61.9572 62.855L61.9624 62.7804L62.2161 59.1576C62.2299 58.9606 62.4156 58.8217 62.6088 58.8639L72.5106 61.0258L72.5094 61.0249L76.1383 60.631C75.9617 60.5029 75.7575 60.4087 75.532 60.3596L62.8859 57.5984C61.9197 57.3875 60.9912 58.082 60.9222 59.0673L60.6685 62.6901L59.6314 68.2173L58.2934 73.3994L57.0257 76.5237C56.65 77.4505 57.1958 78.4917 58.1719 78.7118L68.013 80.9268L67.672 79.522L58.4571 77.4476C58.2618 77.4039 58.1527 77.1955 58.2278 77.0105L59.4955 73.8854L59.5278 73.806L59.5494 73.7222L60.8873 68.5408L60.8982 68.4987ZM75.5036 62.0437V62.0434L75.5831 62.0321L81.3381 61.1903C82.3165 61.0472 83.1942 61.8048 83.1942 62.7924V66.424L83.8428 72.0101L84.8161 77.2728L85.8623 80.478C86.1724 81.4281 85.5551 82.4292 84.5658 82.5801L71.9187 84.5138C71.1371 84.6333 70.3831 84.1721 70.1344 83.4224L68.8457 79.5395L67.6468 74.2767L67.1434 68.6908L67.1433 64.6659C67.1433 63.8623 67.7335 63.1803 68.5297 63.0638L75.5036 62.0437ZM75.4109 63.3664L68.7177 64.3455C68.5584 64.3687 68.4404 64.5051 68.4404 64.6659L68.4404 68.6327L68.9308 74.0741L70.0966 79.1912L71.3656 83.015C71.4154 83.1651 71.5661 83.257 71.7224 83.2329L84.3696 81.2999C84.5673 81.27 84.6906 81.0696 84.6286 80.8794L83.5823 77.6735L83.5561 77.5919L83.54 77.5074L82.5675 72.2452L82.5594 72.2025L82.5543 72.1593L81.9057 66.5732L81.8977 66.4988V66.424V62.7924C81.8977 62.5949 81.7219 62.4434 81.5263 62.472L76.7249 63.1742L76.7242 63.1879L75.4102 63.3752L75.4109 63.3664ZM74.6594 69.4755L76.007 69.2685L76.0055 69.2771L80.8391 68.5556C81.1046 68.5159 81.3527 68.6989 81.3921 68.9643C81.4322 69.2295 81.2484 69.4768 80.9828 69.5164L75.8428 70.2836V70.2846L74.496 70.4884L74.4967 70.4845L70.7206 71.0481C70.4549 71.0878 70.2073 70.9049 70.1676 70.6395C70.1279 70.3742 70.3111 70.127 70.5768 70.0873L74.6587 69.478L74.6594 69.4755ZM74.4194 71.9909L75.567 71.8146L75.5656 71.8199L77.9564 71.463C78.222 71.4234 78.4701 71.6063 78.5095 71.8716C78.5489 72.137 78.3657 72.3842 78.1002 72.4238L74.7988 72.9163L73.8335 73.0649L73.835 73.0606L71.0448 73.4766C70.7792 73.5167 70.5316 73.3338 70.4918 73.0686C70.4522 72.8029 70.6354 72.5557 70.901 72.5161L74.4194 71.9909ZM73.3556 74.6439L74.7718 74.442L74.7703 74.4472L75.2358 74.3772C75.5014 74.3379 75.7487 74.5207 75.7888 74.786C75.8282 75.0512 75.6451 75.2989 75.3795 75.3383L71.5312 75.9124C71.2655 75.9525 71.018 75.7696 70.9783 75.5044C70.9386 75.2384 71.1218 74.9914 71.3874 74.9521L73.3513 74.6585L73.3556 74.6439ZM70.2525 67.6586C69.9868 67.6982 69.8036 67.9454 69.8434 68.2108C69.8831 68.4761 70.1306 68.659 70.3963 68.6194L80.6589 67.0877C80.9244 67.048 81.1075 66.8008 81.0682 66.5354C81.028 66.2702 80.7807 66.0872 80.5151 66.1268L70.2525 67.6586Z" fill="#535353"/>
<path d="M89.375 71.406C89.375 61.547 81.3721 53.5547 71.5 53.5547C61.6279 53.5547 53.625 61.547 53.625 71.406C53.625 81.265 61.6279 89.2573 71.5 89.2573C81.3721 89.2573 89.375 81.265 89.375 71.406Z" stroke="#535353" stroke-opacity="0.2"/>
<path d="M89.7413 124.595C89.7413 114.534 81.5751 106.379 71.5015 106.379C61.428 106.379 53.2617 114.534 53.2617 124.595C53.2617 134.655 61.428 142.81 71.5015 142.81C81.5751 142.81 89.7413 134.655 89.7413 124.595Z" fill="#EEEEEE" fill-opacity="0.5"/>
<path fill-rule="evenodd" clip-rule="evenodd" d="M60.8982 121.688L60.9062 121.645L61.9434 116.118L61.9572 116.044L61.9624 115.97L62.2161 112.347C62.2299 112.151 62.4156 112.011 62.6088 112.054L72.5106 114.215L72.5094 114.215L76.1383 113.821C75.9617 113.692 75.7575 113.598 75.532 113.549L62.8859 110.788C61.9197 110.577 60.9912 111.272 60.9222 112.257L60.6685 115.88L59.6314 121.407L58.2934 126.589L57.0257 129.713C56.65 130.64 57.1958 131.681 58.1719 131.901L68.013 134.116L67.672 132.712L58.4571 130.637C58.2618 130.593 58.1527 130.385 58.2278 130.2L59.4955 127.075L59.5278 126.996L59.5494 126.912L60.8873 121.73L60.8982 121.688ZM75.5036 115.233L75.5831 115.222L81.3381 114.38C82.3165 114.237 83.1942 114.994 83.1942 115.982V119.614L83.8428 125.199L84.8161 130.462L85.8623 133.668C86.1724 134.618 85.5551 135.619 84.5658 135.77L71.9187 137.703C71.1371 137.823 70.3831 137.362 70.1344 136.612L68.8457 132.729L67.6468 127.466L67.1434 121.881L67.1433 117.856C67.1433 117.052 67.7335 116.37 68.5297 116.253L75.5036 115.233ZM75.4109 116.556L68.7177 117.535C68.5584 117.558 68.4404 117.695 68.4404 117.856L68.4404 121.822L68.9308 127.264L70.0966 132.381L71.3656 136.205C71.4154 136.355 71.5661 136.446 71.7224 136.422L84.3696 134.489C84.5673 134.46 84.6906 134.259 84.6286 134.069L83.5823 130.863L83.5561 130.781L83.54 130.697L82.5675 125.435L82.5594 125.392L82.5543 125.349L81.9057 119.762L81.8977 119.688V119.614V115.982C81.8977 115.784 81.7219 115.633 81.5263 115.662L76.7249 116.364L76.7242 116.377L75.4102 116.565L75.4109 116.556ZM74.6594 122.665L76.007 122.458L76.0055 122.466L80.8391 121.745C81.1046 121.706 81.3527 121.889 81.3921 122.154C81.4322 122.419 81.2484 122.666 80.9828 122.706L75.8428 123.473V123.474L74.496 123.678L74.4967 123.674L70.7206 124.238C70.4549 124.277 70.2073 124.094 70.1676 123.829C70.1279 123.564 70.3111 123.317 70.5768 123.277L74.6587 122.667L74.6594 122.665ZM74.4194 125.18L75.567 125.004L75.5656 125.009L77.9564 124.652C78.222 124.613 78.4701 124.796 78.5095 125.061C78.5489 125.326 78.3657 125.574 78.1002 125.613L74.7988 126.106L73.8335 126.254L73.835 126.25L71.0448 126.666C70.7792 126.706 70.5316 126.523 70.4918 126.258C70.4522 125.992 70.6354 125.745 70.901 125.706L74.4194 125.18ZM73.3556 127.833L74.7718 127.632L74.7703 127.637L75.2358 127.567C75.5014 127.527 75.7487 127.71 75.7888 127.976C75.8282 128.241 75.6451 128.488 75.3795 128.528L71.5312 129.102C71.2655 129.142 71.018 128.959 70.9783 128.694C70.9386 128.428 71.1218 128.181 71.3874 128.142L73.3513 127.848L73.3556 127.833ZM70.2525 120.848C69.9868 120.887 69.8036 121.135 69.8434 121.4C69.8831 121.666 70.1306 121.848 70.3963 121.809L80.6589 120.278C80.9244 120.238 81.1075 119.991 81.0682 119.725C81.028 119.459 80.7807 119.276 80.5151 119.317L70.2525 120.848Z" fill="#535353"/>
<path d="M89.375 124.595C89.375 114.736 81.3721 106.744 71.5 106.744C61.6279 106.744 53.625 114.736 53.625 124.595C53.625 134.454 61.6279 142.447 71.5 142.447C81.3721 142.447 89.375 134.454 89.375 124.595Z" stroke="#535353" stroke-opacity="0.2"/>
<path d="M36.4796 18.2156C36.4796 8.15541 28.3134 0 18.2398 0C8.16623 0 0 8.15541 0 18.2156C0 28.2758 8.16623 36.4312 18.2398 36.4312C28.3134 36.4312 36.4796 28.2758 36.4796 18.2156Z" fill="#A9F0B9" fill-opacity="0.5"/>
<path fill-rule="evenodd" clip-rule="evenodd" d="M7.6404 15.3092L7.64842 15.2665L8.68554 9.73916L8.69933 9.66557L8.70458 9.59096L8.95826 5.9682C8.97205 5.77115 9.15773 5.63224 9.351 5.67443L19.2527 7.83636L19.2516 7.83549L22.8806 7.44152C22.7041 7.31343 22.4993 7.2193 22.2744 7.17019L9.62802 4.40898C8.6619 4.19804 7.73335 4.8926 7.66433 5.87784L7.41065 9.50061L6.37356 15.0279L5.03557 20.2096L3.76787 23.3346C3.39216 24.2608 3.93793 25.3024 4.91405 25.5221L14.7552 27.7374L14.4142 26.3328L5.19925 24.2585C5.00402 24.2146 4.89487 24.0062 4.97002 23.821L6.23771 20.696L6.27003 20.6164L6.29154 20.5331L7.62953 15.3513L7.6404 15.3092ZM22.2459 8.85425L22.246 8.85396L22.3253 8.84266L28.0803 8.00088C29.0588 7.85771 29.9366 8.61533 29.9366 9.60291V13.2345L30.5851 18.8207L31.558 24.083L32.6042 27.2886C32.9143 28.2387 32.2971 29.2397 31.3081 29.3909L18.6609 31.3242C17.8793 31.4437 17.1253 30.9826 16.8766 30.233L15.5879 26.3498L14.389 21.0875L13.8856 15.5013L13.8855 11.4764C13.8855 10.6728 14.4757 9.99083 15.2719 9.8744L22.2459 8.85425ZM22.1533 10.177L15.4599 11.156C15.3006 11.1793 15.1826 11.3157 15.1826 11.4764L15.1826 15.4432L15.673 20.8848L16.8388 26.0016L18.1078 29.8255C18.1575 29.9755 18.3083 30.0677 18.4646 30.0437L31.1117 28.1105C31.3095 28.0804 31.433 27.8801 31.371 27.6901L30.3247 24.4843L30.298 24.4026L30.2824 24.3181L29.3096 19.0558L29.3017 19.013L29.2967 18.9698L28.6481 13.3837L28.6396 13.3094V13.2345V9.60291C28.6396 9.40545 28.464 9.2539 28.2683 9.28253L23.4671 9.98478L23.4661 9.99841L22.1526 10.1857L22.1533 10.177ZM21.4017 16.286L22.7489 16.0791L22.7474 16.0877L27.5813 15.3662C27.847 15.3265 28.0946 15.5094 28.1343 15.7748C28.1741 16.0401 27.9908 16.2873 27.7251 16.3269L22.5852 17.0941L22.5851 17.0951L21.2384 17.2989L21.239 17.2951L17.4627 17.8587C17.197 17.8983 16.9495 17.7154 16.9098 17.4501C16.8701 17.1848 17.0533 16.9375 17.3189 16.8978L21.4012 16.2886L21.4017 16.286ZM21.1617 18.8014L22.3091 18.6252L22.3075 18.6304L24.6986 18.2735C24.9643 18.2339 25.212 18.4169 25.2517 18.6822C25.2913 18.9475 25.1081 19.1947 24.8424 19.2344L21.5411 19.7271L20.5756 19.8754L20.5769 19.871L17.787 20.2875C17.5213 20.3271 17.2738 20.1441 17.234 19.8788C17.1943 19.6135 17.3775 19.3663 17.6432 19.3266L21.1617 18.8014ZM20.0977 21.4546L21.5139 21.2525L21.5123 21.2576L21.978 21.188C22.2436 21.1484 22.4912 21.3314 22.5309 21.5966C22.5706 21.8619 22.3874 22.1092 22.1218 22.1489L18.2734 22.7232C18.0077 22.7629 17.7601 22.5799 17.7204 22.3147C17.6807 22.0493 17.864 21.8021 18.1296 21.7624L20.0931 21.4693L20.0977 21.4546ZM16.9947 14.4691C16.729 14.5087 16.5458 14.756 16.5856 15.0213C16.6252 15.2866 16.8728 15.4696 17.1384 15.4299L27.4009 13.8982C27.6666 13.8586 27.8498 13.6114 27.8101 13.346C27.7703 13.0807 27.5228 12.8978 27.2571 12.9374L16.9947 14.4691Z" fill="#076D1E"/>
<path d="M36.1133 18.2165C36.1133 8.35753 28.1104 0.365234 18.2383 0.365234C8.36619 0.365234 0.363281 8.35753 0.363281 18.2165C0.363281 28.0755 8.36619 36.0678 18.2383 36.0678C28.1104 36.0678 36.1133 28.0755 36.1133 18.2165Z" stroke="#076D1E" stroke-opacity="0.2"/>
<path d="M142.999 18.2156C142.999 8.15541 134.833 0 124.759 0C114.686 0 106.52 8.15541 106.52 18.2156C106.52 28.2758 114.686 36.4312 124.759 36.4312C134.833 36.4312 142.999 28.2758 142.999 18.2156Z" fill="#A9F0B9" fill-opacity="0.5"/>
<path fill-rule="evenodd" clip-rule="evenodd" d="M111.502 12.4621L122.113 7.74399C122.259 7.67885 122.431 7.74472 122.496 7.89103L124.803 13.0648V13.1027L125.965 15.701V15.6703L129.291 23.1314C129.356 23.2777 129.29 23.4492 129.144 23.5143L126.864 24.528L126.865 24.5386L124.803 25.4425V25.4444L118.532 28.2325C118.386 28.2975 118.214 28.2317 118.149 28.0854L111.355 12.845C111.29 12.6987 111.355 12.5273 111.502 12.4621ZM124.036 18.6799L124.035 18.7142C123.939 18.8401 123.819 18.9773 123.672 19.1259C123.524 19.2799 123.367 19.4279 123.2 19.57C123.041 19.7152 122.889 19.84 122.746 19.9444C122.564 19.7341 122.397 19.5508 122.246 19.3945C121.943 19.7188 121.577 19.9766 121.147 20.1678C120.705 20.3641 120.262 20.4661 119.819 20.4739C119.377 20.4736 118.953 20.3882 118.545 20.2175C118.142 20.0445 117.776 19.7941 117.447 19.4664C117.115 19.133 116.845 18.7318 116.636 18.2627C116.426 17.7936 116.31 17.3273 116.287 16.8637C116.261 16.3945 116.317 15.9525 116.458 15.5379C116.605 15.1207 116.827 14.7512 117.124 14.4293C117.424 14.0994 117.795 13.8362 118.236 13.6399C118.678 13.4437 119.122 13.3445 119.568 13.3423C120.013 13.3345 120.436 13.4171 120.839 13.5903C121.247 13.7608 121.614 14.014 121.94 14.3499C122.269 14.6776 122.539 15.076 122.747 15.5451C122.932 15.9576 123.045 16.3712 123.087 16.7858C123.127 17.1947 123.104 17.5841 123.018 17.9542C123.394 18.1401 123.734 18.382 124.036 18.6799ZM123.558 7.41917L124.948 10.5376L124.949 10.5345L125.965 12.772V12.8183L129.266 20.2243C129.469 19.604 129.683 18.9812 129.908 18.3558C130.336 17.1618 130.791 16.0018 131.274 14.8758C131.503 14.8511 131.757 14.8294 132.036 14.8108C132.321 14.7923 132.612 14.7829 132.91 14.7829C133.288 15.6986 133.69 16.7565 134.117 17.9568C134.545 19.1569 134.985 20.45 135.437 21.8358C135.077 21.8977 134.737 21.9441 134.415 21.975C134.099 22.0059 133.777 22.0214 133.448 22.0214C133.318 21.5017 133.172 20.9542 133.012 20.3788C132.46 20.4469 131.888 20.4809 131.292 20.4809H130.791C130.623 20.4747 130.45 20.4654 130.27 20.453C130.156 20.8567 130.043 21.2755 129.929 21.7095L130.352 22.6597C130.678 23.3912 130.349 24.2483 129.616 24.574L125.965 26.1976V26.2095L124.803 26.7156V26.7142L119.005 29.2921C118.273 29.618 117.414 29.2889 117.088 28.5572L110.294 13.3169C109.968 12.5853 110.297 11.7282 111.029 11.4025L121.641 6.68432C122.373 6.35859 123.232 6.68761 123.558 7.41917ZM124.803 27.7763V27.8523C124.803 28.6531 125.453 29.3022 126.255 29.3022H137.87C138.672 29.3022 139.322 28.6531 139.322 27.8523V11.1695C139.322 10.3687 138.672 9.71951 137.87 9.71951H126.255C125.998 9.71951 125.755 9.78654 125.545 9.90407L126.055 10.9588C126.108 10.9096 126.178 10.8796 126.255 10.8796H137.87C138.031 10.8796 138.161 11.0094 138.161 11.1695V27.8523C138.161 28.0125 138.031 28.1423 137.87 28.1423H126.255C126.095 28.1423 125.965 28.0125 125.965 27.8523V27.2305L124.803 27.7763ZM118.63 18.3311C118.393 18.0298 118.188 17.6841 118.014 17.2941C117.813 16.842 117.693 16.4212 117.655 16.0318C117.617 15.6424 117.658 15.3091 117.779 15.032C117.905 14.7523 118.104 14.5522 118.376 14.4314C118.698 14.2879 119.046 14.2855 119.42 14.4241C119.791 14.557 120.149 14.8043 120.494 15.1659C120.838 15.5275 121.13 15.9767 121.369 16.5136C121.535 16.8867 121.647 17.2434 121.703 17.5838C121.261 17.5502 120.862 17.6126 120.505 17.7712C119.962 18.0127 119.585 18.4445 119.374 19.0665C119.114 18.8777 118.865 18.6325 118.63 18.3311ZM121.577 18.8286C121.452 19.0806 121.262 19.2632 121.007 19.3764C120.742 19.4947 120.448 19.5134 120.127 19.4326C120.186 19.0475 120.354 18.7933 120.631 18.67C120.909 18.5467 121.224 18.5995 121.577 18.8286ZM131.162 17.3349C131.361 16.7102 131.525 16.2214 131.655 15.8687C131.754 16.1471 131.866 16.4843 131.99 16.8802C132.113 17.27 132.244 17.7 132.38 18.1702C132.522 18.6342 132.662 19.1137 132.798 19.6085C132.699 19.6085 132.59 19.6117 132.473 19.6179H132.138C131.834 19.6179 131.55 19.6117 131.284 19.5993C131.023 19.5869 130.769 19.5653 130.521 19.5343C130.757 18.693 130.971 17.9598 131.162 17.3349Z" fill="#076D1E"/>
<path d="M142.637 18.2165C142.637 8.35753 134.634 0.365234 124.762 0.365234C114.89 0.365234 106.887 8.35753 106.887 18.2165C106.887 28.0755 114.89 36.0678 124.762 36.0678C134.634 36.0678 142.637 28.0755 142.637 18.2165Z" stroke="#076D1E" stroke-opacity="0.2"/>
<path d="M89.7413 18.2156C89.7413 8.15541 81.5751 0 71.5015 0C61.428 0 53.2617 8.15541 53.2617 18.2156C53.2617 28.2758 61.428 36.4312 71.5015 36.4312C81.5751 36.4312 89.7413 28.2758 89.7413 18.2156Z" fill="#A9F0B9" fill-opacity="0.5"/>
<path fill-rule="evenodd" clip-rule="evenodd" d="M58.2405 12.4621L68.8517 7.74399C68.9982 7.67885 69.1698 7.74472 69.235 7.89103L71.5417 13.0648V13.1027L72.7032 15.701V15.6703L76.0296 23.1314C76.0945 23.2777 76.0289 23.4492 75.8822 23.5143L73.6022 24.528L73.6037 24.5386L71.5417 25.4425V25.4444L65.2711 28.2325C65.1246 28.2975 64.953 28.2317 64.8878 28.0854L58.0932 12.845C58.028 12.6987 58.094 12.5273 58.2405 12.4621ZM70.7741 18.6799L70.7734 18.7142C70.6782 18.8401 70.5575 18.9773 70.4113 19.1259C70.263 19.2799 70.1052 19.4279 69.9379 19.57C69.7789 19.7152 69.6277 19.84 69.4844 19.9444C69.3025 19.7341 69.136 19.5508 68.9849 19.3945C68.6819 19.7188 68.3154 19.9766 67.8853 20.1678C67.4439 20.3641 67.0011 20.4661 66.5571 20.4739C66.1161 20.4736 65.6915 20.3882 65.2832 20.2175C64.8806 20.0445 64.5146 19.7941 64.1854 19.4664C63.8537 19.133 63.5833 18.7318 63.3742 18.2627C63.1651 17.7936 63.0487 17.3273 63.0251 16.8637C62.999 16.3945 63.0563 15.9525 63.1969 15.5379C63.3432 15.1207 63.565 14.7512 63.8623 14.4293C64.1627 14.0994 64.5336 13.8362 64.9751 13.6399C65.4165 13.4437 65.8605 13.3445 66.3071 13.3423C66.7512 13.3345 67.1745 13.4171 67.5772 13.5903C67.9856 13.7608 68.3527 14.014 68.6787 14.3499C69.0079 14.6776 69.2771 15.076 69.4862 15.5451C69.6702 15.9576 69.7833 16.3712 69.8257 16.7858C69.8656 17.1947 69.8427 17.5841 69.7567 17.9542C70.1333 18.1401 70.4724 18.382 70.7741 18.6799ZM70.2962 7.41917L71.6864 10.5376L71.6879 10.5345L72.7032 12.772V12.8183L76.0048 20.2243C76.2076 19.604 76.4214 18.9812 76.6468 18.3558C77.0744 17.1618 77.5296 16.0018 78.0126 14.8758C78.2417 14.8511 78.4956 14.8294 78.7743 14.8108C79.0596 14.7923 79.3507 14.7829 79.6484 14.7829C80.0263 15.6986 80.4283 16.7565 80.8558 17.9568C81.2834 19.1569 81.7233 20.45 82.1757 21.8358C81.816 21.8977 81.4753 21.9441 81.1535 21.975C80.8376 22.0059 80.5151 22.0214 80.1868 22.0214C80.0569 21.5017 79.911 20.9542 79.7505 20.3788C79.1989 20.4469 78.6262 20.4809 78.0309 20.4809H77.5296C77.3618 20.4747 77.1889 20.4654 77.0087 20.453C76.8949 20.8567 76.7811 21.2755 76.6673 21.7095L77.0904 22.6597C77.4165 23.3912 77.0875 24.2483 76.355 24.574L72.7032 26.1976V26.2095L71.5417 26.7156V26.7142L65.7436 29.2921C65.011 29.618 64.1528 29.2889 63.8267 28.5572L57.0321 13.3169C56.706 12.5853 57.0355 11.7282 57.768 11.4025L68.3792 6.68432C69.1117 6.35859 69.97 6.68761 70.2962 7.41917ZM71.5417 27.7763V27.8523C71.5417 28.6531 72.1917 29.3022 72.9938 29.3022H84.6089C85.4107 29.3022 86.0608 28.6531 86.0608 27.8523V11.1695C86.0608 10.3687 85.4107 9.71951 84.6089 9.71951H72.9938C72.7359 9.71951 72.494 9.78654 72.2842 9.90407L72.7941 10.9588C72.8461 10.9096 72.9164 10.8796 72.9938 10.8796H84.6089C84.7694 10.8796 84.8992 11.0094 84.8992 11.1695V27.8523C84.8992 28.0125 84.7694 28.1423 84.6089 28.1423H72.9938C72.8332 28.1423 72.7032 28.0125 72.7032 27.8523V27.2305L71.5417 27.7763ZM65.3679 18.3311C65.1318 18.0298 64.9268 17.6841 64.7529 17.2941C64.5514 16.842 64.4316 16.4212 64.3936 16.0318C64.3555 15.6424 64.3968 15.3091 64.5174 15.032C64.6437 14.7523 64.8426 14.5522 65.1143 14.4314C65.4369 14.2879 65.785 14.2855 66.1587 14.4241C66.5299 14.557 66.8877 14.8043 67.232 15.1659C67.5763 15.5275 67.8681 15.9767 68.1075 16.5136C68.2737 16.8867 68.3854 17.2434 68.4421 17.5838C68 17.5502 67.6005 17.6126 67.2441 17.7712C66.7007 18.0127 66.3236 18.4445 66.1127 19.0665C65.8522 18.8777 65.6039 18.6325 65.3679 18.3311ZM68.3156 18.8286C68.1906 19.0806 68.0007 19.2632 67.7461 19.3764C67.4801 19.4947 67.1867 19.5134 66.8658 19.4326C66.9247 19.0475 67.0928 18.7933 67.3701 18.67C67.6475 18.5467 67.9626 18.5995 68.3156 18.8286ZM77.901 17.3349C78.0994 16.7102 78.2636 16.2214 78.3935 15.8687C78.4927 16.1471 78.6043 16.4843 78.7284 16.8802C78.8517 17.27 78.9823 17.7 79.1187 18.1702C79.261 18.6342 79.4003 19.1137 79.5367 19.6085C79.4375 19.6085 79.3288 19.6117 79.2113 19.6179H78.8765C78.573 19.6179 78.2884 19.6117 78.0221 19.5993C77.7616 19.5869 77.5077 19.5653 77.2597 19.5343C77.4953 18.693 77.7091 17.9598 77.901 17.3349Z" fill="#076D1E"/>
<path d="M89.375 18.2165C89.375 8.35753 81.3721 0.365234 71.5 0.365234C61.6279 0.365234 53.625 8.35753 53.625 18.2165C53.625 28.0755 61.6279 36.0678 71.5 36.0678C81.3721 36.0678 89.375 28.0755 89.375 18.2165Z" stroke="#076D1E" stroke-opacity="0.2"/>
<path d="M36.4796 71.4051C36.4796 61.3449 28.3134 53.1895 18.2398 53.1895C8.16623 53.1895 0 61.3449 0 71.4051C0 81.4653 8.16623 89.6207 18.2398 89.6207C28.3134 89.6207 36.4796 81.4653 36.4796 71.4051Z" fill="#EEEEEE" fill-opacity="0.5"/>
<path fill-rule="evenodd" clip-rule="evenodd" d="M4.98261 65.6516L15.5938 60.9335C15.7403 60.8683 15.912 60.9342 15.9772 61.0805L18.2838 66.2543V66.2921L19.4453 68.8905V68.8597L22.7717 76.3206C22.8369 76.4671 22.771 76.6383 22.6245 76.7039L20.3446 77.7174L20.3456 77.7283L18.2838 78.6318V78.634L12.0133 81.4217C11.8668 81.4873 11.6952 81.421 11.63 81.2745L4.83544 66.0345C4.77021 65.8882 4.8361 65.7168 4.98261 65.6516ZM17.5162 71.8694L17.5156 71.9036C17.4204 72.0295 17.2997 72.1668 17.1535 72.3154C17.0051 72.4694 16.8473 72.6174 16.6801 72.7595C16.5211 72.9048 16.3699 73.0294 16.2265 73.1336C16.0446 72.9238 15.8781 72.7402 15.7271 72.5839C15.4241 72.9085 15.0576 73.1657 14.6275 73.3573C14.1861 73.5533 13.7433 73.6553 13.2993 73.6633C12.8583 73.6633 12.4337 73.5774 12.0254 73.4069C11.6227 73.2342 11.2568 72.9835 10.9276 72.6559C10.5959 72.3225 10.3255 71.9213 10.1163 71.4522C9.90724 70.9831 9.79087 70.5168 9.7673 70.0532C9.74118 69.584 9.79846 69.142 9.93905 68.7273C10.0853 68.3101 10.3071 67.9406 10.6044 67.6188C10.9049 67.2889 11.2758 67.0257 11.7173 66.8294C12.1587 66.6332 12.6027 66.534 13.0493 66.5318C13.4933 66.524 13.9167 66.6066 14.3194 66.7797C14.7277 66.9503 15.0949 67.2035 15.4209 67.5394C15.7501 67.867 16.0192 68.2655 16.2283 68.7346C16.4124 69.1471 16.5255 69.5607 16.5679 69.9753C16.6078 70.3842 16.5848 70.7736 16.4989 71.1437C16.8754 71.3295 17.2145 71.5715 17.5162 71.8694ZM17.0383 60.6086L18.4286 63.7271L18.43 63.7239L19.4453 65.9615V66.0077L22.747 73.4134C22.9499 72.7935 23.1638 72.1707 23.3888 71.5452C23.8163 70.3512 24.2716 69.1913 24.7548 68.0652C24.984 68.0405 25.2379 68.0188 25.5167 68.0002C25.8018 67.9817 26.0929 67.9724 26.3902 67.9724C26.7682 68.8881 27.1708 69.946 27.5982 71.1462C28.0256 72.3464 28.4654 73.6393 28.9177 75.0251C28.5584 75.0871 28.2177 75.1337 27.8955 75.1643C27.5796 75.1956 27.2574 75.2109 26.9292 75.2109C26.799 74.6914 26.6534 74.1435 26.4924 73.5686C25.9411 73.6364 25.3681 73.6706 24.7733 73.6706H24.2716C24.1043 73.6641 23.9308 73.6546 23.7512 73.6422C23.6372 74.0459 23.5232 74.4648 23.4091 74.8991L23.8328 75.8492C24.1589 76.5807 23.8295 77.4376 23.0969 77.7633L19.4453 79.3874V79.3991L18.2838 79.9047V79.9033L12.4858 82.4819C11.7532 82.8076 10.895 82.4782 10.5688 81.7467L3.77433 66.5063C3.44817 65.7747 3.77762 64.9177 4.51017 64.592L15.1213 59.8737C15.8539 59.5481 16.7121 59.8771 17.0383 60.6086ZM18.2838 80.9656V81.0414C18.2838 81.8429 18.9338 82.4921 19.7358 82.4921H31.3511C32.1531 82.4921 32.8031 81.8429 32.8031 81.0414V64.359C32.8031 63.5582 32.1531 62.909 31.3511 62.909H19.7358C19.478 62.909 19.2362 62.976 19.0263 63.0935L19.5362 64.1483C19.5883 64.0991 19.6585 64.069 19.7358 64.069H31.3511C31.5114 64.069 31.6416 64.1989 31.6416 64.359V81.0414C31.6416 81.2017 31.5114 81.3314 31.3511 81.3314H19.7358C19.5754 81.3314 19.4453 81.2017 19.4453 81.0414V80.4199L18.2838 80.9656ZM12.11 71.5206C11.8739 71.2192 11.669 70.8736 11.4951 70.4836C11.2935 70.0315 11.1737 69.6107 11.1357 69.2213C11.0977 68.8318 11.139 68.4986 11.2596 68.2215C11.3859 67.9418 11.5848 67.7417 11.8565 67.6208C12.179 67.4774 12.5272 67.475 12.9009 67.6136C13.2721 67.7465 13.6298 67.9938 13.9741 68.3554C14.3184 68.7169 14.6103 69.1662 14.8496 69.7031C15.0159 70.0762 15.1275 70.4328 15.1843 70.7733C14.7422 70.7397 14.3427 70.8021 13.9862 70.9606C13.4429 71.2022 13.0658 71.634 12.8549 72.256C12.5944 72.0671 12.346 71.822 12.11 71.5206ZM15.0578 72.0181C14.9327 72.2701 14.7429 72.4526 14.4883 72.5659C14.2223 72.6841 13.9289 72.7029 13.608 72.6221C13.6669 72.237 13.835 71.9828 14.1123 71.8595C14.3896 71.7361 14.7047 71.789 15.0578 72.0181ZM24.6432 70.5244C24.8415 69.8996 25.0056 69.4109 25.1357 69.0582C25.2349 69.3366 25.3464 69.6737 25.4703 70.0697C25.5941 70.4595 25.7242 70.8895 25.8606 71.3596C26.003 71.8236 26.1423 72.3031 26.2787 72.798C26.1795 72.798 26.0712 72.8012 25.9534 72.8073H25.6189C25.3153 72.8073 25.0305 72.8011 24.7641 72.7888C24.5039 72.7764 24.2499 72.7547 24.0021 72.7238C24.2374 71.8824 24.4511 71.1493 24.6432 70.5244Z" fill="#535353"/>
<path d="M36.1133 71.406C36.1133 61.547 28.1104 53.5547 18.2383 53.5547C8.36619 53.5547 0.363281 61.547 0.363281 71.406C0.363281 81.265 8.36619 89.2573 18.2383 89.2573C28.1104 89.2573 36.1133 81.265 36.1133 71.406Z" stroke="#535353" stroke-opacity="0.2"/>
<path d="M142.999 124.595C142.999 114.534 134.833 106.379 124.759 106.379C114.686 106.379 106.52 114.534 106.52 124.595C106.52 134.655 114.686 142.81 124.759 142.81C134.833 142.81 142.999 134.655 142.999 124.595Z" fill="#EEEEEE" fill-opacity="0.5"/>
<path fill-rule="evenodd" clip-rule="evenodd" d="M111.502 118.841L122.113 114.123C122.259 114.058 122.431 114.123 122.496 114.27L124.803 119.443V119.481L125.965 122.08V122.049L129.291 129.51C129.356 129.656 129.29 129.827 129.144 129.893L126.864 130.907L126.865 130.917L124.803 131.821V131.823L118.532 134.611C118.386 134.676 118.214 134.61 118.149 134.464L111.355 119.224C111.29 119.077 111.355 118.906 111.502 118.841ZM124.036 125.059L124.035 125.093C123.939 125.219 123.819 125.356 123.672 125.505C123.524 125.658 123.367 125.807 123.2 125.949C123.041 126.094 122.889 126.219 122.746 126.323C122.564 126.113 122.397 125.929 122.246 125.773C121.943 126.098 121.577 126.355 121.147 126.546C120.705 126.742 120.262 126.844 119.819 126.852C119.377 126.852 118.953 126.767 118.545 126.596C118.142 126.423 117.776 126.173 117.447 125.845C117.115 125.512 116.845 125.11 116.636 124.641C116.426 124.173 116.31 123.706 116.287 123.242C116.261 122.773 116.317 122.331 116.458 121.917C116.605 121.499 116.827 121.13 117.124 120.808C117.424 120.478 117.795 120.215 118.236 120.019C118.678 119.822 119.122 119.723 119.568 119.721C120.013 119.713 120.436 119.796 120.839 119.969C121.247 120.14 121.614 120.393 121.94 120.728C122.269 121.056 122.539 121.455 122.747 121.923C122.932 122.336 123.045 122.75 123.087 123.164C123.127 123.573 123.104 123.963 123.018 124.333C123.394 124.519 123.734 124.761 124.036 125.059ZM123.558 113.798L124.948 116.916L124.949 116.913L125.965 119.151V119.197L129.266 126.603C129.469 125.983 129.683 125.36 129.908 124.734C130.336 123.54 130.791 122.38 131.274 121.254C131.503 121.23 131.757 121.208 132.036 121.19C132.321 121.171 132.612 121.162 132.91 121.162C133.288 122.077 133.69 123.135 134.117 124.335C134.545 125.536 134.985 126.828 135.437 128.214C135.077 128.276 134.737 128.323 134.415 128.353C134.099 128.385 133.777 128.4 133.448 128.4C133.318 127.881 133.172 127.333 133.012 126.758C132.46 126.826 131.888 126.86 131.292 126.86H130.791C130.623 126.853 130.45 126.844 130.27 126.831C130.156 127.235 130.043 127.654 129.929 128.088L130.352 129.038C130.678 129.77 130.349 130.627 129.616 130.952L125.965 132.577V132.588L124.803 133.094V133.092L119.005 135.671C118.273 135.997 117.414 135.667 117.088 134.936L110.294 119.695C109.968 118.964 110.297 118.107 111.029 117.781L121.641 113.063C122.373 112.738 123.232 113.066 123.558 113.798ZM124.803 134.155V134.231C124.803 135.032 125.453 135.681 126.255 135.681H137.87C138.672 135.681 139.322 135.032 139.322 134.231V117.548C139.322 116.747 138.672 116.098 137.87 116.098H126.255C125.998 116.098 125.755 116.165 125.545 116.283L126.055 117.337C126.108 117.289 126.178 117.258 126.255 117.258H137.87C138.031 117.258 138.161 117.388 138.161 117.548V134.231C138.161 134.391 138.031 134.521 137.87 134.521H126.255C126.095 134.521 125.965 134.391 125.965 134.231V133.609L124.803 134.155ZM118.63 124.71C118.393 124.409 118.188 124.063 118.014 123.673C117.813 123.22 117.693 122.8 117.655 122.41C117.617 122.021 117.658 121.688 117.779 121.41C117.905 121.131 118.104 120.931 118.376 120.81C118.698 120.666 119.046 120.664 119.42 120.803C119.791 120.935 120.149 121.183 120.494 121.544C120.838 121.906 121.13 122.355 121.369 122.892C121.535 123.265 121.647 123.622 121.703 123.963C121.261 123.929 120.862 123.991 120.505 124.15C119.962 124.391 119.585 124.823 119.374 125.446C119.114 125.256 118.865 125.011 118.63 124.71ZM121.577 125.207C121.452 125.459 121.262 125.642 121.007 125.755C120.742 125.873 120.448 125.892 120.127 125.811C120.186 125.426 120.354 125.172 120.631 125.048C120.909 124.925 121.224 124.978 121.577 125.207ZM131.162 123.714C131.361 123.088 131.525 122.6 131.655 122.248C131.754 122.526 131.866 122.863 131.99 123.259C132.113 123.649 132.244 124.079 132.38 124.549C132.522 125.013 132.662 125.492 132.798 125.987C132.699 125.987 132.59 125.991 132.473 125.996H132.138C131.834 125.996 131.55 125.991 131.284 125.978C131.023 125.966 130.769 125.944 130.521 125.913C130.757 125.072 130.971 124.339 131.162 123.714Z" fill="#535353"/>
<path d="M142.637 124.595C142.637 114.736 134.634 106.744 124.762 106.744C114.89 106.744 106.887 114.736 106.887 124.595C106.887 134.454 114.89 142.447 124.762 142.447C134.634 142.447 142.637 134.454 142.637 124.595Z" stroke="#535353" stroke-opacity="0.2"/>
<path d="M36.4796 124.595C36.4796 114.534 28.3134 106.379 18.2398 106.379C8.16623 106.379 0 114.534 0 124.595C0 134.655 8.16623 142.81 18.2398 142.81C28.3134 142.81 36.4796 134.655 36.4796 124.595Z" fill="#EEEEEE" fill-opacity="0.5"/>
<path fill-rule="evenodd" clip-rule="evenodd" d="M4.98261 118.841L15.5938 114.123C15.7403 114.058 15.912 114.123 15.9772 114.27L18.2838 119.443V119.481L19.4453 122.08V122.049L22.7717 129.51C22.8369 129.656 22.771 129.827 22.6245 129.893L20.3446 130.907L20.3456 130.917L18.2838 131.821V131.823L12.0133 134.611C11.8668 134.676 11.6952 134.61 11.63 134.464L4.83544 119.224C4.77021 119.077 4.8361 118.906 4.98261 118.841ZM17.5162 125.059L17.5156 125.093C17.4204 125.219 17.2997 125.356 17.1535 125.505C17.0051 125.658 16.8473 125.807 16.6801 125.949C16.5211 126.094 16.3699 126.219 16.2265 126.323C16.0446 126.113 15.8781 125.929 15.7271 125.773C15.4241 126.098 15.0576 126.355 14.6275 126.546C14.1861 126.742 13.7433 126.844 13.2993 126.852C12.8583 126.852 12.4337 126.767 12.0254 126.596C11.6227 126.423 11.2568 126.173 10.9276 125.845C10.5959 125.512 10.3255 125.11 10.1163 124.641C9.90724 124.173 9.79087 123.706 9.7673 123.242C9.74118 122.773 9.79846 122.331 9.93905 121.917C10.0853 121.499 10.3071 121.13 10.6044 120.808C10.9049 120.478 11.2758 120.215 11.7173 120.019C12.1587 119.822 12.6027 119.723 13.0493 119.721C13.4933 119.713 13.9167 119.796 14.3194 119.969C14.7277 120.14 15.0949 120.393 15.4209 120.728C15.7501 121.056 16.0192 121.455 16.2283 121.923C16.4124 122.336 16.5255 122.75 16.5679 123.164C16.6078 123.573 16.5848 123.963 16.4989 124.333C16.8754 124.519 17.2145 124.761 17.5162 125.059ZM17.0383 113.798L18.4286 116.916L18.43 116.913L19.4453 119.151V119.197L22.747 126.603C22.9499 125.983 23.1638 125.36 23.3888 124.734C23.8163 123.54 24.2716 122.38 24.7548 121.254C24.984 121.23 25.2379 121.208 25.5167 121.19C25.8018 121.171 26.0929 121.162 26.3902 121.162C26.7682 122.077 27.1708 123.135 27.5982 124.335C28.0256 125.536 28.4654 126.828 28.9177 128.214C28.5584 128.276 28.2177 128.323 27.8955 128.353C27.5796 128.385 27.2574 128.4 26.9292 128.4C26.799 127.881 26.6534 127.333 26.4924 126.758C25.9411 126.826 25.3681 126.86 24.7733 126.86H24.2716C24.1043 126.853 23.9308 126.844 23.7512 126.831C23.6372 127.235 23.5232 127.654 23.4091 128.088L23.8328 129.038C24.1589 129.77 23.8295 130.627 23.0969 130.952L19.4453 132.577V132.588L18.2838 133.094V133.092L12.4858 135.671C11.7532 135.997 10.895 135.667 10.5688 134.936L3.77433 119.695C3.44817 118.964 3.77762 118.107 4.51017 117.781L15.1213 113.063C15.8539 112.738 16.7121 113.066 17.0383 113.798ZM18.2838 134.155V134.231C18.2838 135.032 18.9338 135.681 19.7358 135.681H31.3511C32.1531 135.681 32.8031 135.032 32.8031 134.231V117.548C32.8031 116.747 32.1531 116.098 31.3511 116.098H19.7358C19.478 116.098 19.2362 116.165 19.0263 116.283L19.5362 117.337C19.5883 117.289 19.6585 117.258 19.7358 117.258H31.3511C31.5114 117.258 31.6416 117.388 31.6416 117.548V134.231C31.6416 134.391 31.5114 134.521 31.3511 134.521H19.7358C19.5754 134.521 19.4453 134.391 19.4453 134.231V133.609L18.2838 134.155ZM12.11 124.71C11.8739 124.409 11.669 124.063 11.4951 123.673C11.2935 123.22 11.1737 122.8 11.1357 122.41C11.0977 122.021 11.139 121.688 11.2596 121.41C11.3859 121.131 11.5848 120.931 11.8565 120.81C12.179 120.666 12.5272 120.664 12.9009 120.803C13.2721 120.935 13.6298 121.183 13.9741 121.544C14.3184 121.906 14.6103 122.355 14.8496 122.892C15.0159 123.265 15.1275 123.622 15.1843 123.963C14.7422 123.929 14.3427 123.991 13.9862 124.15C13.4429 124.391 13.0658 124.823 12.8549 125.446C12.5944 125.256 12.346 125.011 12.11 124.71ZM15.0578 125.207C14.9327 125.459 14.7429 125.642 14.4883 125.755C14.2223 125.873 13.9289 125.892 13.608 125.811C13.6669 125.426 13.835 125.172 14.1123 125.048C14.3896 124.925 14.7047 124.978 15.0578 125.207ZM24.6432 123.714C24.8415 123.088 25.0056 122.6 25.1357 122.248C25.2349 122.526 25.3464 122.863 25.4703 123.259C25.5941 123.649 25.7242 124.079 25.8606 124.549C26.003 125.013 26.1423 125.492 26.2787 125.987C26.1795 125.987 26.0712 125.991 25.9534 125.996H25.6189C25.3153 125.996 25.0305 125.991 24.7641 125.978C24.5039 125.966 24.2499 125.944 24.0021 125.913C24.2374 125.072 24.4511 124.339 24.6432 123.714Z" fill="#535353"/>
<path d="M36.1133 124.595C36.1133 114.736 28.1104 106.744 18.2383 106.744C8.36619 106.744 0.363281 114.736 0.363281 124.595C0.363281 134.454 8.36619 142.447 18.2383 142.447C28.1104 142.447 36.1133 134.454 36.1133 124.595Z" stroke="#535353" stroke-opacity="0.2"/>
<path d="M49.6136 177.057H40.1289V178.514H49.6136V177.057Z" fill="#535353" fill-opacity="0.5"/>
<path d="M102.871 177.057H93.3867V178.514H102.871V177.057Z" fill="#535353" fill-opacity="0.5"/>
<path d="M89.7413 177.784C89.7413 167.724 81.5751 159.568 71.5015 159.568C61.428 159.568 53.2617 167.724 53.2617 177.784C53.2617 187.844 61.428 196 71.5015 196C81.5751 196 89.7413 187.844 89.7413 177.784Z" fill="#EEEEEE" fill-opacity="0.5"/>
<path fill-rule="evenodd" clip-rule="evenodd" d="M60.8982 174.88L60.9062 174.837L61.9434 169.309L61.9572 169.236L61.9624 169.161L62.2161 165.539C62.2299 165.342 62.4156 165.203 62.6088 165.245L72.5106 167.407L72.5094 167.406L76.1383 167.012C75.9617 166.884 75.7575 166.79 75.532 166.741L62.8859 163.979C61.9197 163.768 60.9912 164.463 60.9222 165.448L60.6685 169.071L59.6314 174.598L58.2934 179.78L57.0257 182.905C56.65 183.831 57.1958 184.873 58.1719 185.093L68.013 187.308L67.672 185.903L58.4571 183.829C58.2618 183.785 58.1527 183.576 58.2278 183.391L59.4955 180.266L59.5278 180.187L59.5494 180.103L60.8873 174.922L60.8982 174.88ZM75.5036 168.425L75.5831 168.413L81.3381 167.572C82.3165 167.428 83.1942 168.186 83.1942 169.173V172.805L83.8428 178.391L84.8161 183.654L85.8623 186.859C86.1724 187.809 85.5551 188.81 84.5658 188.961L71.9187 190.895C71.1371 191.014 70.3831 190.553 70.1344 189.803L68.8457 185.92L67.6468 180.658L67.1434 175.072L67.1433 171.047C67.1433 170.243 67.7335 169.561 68.5297 169.445L75.5036 168.425ZM75.4109 169.747L68.7177 170.726C68.5584 170.75 68.4404 170.886 68.4404 171.047L68.4404 175.014L68.9308 180.455L70.0966 185.572L71.3656 189.396C71.4154 189.546 71.5661 189.638 71.7224 189.614L84.3696 187.681C84.5673 187.651 84.6906 187.451 84.6286 187.26L83.5823 184.054L83.5561 183.973L83.54 183.888L82.5675 178.626L82.5594 178.583L82.5543 178.54L81.9057 172.954L81.8977 172.88V172.805V169.173C81.8977 168.976 81.7219 168.824 81.5263 168.853L76.7249 169.556L76.7242 169.569L75.4102 169.756L75.4109 169.747ZM74.6594 175.857L76.007 175.65L76.0055 175.658L80.8391 174.936C81.1046 174.897 81.3527 175.08 81.3921 175.345C81.4322 175.61 81.2484 175.857 80.9828 175.897L75.8428 176.665V176.665L74.496 176.869L74.4967 176.865L70.7206 177.429C70.4549 177.468 70.2073 177.286 70.1676 177.02C70.1279 176.755 70.3111 176.508 70.5768 176.468L74.6587 175.859L74.6594 175.857ZM74.4194 178.372L75.567 178.196L75.5656 178.201L77.9564 177.844C78.222 177.804 78.4701 177.987 78.5095 178.252C78.5489 178.518 78.3657 178.765 78.1002 178.805L74.7988 179.297L73.8335 179.446L73.835 179.442L71.0448 179.858C70.7792 179.898 70.5316 179.715 70.4918 179.45C70.4522 179.184 70.6354 178.937 70.901 178.897L74.4194 178.372ZM73.3556 181.025L74.7718 180.823L74.7703 180.828L75.2358 180.758C75.5014 180.719 75.7487 180.902 75.7888 181.167C75.8282 181.432 75.6451 181.68 75.3795 181.719L71.5312 182.293C71.2655 182.333 71.018 182.151 70.9783 181.885C70.9386 181.619 71.1218 181.372 71.3874 181.333L73.3513 181.039L73.3556 181.025ZM70.2525 174.04C69.9868 174.079 69.8036 174.327 69.8434 174.592C69.8831 174.857 70.1306 175.04 70.3963 175.001L80.6589 173.469C80.9244 173.429 81.1075 173.182 81.0682 172.917C81.028 172.651 80.7807 172.468 80.5151 172.508L70.2525 174.04Z" fill="#535353"/>
<path d="M89.375 177.785C89.375 167.926 81.3721 159.934 71.5 159.934C61.6279 159.934 53.625 167.926 53.625 177.785C53.625 187.644 61.6279 195.636 71.5 195.636C81.3721 195.636 89.375 187.644 89.375 177.785Z" stroke="#535353" stroke-opacity="0.2"/>
<path d="M142.999 177.784C142.999 167.724 134.833 159.568 124.759 159.568C114.686 159.568 106.52 167.724 106.52 177.784C106.52 187.844 114.686 196 124.759 196C134.833 196 142.999 187.844 142.999 177.784Z" fill="#EEEEEE" fill-opacity="0.5"/>
<path fill-rule="evenodd" clip-rule="evenodd" d="M111.502 172.03L122.113 167.312C122.259 167.247 122.431 167.313 122.496 167.459L124.803 172.633V172.67L125.965 175.269V175.238L129.291 182.699C129.356 182.846 129.29 183.017 129.144 183.082L126.864 184.096L126.865 184.107L124.803 185.01V185.013L118.532 187.8C118.386 187.866 118.214 187.8 118.149 187.653L111.355 172.413C111.29 172.267 111.355 172.096 111.502 172.03ZM124.036 178.248L124.035 178.282C123.939 178.408 123.819 178.545 123.672 178.694C123.524 178.848 123.367 178.996 123.2 179.138C123.041 179.283 122.889 179.408 122.746 179.512C122.564 179.302 122.397 179.119 122.246 178.963C121.943 179.287 121.577 179.544 121.147 179.736C120.705 179.932 120.262 180.034 119.819 180.042C119.377 180.042 118.953 179.956 118.545 179.785C118.142 179.613 117.776 179.362 117.447 179.034C117.115 178.701 116.845 178.3 116.636 177.831C116.426 177.362 116.31 176.895 116.287 176.432C116.261 175.962 116.317 175.521 116.458 175.106C116.605 174.689 116.827 174.319 117.124 173.997C117.424 173.667 117.795 173.404 118.236 173.208C118.678 173.011 119.122 172.912 119.568 172.91C120.013 172.903 120.436 172.985 120.839 173.159C121.247 173.329 121.614 173.582 121.94 173.918C122.269 174.246 122.539 174.644 122.747 175.113C122.932 175.526 123.045 175.939 123.087 176.354C123.127 176.762 123.104 177.152 123.018 177.522C123.394 177.708 123.734 177.95 124.036 178.248ZM123.558 166.987L124.948 170.106L124.949 170.103L125.965 172.34V172.386L129.266 179.792C129.469 179.172 129.683 178.549 129.908 177.924C130.336 176.73 130.791 175.57 131.274 174.444C131.503 174.419 131.757 174.397 132.036 174.379C132.321 174.36 132.612 174.351 132.91 174.351C133.288 175.267 133.69 176.325 134.117 177.525C134.545 178.725 134.985 180.018 135.437 181.404C135.077 181.466 134.737 181.512 134.415 181.543C134.099 181.574 133.777 181.59 133.448 181.59C133.318 181.07 133.172 180.522 133.012 179.947C132.46 180.015 131.888 180.049 131.292 180.049H130.791C130.623 180.043 130.45 180.033 130.27 180.021C130.156 180.424 130.043 180.843 129.929 181.278L130.352 182.228C130.678 182.959 130.349 183.816 129.616 184.142L125.965 185.766V185.778L124.803 186.283V186.282L119.005 188.86C118.273 189.186 117.414 188.857 117.088 188.125L110.294 172.885C109.968 172.153 110.297 171.296 111.029 170.971L121.641 166.253C122.373 165.927 123.232 166.256 123.558 166.987ZM124.803 187.344V187.42C124.803 188.221 125.453 188.871 126.255 188.871H137.87C138.672 188.871 139.322 188.221 139.322 187.42V170.737C139.322 169.937 138.672 169.287 137.87 169.287H126.255C125.998 169.287 125.755 169.354 125.545 169.473L126.055 170.527C126.108 170.478 126.178 170.447 126.255 170.447H137.87C138.031 170.447 138.161 170.577 138.161 170.737V187.42C138.161 187.58 138.031 187.71 137.87 187.71H126.255C126.095 187.71 125.965 187.58 125.965 187.42V186.798L124.803 187.344ZM118.63 177.899C118.393 177.598 118.188 177.252 118.014 176.862C117.813 176.41 117.693 175.989 117.655 175.6C117.617 175.21 117.658 174.877 117.779 174.6C117.905 174.321 118.104 174.12 118.376 173.999C118.698 173.856 119.046 173.854 119.42 173.992C119.791 174.125 120.149 174.373 120.494 174.734C120.838 175.095 121.13 175.545 121.369 176.082C121.535 176.455 121.647 176.811 121.703 177.152C121.261 177.118 120.862 177.181 120.505 177.339C119.962 177.581 119.585 178.013 119.374 178.635C119.114 178.446 118.865 178.201 118.63 177.899ZM121.577 178.397C121.452 178.649 121.262 178.831 121.007 178.945C120.742 179.063 120.448 179.082 120.127 179.001C120.186 178.615 120.354 178.361 120.631 178.238C120.909 178.115 121.224 178.168 121.577 178.397ZM131.162 176.903C131.361 176.278 131.525 175.79 131.655 175.437C131.754 175.715 131.866 176.053 131.99 176.448C132.113 176.838 132.244 177.268 132.38 177.738C132.522 178.202 132.662 178.682 132.798 179.176C132.699 179.176 132.59 179.18 132.473 179.186H132.138C131.834 179.186 131.55 179.18 131.284 179.168C131.023 179.155 130.769 179.133 130.521 179.103C130.757 178.261 130.971 177.528 131.162 176.903Z" fill="#535353"/>
<path d="M142.637 177.785C142.637 167.926 134.634 159.934 124.762 159.934C114.89 159.934 106.887 167.926 106.887 177.785C106.887 187.644 114.89 195.636 124.762 195.636C134.634 195.636 142.637 187.644 142.637 177.785Z" stroke="#535353" stroke-opacity="0.2"/>
<path d="M36.4796 177.784C36.4796 167.724 28.3134 159.568 18.2398 159.568C8.16623 159.568 0 167.724 0 177.784C0 187.844 8.16623 196 18.2398 196C28.3134 196 36.4796 187.844 36.4796 177.784Z" fill="#EEEEEE" fill-opacity="0.5"/>
<path fill-rule="evenodd" clip-rule="evenodd" d="M4.98261 172.03L15.5938 167.312C15.7403 167.247 15.912 167.313 15.9772 167.459L18.2838 172.633V172.67L19.4453 175.269V175.238L22.7717 182.699C22.8369 182.846 22.771 183.017 22.6245 183.082L20.3446 184.096L20.3456 184.107L18.2838 185.01V185.013L12.0133 187.8C11.8668 187.866 11.6952 187.8 11.63 187.653L4.83544 172.413C4.77021 172.267 4.8361 172.096 4.98261 172.03ZM17.5162 178.248L17.5156 178.282C17.4204 178.408 17.2997 178.545 17.1535 178.694C17.0051 178.848 16.8473 178.996 16.6801 179.138C16.5211 179.283 16.3699 179.408 16.2265 179.512C16.0446 179.302 15.8781 179.119 15.7271 178.963C15.4241 179.287 15.0576 179.544 14.6275 179.736C14.1861 179.932 13.7433 180.034 13.2993 180.042C12.8583 180.042 12.4337 179.956 12.0254 179.785C11.6227 179.613 11.2568 179.362 10.9276 179.034C10.5959 178.701 10.3255 178.3 10.1163 177.831C9.90724 177.362 9.79087 176.895 9.7673 176.432C9.74118 175.962 9.79846 175.521 9.93905 175.106C10.0853 174.689 10.3071 174.319 10.6044 173.997C10.9049 173.667 11.2758 173.404 11.7173 173.208C12.1587 173.011 12.6027 172.912 13.0493 172.91C13.4933 172.903 13.9167 172.985 14.3194 173.159C14.7277 173.329 15.0949 173.582 15.4209 173.918C15.7501 174.246 16.0192 174.644 16.2283 175.113C16.4124 175.526 16.5255 175.939 16.5679 176.354C16.6078 176.762 16.5848 177.152 16.4989 177.522C16.8754 177.708 17.2145 177.95 17.5162 178.248ZM17.0383 166.987L18.4286 170.106L18.43 170.103L19.4453 172.34V172.386L22.747 179.792C22.9499 179.172 23.1638 178.549 23.3888 177.924C23.8163 176.73 24.2716 175.57 24.7548 174.444C24.984 174.419 25.2379 174.397 25.5167 174.379C25.8018 174.36 26.0929 174.351 26.3902 174.351C26.7682 175.267 27.1708 176.325 27.5982 177.525C28.0256 178.725 28.4654 180.018 28.9177 181.404C28.5584 181.466 28.2177 181.512 27.8955 181.543C27.5796 181.574 27.2574 181.59 26.9292 181.59C26.799 181.07 26.6534 180.522 26.4924 179.947C25.9411 180.015 25.3681 180.049 24.7733 180.049H24.2716C24.1043 180.043 23.9308 180.033 23.7512 180.021C23.6372 180.424 23.5232 180.843 23.4091 181.278L23.8328 182.228C24.1589 182.959 23.8295 183.816 23.0969 184.142L19.4453 185.766V185.778L18.2838 186.283V186.282L12.4858 188.86C11.7532 189.186 10.895 188.857 10.5688 188.125L3.77433 172.885C3.44817 172.153 3.77762 171.296 4.51017 170.971L15.1213 166.253C15.8539 165.927 16.7121 166.256 17.0383 166.987ZM18.2838 187.344V187.42C18.2838 188.221 18.9338 188.871 19.7358 188.871H31.3511C32.1531 188.871 32.8031 188.221 32.8031 187.42V170.737C32.8031 169.937 32.1531 169.287 31.3511 169.287H19.7358C19.478 169.287 19.2362 169.354 19.0263 169.473L19.5362 170.527C19.5883 170.478 19.6585 170.447 19.7358 170.447H31.3511C31.5114 170.447 31.6416 170.577 31.6416 170.737V187.42C31.6416 187.58 31.5114 187.71 31.3511 187.71H19.7358C19.5754 187.71 19.4453 187.58 19.4453 187.42V186.798L18.2838 187.344ZM12.11 177.899C11.8739 177.598 11.669 177.252 11.4951 176.862C11.2935 176.41 11.1737 175.989 11.1357 175.6C11.0977 175.21 11.139 174.877 11.2596 174.6C11.3859 174.321 11.5848 174.12 11.8565 173.999C12.179 173.856 12.5272 173.854 12.9009 173.992C13.2721 174.125 13.6298 174.373 13.9741 174.734C14.3184 175.095 14.6103 175.545 14.8496 176.082C15.0159 176.455 15.1275 176.811 15.1843 177.152C14.7422 177.118 14.3427 177.181 13.9862 177.339C13.4429 177.581 13.0658 178.013 12.8549 178.635C12.5944 178.446 12.346 178.201 12.11 177.899ZM15.0578 178.397C14.9327 178.649 14.7429 178.831 14.4883 178.945C14.2223 179.063 13.9289 179.082 13.608 179.001C13.6669 178.615 13.835 178.361 14.1123 178.238C14.3896 178.115 14.7047 178.168 15.0578 178.397ZM24.6432 176.903C24.8415 176.278 25.0056 175.79 25.1357 175.437C25.2349 175.715 25.3464 176.053 25.4703 176.448C25.5941 176.838 25.7242 177.268 25.8606 177.738C26.003 178.202 26.1423 178.682 26.2787 179.176C26.1795 179.176 26.0712 179.18 25.9534 179.186H25.6189C25.3153 179.186 25.0305 179.18 24.7641 179.168C24.5039 179.155 24.2499 179.133 24.0021 179.103C24.2374 178.261 24.4511 177.528 24.6432 176.903Z" fill="#535353"/>
<path d="M36.1133 177.785C36.1133 167.926 28.1104 159.934 18.2383 159.934C8.36619 159.934 0.363281 167.926 0.363281 177.785C0.363281 187.644 8.36619 195.636 18.2383 195.636C28.1104 195.636 36.1133 187.644 36.1133 177.785Z" stroke="#535353" stroke-opacity="0.2"/>
</g>
<defs>
<clipPath id="clip0_1011_6386">
<rect width="143" height="196" fill="white"/>
</clipPath>
</defs>
</svg>
