<svg width="410" height="214" viewBox="0 0 410 214" fill="none" xmlns="http://www.w3.org/2000/svg">
<rect x="4" y="4" width="402" height="206" rx="16" stroke="#F08F53" stroke-width="8"/>
<path d="M7.99902 158.497L402 158.502" stroke="white" stroke-width="8"/>
<path d="M163.319 191.256C162.903 191.256 162.471 191.256 162.023 191.256C161.591 191.24 161.143 191.216 160.679 191.184C160.327 192.432 159.975 193.736 159.623 195.096L156.743 194.904C157.639 191.88 158.639 188.832 159.743 185.76C160.847 182.672 162.023 179.672 163.271 176.76C163.863 176.696 164.519 176.64 165.239 176.592C165.975 176.544 166.727 176.52 167.495 176.52C168.471 178.888 169.511 181.624 170.615 184.728C171.719 187.832 172.855 191.176 174.023 194.76C173.095 194.92 172.215 195.04 171.383 195.12C170.567 195.2 169.735 195.24 168.887 195.24C168.551 193.896 168.175 192.48 167.759 190.992C166.335 191.168 164.855 191.256 163.319 191.256ZM164.255 179.328C163.919 180.24 163.495 181.504 162.983 183.12C162.487 184.736 161.935 186.632 161.327 188.808C161.967 188.888 162.623 188.944 163.295 188.976C163.983 189.008 164.719 189.024 165.503 189.024C165.791 189.024 166.079 189.024 166.367 189.024C166.671 189.008 166.951 189 167.207 189C166.855 187.72 166.495 186.48 166.127 185.28C165.775 184.064 165.439 182.952 165.119 181.944C164.799 180.92 164.511 180.048 164.255 179.328ZM175.692 195.048C175.676 194.536 175.66 193.832 175.644 192.936C175.628 192.024 175.612 190.976 175.596 189.792C175.596 188.592 175.588 187.304 175.572 185.928C175.572 184.536 175.572 183.104 175.572 181.632C175.924 181.632 176.356 181.64 176.868 181.656C177.38 181.656 177.892 181.664 178.404 181.68C178.932 181.696 179.364 181.712 179.7 181.728C179.7 182.128 179.7 182.536 179.7 182.952C181.06 181.944 182.444 181.44 183.852 181.44C185.148 181.44 186.196 181.896 186.996 182.808C187.796 183.72 188.372 185.176 188.724 187.176C189.092 189.176 189.276 191.8 189.276 195.048C188.908 195.048 188.468 195.04 187.956 195.024C187.444 195.024 186.94 195.016 186.444 195C185.948 194.984 185.516 194.968 185.148 194.952C185.148 192.12 185.068 189.856 184.908 188.16C184.748 186.464 184.484 185.24 184.116 184.488C183.748 183.736 183.252 183.36 182.628 183.36C182.116 183.36 181.596 183.576 181.068 184.008C180.54 184.44 180.084 185.008 179.7 185.712C179.684 187.072 179.668 188.36 179.652 189.576C179.652 190.792 179.644 191.872 179.628 192.816C179.612 193.744 179.596 194.456 179.58 194.952C179.084 194.968 178.476 194.984 177.756 195C177.052 195.032 176.364 195.048 175.692 195.048ZM198.045 195.12C197.389 195.12 196.645 195.072 195.813 194.976C194.981 194.864 194.157 194.728 193.341 194.568C192.525 194.392 191.805 194.208 191.181 194.016L192.237 191.112C192.845 191.464 193.517 191.8 194.253 192.12C195.005 192.424 195.741 192.672 196.461 192.864C197.181 193.056 197.797 193.152 198.309 193.152C198.997 193.152 199.501 193 199.821 192.696C200.141 192.376 200.301 192.04 200.301 191.688C200.301 191.272 200.125 190.928 199.773 190.656C199.421 190.368 198.957 190.12 198.381 189.912C197.821 189.688 197.213 189.48 196.557 189.288C195.965 189.112 195.373 188.92 194.781 188.712C194.189 188.504 193.645 188.264 193.149 187.992C192.669 187.704 192.277 187.36 191.973 186.96C191.685 186.56 191.541 186.08 191.541 185.52C191.541 184.8 191.797 184.136 192.309 183.528C192.821 182.904 193.549 182.4 194.493 182.016C195.437 181.632 196.557 181.44 197.853 181.44C198.909 181.44 199.973 181.576 201.045 181.848C202.133 182.12 203.125 182.504 204.021 183L202.677 185.28C201.797 184.72 200.941 184.264 200.109 183.912C199.293 183.544 198.517 183.36 197.781 183.36C197.077 183.36 196.541 183.512 196.173 183.816C195.805 184.12 195.621 184.432 195.621 184.752C195.621 185.056 195.765 185.312 196.053 185.52C196.341 185.712 196.725 185.88 197.205 186.024C197.701 186.168 198.229 186.312 198.789 186.456C199.413 186.6 200.053 186.776 200.709 186.984C201.365 187.176 201.973 187.424 202.533 187.728C203.093 188.032 203.541 188.424 203.877 188.904C204.213 189.368 204.381 189.952 204.381 190.656C204.381 191.52 204.109 192.288 203.565 192.96C203.021 193.632 202.269 194.16 201.309 194.544C200.365 194.928 199.277 195.12 198.045 195.12ZM212.057 195.072C210.841 195.072 209.657 195.024 208.505 194.928C208.217 194.048 207.905 193.064 207.569 191.976C207.249 190.888 206.921 189.76 206.585 188.592C206.265 187.408 205.953 186.24 205.649 185.088C205.361 183.92 205.105 182.832 204.881 181.824C206.785 181.632 208.193 181.536 209.105 181.536C209.393 183.264 209.721 185.048 210.089 186.888C210.473 188.728 210.857 190.44 211.241 192.024C211.705 189.976 212.113 188.096 212.465 186.384C212.817 184.672 213.121 183.12 213.377 181.728C213.777 181.712 214.241 181.696 214.769 181.68C215.313 181.664 215.841 181.656 216.353 181.656C216.881 181.64 217.297 181.632 217.601 181.632C217.905 183.392 218.241 185.176 218.609 186.984C218.977 188.776 219.353 190.456 219.737 192.024C220.169 190.12 220.569 188.288 220.937 186.528C221.305 184.752 221.617 183.112 221.873 181.608L224.177 181.752C223.809 183.352 223.417 184.952 223.001 186.552C222.585 188.136 222.169 189.648 221.753 191.088C221.337 192.512 220.937 193.792 220.553 194.928C219.769 195.024 218.585 195.072 217.001 195.072C216.617 193.872 216.209 192.528 215.777 191.04C215.345 189.552 214.937 188.064 214.553 186.576C214.137 188.192 213.713 189.728 213.281 191.184C212.849 192.64 212.441 193.936 212.057 195.072ZM231.255 195.12C229.959 195.12 228.791 194.824 227.751 194.232C226.727 193.624 225.911 192.808 225.303 191.784C224.711 190.744 224.415 189.568 224.415 188.256C224.415 186.944 224.703 185.776 225.279 184.752C225.871 183.728 226.671 182.92 227.679 182.328C228.703 181.736 229.863 181.44 231.159 181.44C232.375 181.44 233.463 181.712 234.423 182.256C235.399 182.784 236.183 183.528 236.775 184.488C237.383 185.448 237.743 186.576 237.855 187.872L228.327 189.648C228.631 190.688 229.111 191.536 229.767 192.192C230.423 192.832 231.159 193.152 231.975 193.152C232.727 193.152 233.471 192.896 234.207 192.384C234.943 191.856 235.511 191.184 235.911 190.368L237.615 191.808C236.831 192.864 235.887 193.68 234.783 194.256C233.679 194.832 232.503 195.12 231.255 195.12ZM228.015 187.296C228.015 187.392 228.015 187.472 228.015 187.536L233.607 186.768C233.495 185.744 233.167 184.92 232.623 184.296C232.079 183.672 231.415 183.36 230.631 183.36C229.815 183.36 229.175 183.712 228.711 184.416C228.247 185.104 228.015 186.064 228.015 187.296ZM243.306 195.048C242.746 195.048 242.106 195.032 241.386 195C240.682 194.984 240.026 194.968 239.418 194.952C239.402 194.472 239.386 193.784 239.37 192.888C239.354 191.992 239.338 190.952 239.322 189.768C239.322 188.568 239.314 187.288 239.298 185.928C239.298 184.552 239.298 183.152 239.298 181.728C239.65 181.712 240.082 181.696 240.594 181.68C241.106 181.664 241.618 181.656 242.13 181.656C242.642 181.64 243.074 181.632 243.426 181.632C243.426 182.096 243.426 182.56 243.426 183.024C244.05 182.528 244.69 182.144 245.346 181.872C246.018 181.584 246.666 181.44 247.29 181.44C248.106 181.44 248.85 181.664 249.522 182.112C250.194 182.544 250.738 183.136 251.154 183.888C251.586 184.64 251.834 185.488 251.898 186.432C251.258 186.64 250.618 186.824 249.978 186.984C249.338 187.144 248.73 187.272 248.154 187.368C248.154 186.648 248.058 185.984 247.866 185.376C247.69 184.768 247.45 184.28 247.146 183.912C246.842 183.544 246.506 183.36 246.138 183.36C245.706 183.36 245.226 183.624 244.698 184.152C244.17 184.68 243.746 185.328 243.426 186.096C243.41 188.128 243.394 189.944 243.378 191.544C243.362 193.128 243.338 194.296 243.306 195.048Z" fill="white"/>
<path d="M107.363 87.192L103.163 87.048C102.427 84.328 101.747 81.424 101.123 78.336C100.515 75.248 99.9951 72.136 99.5631 69C101.339 68.68 103.027 68.52 104.627 68.52C104.755 69.864 104.891 71.224 105.035 72.6C105.195 73.976 105.355 75.304 105.515 76.584C105.675 77.864 105.835 79.056 105.995 80.16C106.155 81.248 106.307 82.192 106.451 82.992C107.155 79.872 107.723 77.096 108.155 74.664C108.603 72.216 108.883 70.328 108.995 69C109.667 68.92 110.331 68.864 110.987 68.832C111.643 68.784 112.243 68.76 112.787 68.76C112.915 69.576 113.099 70.584 113.339 71.784C113.579 72.984 113.907 74.488 114.323 76.296C114.739 78.104 115.267 80.336 115.907 82.992C116.163 81.696 116.395 80.368 116.603 79.008C116.827 77.632 117.027 76.296 117.203 75C117.379 73.704 117.523 72.504 117.635 71.4C117.747 70.296 117.819 69.368 117.851 68.616L120.443 68.808C120.155 70.872 119.819 72.968 119.435 75.096C119.051 77.208 118.635 79.28 118.187 81.312C117.755 83.344 117.307 85.256 116.843 87.048L113.339 87.192C112.827 85.32 112.331 83.432 111.851 81.528C111.387 79.624 110.947 77.816 110.531 76.104C110.099 77.816 109.619 79.6 109.091 81.456C108.563 83.296 107.987 85.208 107.363 87.192ZM126.489 87.048C125.897 87.048 125.225 87.032 124.473 87C123.737 86.984 123.113 86.968 122.601 86.952C122.585 86.584 122.569 86.008 122.553 85.224C122.553 84.424 122.545 83.488 122.529 82.416C122.529 81.344 122.521 80.208 122.505 79.008C122.505 77.792 122.497 76.576 122.481 75.36C122.481 74.128 122.481 72.96 122.481 71.856C122.481 70.736 122.481 69.76 122.481 68.928C122.833 68.912 123.257 68.896 123.753 68.88C124.249 68.864 124.753 68.856 125.265 68.856C125.793 68.84 126.241 68.832 126.609 68.832C126.609 69.584 126.609 70.464 126.609 71.472C126.609 72.464 126.601 73.512 126.585 74.616C127.145 74.248 127.729 73.96 128.337 73.752C128.961 73.544 129.569 73.44 130.161 73.44C132.049 73.44 133.441 74.536 134.337 76.728C135.233 78.92 135.681 82.328 135.681 86.952C135.281 86.984 134.769 87.008 134.145 87.024C133.521 87.04 132.657 87.048 131.553 87.048C131.553 79.256 130.713 75.36 129.033 75.36C128.617 75.36 128.185 75.568 127.737 75.984C127.305 76.4 126.921 76.936 126.585 77.592C126.569 78.696 126.553 79.768 126.537 80.808C126.537 81.832 126.529 82.776 126.513 83.64C126.513 84.504 126.505 85.24 126.489 85.848C126.489 86.44 126.489 86.84 126.489 87.048ZM142.195 87.12C140.835 87.12 139.723 86.792 138.859 86.136C138.011 85.464 137.587 84.592 137.587 83.52C137.587 82.544 137.939 81.64 138.643 80.808C139.363 79.976 140.355 79.272 141.619 78.696C142.883 78.104 144.331 77.696 145.963 77.472C145.387 76.064 144.595 75.36 143.587 75.36C142.979 75.36 142.195 75.592 141.235 76.056C140.275 76.52 139.299 77.128 138.307 77.88L137.587 75.48C139.971 74.12 142.227 73.44 144.355 73.44C146.019 73.44 147.355 73.896 148.363 74.808C149.371 75.704 150.107 77.144 150.571 79.128C151.035 81.096 151.267 83.704 151.267 86.952C150.963 86.968 150.419 86.984 149.635 87C148.867 87.032 148.035 87.048 147.139 87.048C147.139 86.536 147.131 86.032 147.115 85.536C145.467 86.592 143.827 87.12 142.195 87.12ZM141.547 83.352C141.547 83.848 141.739 84.24 142.123 84.528C142.523 84.816 143.051 84.96 143.707 84.96C144.859 84.96 145.971 84.464 147.043 83.472C146.947 81.776 146.763 80.344 146.491 79.176C145.867 79.304 145.259 79.512 144.667 79.8C144.091 80.088 143.563 80.432 143.083 80.832C142.619 81.216 142.243 81.632 141.955 82.08C141.683 82.512 141.547 82.936 141.547 83.352ZM154.131 87.048C154.115 86.712 154.099 86.176 154.083 85.44C154.083 84.688 154.075 83.792 154.059 82.752C154.059 81.712 154.051 80.584 154.035 79.368C154.035 78.152 154.035 76.904 154.035 75.624H151.419L151.275 73.416H154.011C154.011 71.8 154.011 70.272 154.011 68.832C154.603 68.832 155.291 68.84 156.075 68.856C156.875 68.872 157.563 68.896 158.139 68.928C158.139 70.304 158.139 71.8 158.139 73.416H160.875L160.731 75.624H158.115C158.115 76.872 158.107 78.104 158.091 79.32C158.091 80.52 158.083 81.632 158.067 82.656C158.067 83.68 158.059 84.568 158.043 85.32C158.043 86.072 158.035 86.616 158.019 86.952C157.475 86.984 156.875 87.008 156.219 87.024C155.563 87.04 154.867 87.048 154.131 87.048ZM172.427 72V68.76H176.507V72H172.427ZM172.523 87.048C172.507 86.52 172.491 85.808 172.475 84.912C172.459 84 172.443 82.96 172.427 81.792C172.427 80.608 172.419 79.344 172.403 78C172.403 76.656 172.403 75.28 172.403 73.872C173.123 73.872 173.875 73.88 174.659 73.896C175.459 73.912 176.083 73.936 176.531 73.968C176.531 75.136 176.523 76.36 176.507 77.64C176.507 78.92 176.499 80.168 176.483 81.384C176.483 82.584 176.475 83.672 176.459 84.648C176.443 85.624 176.427 86.392 176.411 86.952C175.675 86.984 174.971 87.008 174.299 87.024C173.627 87.04 173.035 87.048 172.523 87.048ZM185.326 87.12C184.67 87.12 183.926 87.072 183.094 86.976C182.262 86.864 181.438 86.728 180.622 86.568C179.806 86.392 179.086 86.208 178.462 86.016L179.518 83.112C180.126 83.464 180.798 83.8 181.534 84.12C182.286 84.424 183.022 84.672 183.742 84.864C184.462 85.056 185.078 85.152 185.59 85.152C186.278 85.152 186.782 85 187.102 84.696C187.422 84.376 187.582 84.04 187.582 83.688C187.582 83.272 187.406 82.928 187.054 82.656C186.702 82.368 186.238 82.12 185.662 81.912C185.102 81.688 184.494 81.48 183.838 81.288C183.246 81.112 182.654 80.92 182.062 80.712C181.47 80.504 180.926 80.264 180.43 79.992C179.95 79.704 179.558 79.36 179.254 78.96C178.966 78.56 178.822 78.08 178.822 77.52C178.822 76.8 179.078 76.136 179.59 75.528C180.102 74.904 180.83 74.4 181.774 74.016C182.718 73.632 183.838 73.44 185.134 73.44C186.19 73.44 187.254 73.576 188.326 73.848C189.414 74.12 190.406 74.504 191.302 75L189.958 77.28C189.078 76.72 188.222 76.264 187.39 75.912C186.574 75.544 185.798 75.36 185.062 75.36C184.358 75.36 183.822 75.512 183.454 75.816C183.086 76.12 182.902 76.432 182.902 76.752C182.902 77.056 183.046 77.312 183.334 77.52C183.622 77.712 184.006 77.88 184.486 78.024C184.982 78.168 185.51 78.312 186.07 78.456C186.694 78.6 187.334 78.776 187.99 78.984C188.646 79.176 189.254 79.424 189.814 79.728C190.374 80.032 190.822 80.424 191.158 80.904C191.494 81.368 191.662 81.952 191.662 82.656C191.662 83.52 191.39 84.288 190.846 84.96C190.302 85.632 189.55 86.16 188.59 86.544C187.646 86.928 186.558 87.12 185.326 87.12ZM210.16 87.192L205.96 87.048C205.224 84.328 204.544 81.424 203.92 78.336C203.312 75.248 202.792 72.136 202.36 69C204.136 68.68 205.824 68.52 207.424 68.52C207.552 69.864 207.688 71.224 207.832 72.6C207.992 73.976 208.152 75.304 208.312 76.584C208.472 77.864 208.632 79.056 208.792 80.16C208.952 81.248 209.104 82.192 209.248 82.992C209.952 79.872 210.52 77.096 210.952 74.664C211.4 72.216 211.68 70.328 211.792 69C212.464 68.92 213.128 68.864 213.784 68.832C214.44 68.784 215.04 68.76 215.584 68.76C215.712 69.576 215.896 70.584 216.136 71.784C216.376 72.984 216.704 74.488 217.12 76.296C217.536 78.104 218.064 80.336 218.704 82.992C218.96 81.696 219.192 80.368 219.4 79.008C219.624 77.632 219.824 76.296 220 75C220.176 73.704 220.32 72.504 220.432 71.4C220.544 70.296 220.616 69.368 220.648 68.616L223.24 68.808C222.952 70.872 222.616 72.968 222.232 75.096C221.848 77.208 221.432 79.28 220.984 81.312C220.552 83.344 220.104 85.256 219.64 87.048L216.136 87.192C215.624 85.32 215.128 83.432 214.648 81.528C214.184 79.624 213.744 77.816 213.328 76.104C212.896 77.816 212.416 79.6 211.888 81.456C211.36 83.296 210.784 85.208 210.16 87.192ZM225.56 72V68.76H229.64V72H225.56ZM225.656 87.048C225.64 86.52 225.624 85.808 225.608 84.912C225.592 84 225.576 82.96 225.56 81.792C225.56 80.608 225.552 79.344 225.536 78C225.536 76.656 225.536 75.28 225.536 73.872C226.256 73.872 227.008 73.88 227.792 73.896C228.592 73.912 229.216 73.936 229.664 73.968C229.664 75.136 229.656 76.36 229.64 77.64C229.64 78.92 229.632 80.168 229.616 81.384C229.616 82.584 229.608 83.672 229.592 84.648C229.576 85.624 229.56 86.392 229.544 86.952C228.808 86.984 228.104 87.008 227.432 87.024C226.76 87.04 226.168 87.048 225.656 87.048ZM238.459 87.12C237.803 87.12 237.059 87.072 236.227 86.976C235.395 86.864 234.571 86.728 233.755 86.568C232.939 86.392 232.219 86.208 231.595 86.016L232.651 83.112C233.259 83.464 233.931 83.8 234.667 84.12C235.419 84.424 236.155 84.672 236.875 84.864C237.595 85.056 238.211 85.152 238.723 85.152C239.411 85.152 239.915 85 240.235 84.696C240.555 84.376 240.715 84.04 240.715 83.688C240.715 83.272 240.539 82.928 240.187 82.656C239.835 82.368 239.371 82.12 238.795 81.912C238.235 81.688 237.627 81.48 236.971 81.288C236.379 81.112 235.787 80.92 235.195 80.712C234.603 80.504 234.059 80.264 233.563 79.992C233.083 79.704 232.691 79.36 232.387 78.96C232.099 78.56 231.955 78.08 231.955 77.52C231.955 76.8 232.211 76.136 232.723 75.528C233.235 74.904 233.963 74.4 234.907 74.016C235.851 73.632 236.971 73.44 238.267 73.44C239.323 73.44 240.387 73.576 241.459 73.848C242.547 74.12 243.539 74.504 244.435 75L243.091 77.28C242.211 76.72 241.355 76.264 240.523 75.912C239.707 75.544 238.931 75.36 238.195 75.36C237.491 75.36 236.955 75.512 236.587 75.816C236.219 76.12 236.035 76.432 236.035 76.752C236.035 77.056 236.179 77.312 236.467 77.52C236.755 77.712 237.139 77.88 237.619 78.024C238.115 78.168 238.643 78.312 239.203 78.456C239.827 78.6 240.467 78.776 241.123 78.984C241.779 79.176 242.387 79.424 242.947 79.728C243.507 80.032 243.955 80.424 244.291 80.904C244.627 81.368 244.795 81.952 244.795 82.656C244.795 83.52 244.523 84.288 243.979 84.96C243.435 85.632 242.683 86.16 241.723 86.544C240.779 86.928 239.691 87.12 238.459 87.12ZM253.083 87.12C251.787 87.12 250.619 86.824 249.579 86.232C248.555 85.624 247.739 84.808 247.131 83.784C246.539 82.744 246.243 81.568 246.243 80.256C246.243 78.944 246.531 77.776 247.107 76.752C247.699 75.728 248.499 74.92 249.507 74.328C250.531 73.736 251.691 73.44 252.987 73.44C254.203 73.44 255.291 73.712 256.251 74.256C257.227 74.784 258.011 75.528 258.603 76.488C259.211 77.448 259.571 78.576 259.683 79.872L250.155 81.648C250.459 82.688 250.939 83.536 251.595 84.192C252.251 84.832 252.987 85.152 253.803 85.152C254.555 85.152 255.299 84.896 256.035 84.384C256.771 83.856 257.339 83.184 257.739 82.368L259.443 83.808C258.659 84.864 257.715 85.68 256.611 86.256C255.507 86.832 254.331 87.12 253.083 87.12ZM249.843 79.296C249.843 79.392 249.843 79.472 249.843 79.536L255.435 78.768C255.323 77.744 254.995 76.92 254.451 76.296C253.907 75.672 253.243 75.36 252.459 75.36C251.643 75.36 251.003 75.712 250.539 76.416C250.075 77.104 249.843 78.064 249.843 79.296ZM275.406 87.12C275.038 87.104 274.43 87.088 273.582 87.072C272.734 87.056 271.702 87.04 270.486 87.024C269.286 87.024 267.958 87.016 266.502 87C265.062 87 263.566 87 262.014 87C261.87 83.704 261.766 80.568 261.702 77.592C261.638 74.616 261.606 71.72 261.606 68.904C261.974 68.888 262.614 68.88 263.526 68.88C264.438 68.864 265.462 68.856 266.598 68.856C266.598 70.024 266.59 71.312 266.574 72.72C266.574 74.128 266.558 75.568 266.526 77.04C266.51 78.512 266.486 79.952 266.454 81.36C266.438 82.752 266.406 84.04 266.358 85.224C268.022 85.224 269.638 85.208 271.206 85.176C272.774 85.128 274.15 85.072 275.334 85.008L275.406 87.12ZM282.519 87.12C281.255 87.12 280.111 86.824 279.087 86.232C278.063 85.64 277.247 84.84 276.639 83.832C276.047 82.824 275.751 81.704 275.751 80.472C275.751 79.496 275.935 78.584 276.303 77.736C276.671 76.888 277.183 76.144 277.839 75.504C278.511 74.848 279.279 74.344 280.143 73.992C281.007 73.624 281.927 73.44 282.903 73.44C284.167 73.44 285.311 73.736 286.335 74.328C287.359 74.92 288.167 75.72 288.759 76.728C289.367 77.72 289.671 78.84 289.671 80.088C289.671 81.064 289.487 81.976 289.119 82.824C288.751 83.672 288.231 84.424 287.559 85.08C286.903 85.72 286.143 86.224 285.279 86.592C284.431 86.944 283.511 87.12 282.519 87.12ZM283.215 85.176C284.063 85.176 284.727 84.816 285.207 84.096C285.687 83.36 285.927 82.344 285.927 81.048C285.927 79.96 285.767 78.992 285.447 78.144C285.127 77.296 284.687 76.624 284.127 76.128C283.567 75.632 282.927 75.384 282.207 75.384C281.359 75.384 280.695 75.752 280.215 76.488C279.735 77.208 279.495 78.216 279.495 79.512C279.495 80.584 279.655 81.552 279.975 82.416C280.295 83.264 280.735 83.936 281.295 84.432C281.871 84.928 282.511 85.176 283.215 85.176ZM291.708 87.048C291.708 84.52 291.732 82.32 291.78 80.448C291.828 78.576 291.932 76.968 292.092 75.624H290.052L289.908 73.416H292.428C292.716 72.104 293.124 71.112 293.652 70.44C294.18 69.752 294.868 69.28 295.716 69.024C296.58 68.752 297.644 68.584 298.908 68.52L298.812 70.56C298.06 70.56 297.476 70.752 297.06 71.136C296.66 71.52 296.364 72.28 296.172 73.416H299.028L298.884 75.624H295.932C295.884 76.344 295.852 77.168 295.836 78.096C295.82 79.024 295.812 80.072 295.812 81.24C295.812 82.264 295.82 83.248 295.836 84.192C295.852 85.136 295.876 86.056 295.908 86.952C295.236 86.968 294.524 86.984 293.772 87C293.02 87.032 292.332 87.048 291.708 87.048ZM303.334 87.048C303.318 86.712 303.302 86.176 303.286 85.44C303.286 84.688 303.278 83.792 303.262 82.752C303.262 81.712 303.254 80.584 303.238 79.368C303.238 78.152 303.238 76.904 303.238 75.624H300.622L300.478 73.416H303.214C303.214 71.8 303.214 70.272 303.214 68.832C303.806 68.832 304.494 68.84 305.278 68.856C306.078 68.872 306.766 68.896 307.342 68.928C307.342 70.304 307.342 71.8 307.342 73.416H310.078L309.934 75.624H307.318C307.318 76.872 307.31 78.104 307.294 79.32C307.294 80.52 307.286 81.632 307.27 82.656C307.27 83.68 307.262 84.568 307.246 85.32C307.246 86.072 307.238 86.616 307.222 86.952C306.678 86.984 306.078 87.008 305.422 87.024C304.766 87.04 304.07 87.048 303.334 87.048Z" fill="white"/>
</svg>
