<svg width="146" height="92" viewBox="0 0 146 92" fill="none" xmlns="http://www.w3.org/2000/svg">
<path d="M16.1018 79.6513L15.3203 1" stroke="black" stroke-width="3"/>
<path d="M10.5 75.4277H144.66" stroke="black" stroke-width="3"/>
<path d="M34.4648 80.685V75.7207" stroke="black" stroke-width="3"/>
<path d="M10.5 2.04102H12.9748H15.4496" stroke="black" stroke-width="3"/>
<path d="M10.5 20.5918H12.9748H15.4496" stroke="black" stroke-width="3"/>
<path d="M10.5 38.6191H12.9748H15.4496" stroke="black" stroke-width="3"/>
<path d="M10.5 57.1699H12.9748H15.4496" stroke="black" stroke-width="3"/>
<path d="M52.6992 80.685V75.7207" stroke="black" stroke-width="3"/>
<path d="M70.9375 80.685V75.7207" stroke="black" stroke-width="3"/>
<path d="M89.1719 80.685V75.7207" stroke="black" stroke-width="3"/>
<path d="M107.406 80.685V75.7207" stroke="black" stroke-width="3"/>
<path d="M125.641 80.685V75.7207" stroke="black" stroke-width="3"/>
<path d="M143.879 80.685V75.7207" stroke="black" stroke-width="3"/>
<path d="M15.5781 2.04102C22.3512 22.5514 43.9731 58.6077 70.805 75.1989" stroke="black"/>
<path d="M34.3594 1.51758C52.572 30.1275 91.9081 57.9537 143.357 74.937" stroke="black"/>
<path d="M70.5469 1.60938C86.8216 22.2893 109.492 32.2176 144.139 46.0656M125.643 1.60938C130.593 5.30646 135.021 7.7886 144.139 11.1852" stroke="black"/>
<path d="M34.3359 38.0974V2.04102" stroke="black" stroke-dasharray="2 2"/>
<path d="M125.773 38.6191V1.51758" stroke="black" stroke-dasharray="2 2"/>
<path d="M70.9375 38.8812V2.04102" stroke="black" stroke-dasharray="2 2"/>
<path d="M0.0610626 52.7336V51.2576C0.0610626 50.9229 0.111939 50.6402 0.213692 50.4095C0.315471 50.1767 0.466069 50.0003 0.665511 49.8799C0.862921 49.7574 1.10613 49.6962 1.39513 49.6962C1.59864 49.6962 1.78487 49.738 1.95378 49.8216C2.12069 49.9034 2.26313 50.0218 2.38119 50.1767C2.49719 50.3298 2.58368 50.5135 2.64065 50.728L2.70476 50.8934V52.2803L2.22549 52.2865V51.2393C2.22549 51.0269 2.18886 50.8503 2.11558 50.7095C2.0403 50.5686 1.93953 50.4625 1.81337 50.3912C1.68718 50.3196 1.54776 50.2841 1.39513 50.2841C1.22416 50.2841 1.07458 50.3175 0.94636 50.385C0.818166 50.4524 0.719435 50.5584 0.650245 50.7035C0.579023 50.8464 0.543412 51.0311 0.543412 51.2576V52.1426H4.50592V52.7336H0.0610626ZM4.50592 50.1279L2.49107 51.2116L2.48802 50.5963L4.46929 49.4971H4.50592V50.1279ZM4.56698 47.5804C4.56698 47.8111 4.52829 48.0201 4.45098 48.208C4.3716 48.3938 4.26068 48.5539 4.11821 48.6887C3.97574 48.8215 3.80683 48.9236 3.61145 48.995C3.41607 49.0663 3.20238 49.1021 2.97037 49.1021H2.84215C2.57349 49.1021 2.33438 49.0624 2.12475 48.9827C1.91309 48.903 1.734 48.7948 1.58746 48.6582C1.44093 48.5213 1.33 48.3663 1.25469 48.1928C1.17941 48.0193 1.14174 47.8396 1.14174 47.6538C1.14174 47.4171 1.18245 47.213 1.26386 47.0414C1.34527 46.8679 1.45924 46.726 1.60577 46.6158C1.75028 46.5058 1.92122 46.424 2.11863 46.3709C2.31401 46.3179 2.5277 46.2912 2.75973 46.2912H3.0131V48.7653H2.55213V46.8577H2.50939C2.36285 46.8658 2.22041 46.8966 2.082 46.9497C1.94362 47.0006 1.82965 47.0824 1.74009 47.1945C1.65056 47.3068 1.60577 47.4599 1.60577 47.6538C1.60577 47.7824 1.63326 47.9007 1.6882 48.0091C1.74111 48.1173 1.82048 48.2101 1.92633 48.2877C2.03214 48.3653 2.16138 48.4254 2.31401 48.4682C2.46666 48.5111 2.64271 48.5325 2.84215 48.5325H2.97037C3.12707 48.5325 3.27462 48.5111 3.41302 48.4682C3.54937 48.4233 3.66946 48.359 3.77325 48.2754C3.87703 48.1897 3.95844 48.0865 4.01747 47.966C4.0765 47.8438 4.10599 47.7048 4.10599 47.5498C4.10599 47.3497 4.0653 47.1804 3.98389 47.0414C3.90248 46.9026 3.79359 46.7811 3.65725 46.6772L3.92895 46.3341C4.0368 46.4057 4.1396 46.4964 4.23728 46.6066C4.33497 46.7169 4.41432 46.8527 4.47538 47.0139C4.53645 47.1731 4.56698 47.362 4.56698 47.5804ZM1.2028 44.2428H1.63631V46.0341H1.2028V44.2428ZM0.399927 45.428V44.8615H3.68778C3.79971 44.8615 3.88417 44.844 3.94114 44.8093C3.99814 44.7748 4.03578 44.7298 4.0541 44.6747C4.07241 44.6196 4.08158 44.5603 4.08158 44.497C4.08158 44.45 4.07752 44.4012 4.06936 44.3502C4.0592 44.2969 4.05105 44.2572 4.04495 44.2308L4.50592 44.2277C4.52017 44.2726 4.5334 44.3317 4.54559 44.4053C4.55984 44.4767 4.56698 44.5634 4.56698 44.6656C4.56698 44.8043 4.53949 44.9318 4.48455 45.0481C4.42959 45.1646 4.33802 45.2574 4.2098 45.3269C4.07955 45.3943 3.90452 45.428 3.68473 45.428H0.399927ZM4.56698 42.2038C4.56698 42.4345 4.52829 42.6435 4.45098 42.8314C4.3716 43.0172 4.26068 43.1773 4.11821 43.3122C3.97574 43.4449 3.80683 43.5468 3.61145 43.6184C3.41607 43.6897 3.20238 43.7255 2.97037 43.7255H2.84215C2.57349 43.7255 2.33438 43.6858 2.12475 43.6061C1.91309 43.5264 1.734 43.4182 1.58746 43.2816C1.44093 43.1447 1.33 42.9897 1.25469 42.816C1.17941 42.6425 1.14174 42.463 1.14174 42.2772C1.14174 42.0405 1.18245 41.8362 1.26386 41.6648C1.34527 41.4913 1.45924 41.3494 1.60577 41.2392C1.75028 41.1289 1.92122 41.0474 2.11863 40.9944C2.31401 40.9413 2.5277 40.9147 2.75973 40.9147H3.0131V43.3887H2.55213V41.4811H2.50939C2.36285 41.4892 2.22041 41.52 2.082 41.5731C1.94362 41.624 1.82965 41.7056 1.74009 41.8179C1.65056 41.9303 1.60577 42.0834 1.60577 42.2772C1.60577 42.4058 1.63326 42.5241 1.6882 42.6323C1.74111 42.7405 1.82048 42.8335 1.92633 42.9111C2.03214 42.9887 2.16138 43.0488 2.31401 43.0916C2.46666 43.1345 2.64271 43.1559 2.84215 43.1559H2.97037C3.12707 43.1559 3.27462 43.1345 3.41302 43.0916C3.54937 43.0467 3.66946 42.9824 3.77325 42.8988C3.87703 42.8131 3.95844 42.7099 4.01747 42.5895C4.0765 42.4672 4.10599 42.3282 4.10599 42.1732C4.10599 41.9731 4.0653 41.8038 3.98389 41.6648C3.90248 41.5261 3.79359 41.4046 3.65725 41.3006L3.92895 40.9575C4.0368 41.0291 4.1396 41.1198 4.23728 41.23C4.33497 41.3403 4.41432 41.4761 4.47538 41.6374C4.53645 41.7965 4.56698 41.9854 4.56698 42.2038ZM1.90798 39.6869H4.50592V40.2534H1.2028V39.7175L1.90798 39.6869ZM2.7292 39.8217L2.72003 40.0574C2.49412 40.0553 2.28553 40.0216 2.09422 39.9563C1.90087 39.891 1.73298 39.7993 1.59051 39.6806C1.44804 39.5623 1.33813 39.4215 1.26081 39.2582C1.18144 39.0928 1.14174 38.9101 1.14174 38.7103C1.14174 38.547 1.16414 38.3999 1.20892 38.2692C1.25164 38.1386 1.32083 38.0273 1.41649 37.9356C1.51215 37.8415 1.63631 37.7702 1.78894 37.7211C1.93953 37.6722 2.12373 37.6476 2.34149 37.6476H4.50592V38.2172H2.33539C2.16239 38.2172 2.02401 38.2428 1.9202 38.2938C1.81439 38.3447 1.73806 38.4192 1.69125 38.5172C1.6424 38.6152 1.61799 38.7356 1.61799 38.8785C1.61799 39.0194 1.64748 39.1479 1.70651 39.2644C1.76554 39.3786 1.84695 39.4776 1.95073 39.5612C2.05452 39.643 2.1736 39.7073 2.30791 39.7543C2.4402 39.7993 2.58063 39.8217 2.7292 39.8217ZM1.2028 35.4004H1.63631V37.1914H1.2028V35.4004ZM0.399927 36.5853V36.0188H3.68778C3.79971 36.0188 3.88417 36.0013 3.94114 35.9668C3.99814 35.9321 4.03578 35.8871 4.0541 35.832C4.07241 35.7769 4.08158 35.7178 4.08158 35.6544C4.08158 35.6076 4.07752 35.5585 4.06936 35.5075C4.0592 35.4545 4.05105 35.4145 4.04495 35.3881L4.50592 35.385C4.52017 35.4299 4.5334 35.4892 4.54559 35.5626C4.55984 35.634 4.56698 35.7207 4.56698 35.8229C4.56698 35.9616 4.53949 36.0891 4.48455 36.2056C4.42959 36.3219 4.33802 36.4147 4.2098 36.4842C4.07955 36.5516 3.90452 36.5853 3.68473 36.5853H0.399927ZM1.2028 34.1204H4.50592V34.69H1.2028V34.1204ZM0.326647 34.7328C0.23508 34.7328 0.157735 34.7054 0.0946413 34.6503C0.0315471 34.593 0 34.5094 0 34.3992C0 34.291 0.0315471 34.2082 0.0946413 34.151C0.157735 34.0919 0.23508 34.0624 0.326647 34.0624C0.414176 34.0624 0.489462 34.0919 0.552556 34.151C0.613618 34.2082 0.644149 34.291 0.644149 34.3992C0.644149 34.5094 0.613618 34.593 0.552556 34.6503C0.489462 34.7054 0.414176 34.7328 0.326647 34.7328ZM2.891 33.3611H2.82079C2.58267 33.3611 2.36183 33.3264 2.15833 33.2571C1.95277 33.1876 1.77469 33.0876 1.62409 32.9569C1.47146 32.8263 1.3534 32.6682 1.26996 32.4824C1.18449 32.2967 1.14174 32.0884 1.14174 31.8577C1.14174 31.6249 1.18449 31.4159 1.26996 31.2301C1.3534 31.0423 1.47146 30.8831 1.62409 30.7525C1.77469 30.6198 1.95277 30.5187 2.15833 30.4492C2.36183 30.3799 2.58267 30.3452 2.82079 30.3452H2.891C3.1291 30.3452 3.34993 30.3799 3.55346 30.4492C3.75697 30.5187 3.93505 30.6198 4.08768 30.7525C4.2383 30.8831 4.35633 31.0412 4.44181 31.227C4.52524 31.4107 4.56698 31.6189 4.56698 31.8517C4.56698 32.0842 4.52524 32.2935 4.44181 32.4793C4.35633 32.6651 4.2383 32.8242 4.08768 32.9569C3.93505 33.0876 3.75697 33.1876 3.55346 33.2571C3.34993 33.3264 3.1291 33.3611 2.891 33.3611ZM2.82079 32.7947H2.891C3.05584 32.7947 3.21155 32.7753 3.35808 32.7364C3.50256 32.6977 3.63078 32.6395 3.74272 32.5619C3.85465 32.4824 3.94317 32.3834 4.0083 32.265C4.07139 32.1467 4.10294 32.0087 4.10294 31.8517C4.10294 31.6965 4.07139 31.5606 4.0083 31.4444C3.94317 31.326 3.85465 31.228 3.74272 31.1504C3.63078 31.0728 3.50256 31.0148 3.35808 30.9759C3.21155 30.9351 3.05584 30.9148 2.891 30.9148H2.82079C2.65798 30.9148 2.50431 30.9351 2.3598 30.9759C2.21327 31.0148 2.08403 31.0739 1.9721 31.1536C1.85812 31.2312 1.76859 31.3291 1.70346 31.4475C1.63834 31.5638 1.60577 31.7007 1.60577 31.8577C1.60577 32.0129 1.63834 32.1496 1.70346 32.2679C1.76859 32.3845 1.85812 32.4824 1.9721 32.5619C2.08403 32.6395 2.21327 32.6977 2.3598 32.7364C2.50431 32.7753 2.65798 32.7947 2.82079 32.7947ZM1.90798 29.0683H4.50592V29.6348H1.2028V29.0989L1.90798 29.0683ZM2.7292 29.2031L2.72003 29.4388C2.49412 29.4367 2.28553 29.4033 2.09422 29.338C1.90087 29.2726 1.73298 29.1807 1.59051 29.0623C1.44804 28.9439 1.33813 28.8031 1.26081 28.6398C1.18144 28.4744 1.14174 28.2918 1.14174 28.0917C1.14174 27.9284 1.16414 27.7815 1.20892 27.6509C1.25164 27.5202 1.32083 27.4089 1.41649 27.317C1.51215 27.2232 1.63631 27.1516 1.78894 27.1027C1.93953 27.0536 2.12373 27.0293 2.34149 27.0293H4.50592V27.5986H2.33539C2.16239 27.5986 2.02401 27.6242 1.9202 27.6752C1.81439 27.7264 1.73806 27.8008 1.69125 27.8988C1.6424 27.9968 1.61799 28.1173 1.61799 28.2602C1.61799 28.401 1.64748 28.5296 1.70651 28.6458C1.76554 28.7603 1.84695 28.8593 1.95073 28.9429C2.05452 29.0244 2.1736 29.0887 2.30791 29.1357C2.4402 29.1807 2.58063 29.2031 2.7292 29.2031Z" fill="black"/>
<path d="M75.2616 90.6142H74.3334L74.3397 90.1334H75.2616C75.5789 90.1334 75.8436 90.0671 76.0554 89.9343C76.2669 89.7998 76.4255 89.6119 76.5316 89.371C76.6394 89.128 76.6933 88.8445 76.6933 88.5198V88.2473C76.6933 87.9923 76.6629 87.7657 76.6016 87.5677C76.5407 87.3675 76.4511 87.1993 76.3331 87.0624C76.215 86.9236 76.0705 86.8186 75.8996 86.747C75.7305 86.6757 75.5362 86.6399 75.3166 86.6399H74.3152V86.1562H75.3166C75.6075 86.1562 75.873 86.2051 76.1132 86.3031C76.3534 86.399 76.56 86.5388 76.7329 86.7224C76.908 86.9043 77.0424 87.1248 77.1359 87.384C77.2294 87.6411 77.2763 87.9309 77.2763 88.2535V88.5198C77.2763 88.8425 77.2294 89.1333 77.1359 89.3924C77.0424 89.6498 76.9069 89.869 76.7298 90.0509C76.5547 90.2325 76.3432 90.3722 76.095 90.4702C75.8488 90.5661 75.5708 90.6142 75.2616 90.6142ZM74.6479 86.1562V90.6142H74.0586V86.1562H74.6479ZM80.0239 90.0477V88.3424C80.0239 88.2117 79.9973 88.0983 79.9444 88.0024C79.8936 87.9045 79.8163 87.829 79.7126 87.7759C79.6086 87.7229 79.4805 87.6962 79.3278 87.6962C79.1853 87.6962 79.0603 87.7208 78.9524 87.7696C78.8464 87.8188 78.763 87.883 78.7021 87.9627C78.6429 88.0422 78.6135 88.1279 78.6135 88.2198H78.0487C78.0487 88.1015 78.0792 87.9842 78.1402 87.8676C78.2014 87.7514 78.2889 87.6463 78.4028 87.5523C78.5189 87.4564 78.6573 87.3809 78.818 87.3257C78.9808 87.2685 79.1619 87.24 79.3614 87.24C79.6016 87.24 79.8131 87.2808 79.9963 87.3626C80.1815 87.4441 80.3261 87.5677 80.43 87.7331C80.5358 87.8964 80.5886 88.1015 80.5886 88.3484V89.8915C80.5886 90.0017 80.5978 90.1191 80.616 90.2437C80.6363 90.3683 80.666 90.4754 80.7046 90.5651V90.6142H80.1153C80.0869 90.5489 80.0645 90.4621 80.0484 90.3539C80.032 90.2437 80.0239 90.1415 80.0239 90.0477ZM80.1216 88.6055L80.1276 89.0037H79.5568C79.3961 89.0037 79.2525 89.017 79.1264 89.0434C79.0001 89.0679 78.8943 89.1058 78.8089 89.1568C78.7234 89.2077 78.6583 89.272 78.6135 89.3496C78.5687 89.4251 78.5463 89.5139 78.5463 89.6161C78.5463 89.7201 78.5697 89.8149 78.6166 89.9009C78.6633 89.9866 78.7336 90.0548 78.8271 90.106C78.9227 90.1549 79.04 90.1794 79.1783 90.1794C79.3513 90.1794 79.5039 90.1426 79.6362 90.0692C79.7683 89.9957 79.8733 89.9059 79.9507 89.7998C80.0299 89.6937 80.0726 89.5905 80.0788 89.4904L80.3201 89.7629C80.3057 89.8486 80.2669 89.9437 80.2039 90.0477C80.1408 90.1517 80.0564 90.2518 79.9507 90.3477C79.8467 90.4417 79.7227 90.5204 79.5782 90.5836C79.4357 90.6447 79.2749 90.6753 79.0957 90.6753C78.8719 90.6753 78.6755 90.6314 78.5067 90.5436C78.3397 90.4561 78.2095 90.3385 78.1159 90.1917C78.0242 90.0425 77.9784 89.8763 77.9784 89.6927C77.9784 89.515 78.013 89.3587 78.0823 89.2242C78.1514 89.0873 78.2511 88.9741 78.3814 88.8843C78.5117 88.7923 78.6685 88.7231 78.8516 88.676C79.0347 88.629 79.2392 88.6055 79.4651 88.6055H80.1216ZM82.3562 90.2714L83.275 87.3012H83.8796L82.5547 91.1255C82.5242 91.2073 82.4833 91.2948 82.4325 91.3889C82.3838 91.4848 82.3205 91.5757 82.2431 91.6614C82.166 91.7471 82.0722 91.8166 81.9623 91.8696C81.8544 91.9248 81.7252 91.9522 81.5747 91.9522C81.5299 91.9522 81.4728 91.9462 81.4038 91.9339C81.3345 91.9216 81.2858 91.9114 81.2571 91.9033L81.2542 91.444C81.2704 91.4461 81.2959 91.4479 81.3306 91.45C81.367 91.4542 81.3926 91.4563 81.4069 91.4563C81.5351 91.4563 81.644 91.4388 81.7333 91.404C81.8229 91.3714 81.8982 91.3155 81.9594 91.2358C82.0225 91.1582 82.0764 91.051 82.1212 90.9141L82.3562 90.2714ZM81.6815 87.3012L82.5393 89.8732L82.686 90.4702L82.2798 90.6785L81.0649 87.3012H81.6815ZM86.3127 89.7355C86.3127 89.6537 86.2942 89.5782 86.2577 89.509C86.2231 89.4374 86.1507 89.3731 86.041 89.3159C85.9329 89.2568 85.7703 89.2056 85.5526 89.1628C85.3692 89.1241 85.2035 89.0781 85.0547 89.0251C84.9083 88.972 84.783 88.9078 84.6793 88.8323C84.5775 88.7568 84.4993 88.6679 84.4444 88.5658C84.3894 88.4639 84.3618 88.3442 84.3618 88.2075C84.3618 88.0769 84.3905 87.9533 84.4472 87.8371C84.5064 87.7208 84.5887 87.6176 84.6947 87.528C84.8026 87.4381 84.9318 87.3675 85.0823 87.3166C85.2329 87.2656 85.4009 87.24 85.5859 87.24C85.8506 87.24 86.0764 87.2871 86.2637 87.3809C86.451 87.4747 86.5946 87.6003 86.6941 87.7574C86.7939 87.9126 86.8439 88.085 86.8439 88.275H86.2791C86.2791 88.183 86.2515 88.0942 86.1965 88.0085C86.1436 87.9207 86.0652 87.8483 85.9615 87.7911C85.8597 87.7341 85.7347 87.7054 85.5859 87.7054C85.4293 87.7054 85.3022 87.7299 85.2045 87.7788C85.1087 87.8258 85.0386 87.8862 84.9938 87.9596C84.9511 88.033 84.9297 88.1106 84.9297 88.1921C84.9297 88.2535 84.9399 88.3087 84.9602 88.3575C84.9826 88.4046 85.0211 88.4484 85.0761 88.4892C85.1311 88.5281 85.2084 88.5647 85.3082 88.5995C85.408 88.6342 85.5351 88.669 85.6898 88.7037C85.9605 88.7649 86.1832 88.8383 86.3583 88.924C86.5334 89.0097 86.6636 89.115 86.7491 89.2393C86.8345 89.364 86.8775 89.515 86.8775 89.6927C86.8775 89.8374 86.8467 89.9701 86.7858 90.0906C86.7267 90.211 86.6402 90.315 86.5263 90.4028C86.4143 90.4888 86.2801 90.5559 86.1233 90.605C85.9686 90.6521 85.7946 90.6753 85.6013 90.6753C85.3103 90.6753 85.0641 90.6233 84.8625 90.5193C84.6611 90.4151 84.5085 90.2805 84.4045 90.1151C84.3008 89.9498 84.249 89.7752 84.249 89.5915H84.8166C84.825 89.7467 84.8695 89.8701 84.9511 89.962C85.0323 90.0519 85.1321 90.1162 85.2501 90.1549C85.3684 90.1917 85.4853 90.21 85.6013 90.21C85.756 90.21 85.8852 90.1896 85.9889 90.1488C86.0949 90.1078 86.1752 90.0519 86.2301 89.9803C86.2851 89.909 86.3127 89.8272 86.3127 89.7355Z" fill="black"/>
<path d="M28.717 23.9938V22.5179C28.717 22.1832 28.7678 21.9005 28.8694 21.6698C28.9713 21.437 29.1218 21.2606 29.3214 21.1401C29.5188 21.0176 29.7619 20.9565 30.0511 20.9565C30.2545 20.9565 30.4408 20.9983 30.6096 21.0819C30.7766 21.1637 30.919 21.282 31.0371 21.437C31.153 21.5901 31.2395 21.7737 31.2965 21.9883L31.3606 22.1536V23.5405L30.8813 23.5468V22.4996C30.8813 22.2872 30.8445 22.1105 30.7713 21.9697C30.6961 21.8289 30.5952 21.7228 30.4692 21.6515C30.3431 21.5799 30.2037 21.5443 30.0511 21.5443C29.8799 21.5443 29.7304 21.5778 29.6022 21.6452C29.474 21.7126 29.3753 21.8187 29.306 21.9637C29.2349 22.1066 29.1992 22.2913 29.1992 22.5179V23.4028H33.1617V23.9938H28.717ZM33.1617 21.3881L31.147 22.4719L31.1439 21.8566L33.125 20.7574H33.1617V21.3881ZM33.2227 18.8406C33.2227 19.0713 33.1841 19.2804 33.1068 19.4682C33.0273 19.654 32.9166 19.8142 32.7741 19.949C32.6316 20.0817 32.4625 20.1839 32.2672 20.2552C32.0718 20.3265 31.8582 20.3623 31.6261 20.3623H31.4979C31.2293 20.3623 30.9902 20.3226 30.7805 20.2429C30.5689 20.1632 30.3897 20.0551 30.2433 19.9184C30.0966 19.7815 29.9859 19.6266 29.9106 19.4531C29.8351 19.2796 29.7976 19.0998 29.7976 18.9141C29.7976 18.6773 29.8382 18.4733 29.9198 18.3016C30.001 18.1281 30.1151 17.9863 30.2615 17.876C30.4061 17.766 30.577 17.6842 30.7745 17.6312C30.9698 17.5781 31.1835 17.5515 31.4156 17.5515H31.669V20.0255H31.208V18.1179H31.1652C31.0186 18.126 30.8763 18.1569 30.7377 18.2099C30.5994 18.2609 30.4856 18.3426 30.396 18.4547C30.3063 18.5671 30.2615 18.7202 30.2615 18.9141C30.2615 19.0426 30.2892 19.161 30.3441 19.2694C30.397 19.3776 30.4762 19.4703 30.5822 19.5479C30.688 19.6255 30.8172 19.6856 30.9698 19.7285C31.1225 19.7713 31.2986 19.7927 31.4979 19.7927H31.6261C31.7829 19.7927 31.9303 19.7713 32.0689 19.7285C32.2052 19.6835 32.3253 19.6192 32.4292 19.5356C32.5329 19.4499 32.6142 19.3467 32.6733 19.2263C32.7324 19.104 32.7619 18.965 32.7619 18.8101C32.7619 18.6099 32.7212 18.4406 32.6397 18.3016C32.5584 18.1629 32.4495 18.0414 32.313 17.9374L32.5847 17.5943C32.6926 17.6659 32.7955 17.7566 32.8932 17.8669C32.9908 17.9771 33.07 18.113 33.1313 18.2742C33.1922 18.4333 33.2227 18.6222 33.2227 18.8406ZM32.7587 15.5645C32.7587 15.4296 32.7314 15.3053 32.6764 15.1908C32.6214 15.0767 32.5462 14.9826 32.4506 14.9092C32.3529 14.8358 32.2419 14.794 32.1176 14.7838V14.2448C32.313 14.2549 32.4951 14.3213 32.6642 14.4438C32.8309 14.5643 32.9664 14.7224 33.07 14.9183C33.1719 15.1143 33.2227 15.3296 33.2227 15.5645C33.2227 15.8135 33.1789 16.0309 33.0914 16.2166C33.0041 16.4003 32.884 16.5534 32.7314 16.6759C32.5787 16.7964 32.4037 16.8871 32.2062 16.9485C32.0067 17.0075 31.7962 17.0373 31.5742 17.0373H31.4461C31.2241 17.0373 31.0147 17.0075 30.8172 16.9485C30.6176 16.8871 30.4418 16.7964 30.2892 16.6759C30.1365 16.5534 30.0164 16.4003 29.9289 16.2166C29.8413 16.0309 29.7976 15.8135 29.7976 15.5645C29.7976 15.3053 29.8505 15.0785 29.9562 14.8846C30.0602 14.6908 30.2027 14.5387 30.3837 14.4284C30.5627 14.3161 30.7664 14.2549 30.9943 14.2448V14.7838C30.8578 14.794 30.7349 14.8326 30.6249 14.9C30.515 14.9654 30.4275 15.0552 30.3624 15.1694C30.2951 15.2818 30.2615 15.4135 30.2615 15.5645C30.2615 15.738 30.2962 15.8838 30.3655 16.0024C30.4324 16.1186 30.5241 16.2114 30.6401 16.2809C30.7542 16.3483 30.8813 16.3972 31.0217 16.4277C31.16 16.4565 31.3015 16.4708 31.4461 16.4708H31.5742C31.7188 16.4708 31.8613 16.4565 32.0017 16.4277C32.1421 16.3993 32.2692 16.3514 32.3833 16.284C32.4972 16.2145 32.5889 16.1218 32.6579 16.0052C32.7251 15.8869 32.7587 15.74 32.7587 15.5645ZM32.597 11.6544H30.8966C30.7664 11.6544 30.6533 11.6811 30.5577 11.7341C30.46 11.7851 30.3848 11.8627 30.3319 11.9667C30.279 12.0709 30.2524 12.1995 30.2524 12.3526C30.2524 12.4955 30.2769 12.6209 30.3256 12.7291C30.3746 12.8352 30.4387 12.919 30.5181 12.9802C30.5973 13.0395 30.6828 13.069 30.7745 13.069V13.6355C30.6565 13.6355 30.5395 13.6049 30.4233 13.5435C30.3074 13.4823 30.2027 13.3946 30.1089 13.2804C30.0133 13.1638 29.938 13.0251 29.883 12.8639C29.826 12.7006 29.7976 12.519 29.7976 12.3189C29.7976 12.078 29.8382 11.8658 29.9198 11.6819C30.001 11.4964 30.1243 11.3514 30.2892 11.2471C30.452 11.141 30.6565 11.088 30.9026 11.088H32.4412C32.5511 11.088 32.6681 11.0788 32.7923 11.0606C32.9166 11.0399 33.0234 11.0104 33.1128 10.9717H33.1617V11.5625C33.0966 11.5912 33.0101 11.6137 32.9023 11.6299C32.7923 11.6463 32.6905 11.6544 32.597 11.6544ZM31.159 11.5565L31.556 11.5505V12.1229C31.556 12.2841 31.5693 12.4281 31.5956 12.5545C31.6201 12.6813 31.6578 12.7873 31.7086 12.873C31.7594 12.9587 31.8235 13.0241 31.9009 13.069C31.9762 13.1139 32.0647 13.1364 32.1666 13.1364C32.2703 13.1364 32.3649 13.1129 32.4506 13.0659C32.536 13.0191 32.604 12.9486 32.655 12.8548C32.7038 12.7589 32.7283 12.6413 32.7283 12.5026C32.7283 12.3291 32.6915 12.176 32.6183 12.0432C32.5451 11.9105 32.4555 11.8055 32.3497 11.7279C32.244 11.6484 32.1411 11.6053 32.0413 11.5993L32.313 11.3574C32.3985 11.3717 32.4933 11.4104 32.597 11.4739C32.7006 11.5371 32.8004 11.6218 32.896 11.7279C32.9898 11.8321 33.0682 11.9565 33.1313 12.1015C33.1922 12.2444 33.2227 12.4056 33.2227 12.5851C33.2227 12.8098 33.1789 13.0068 33.0914 13.1761C33.0041 13.3436 32.8869 13.4742 32.7405 13.568C32.5917 13.66 32.4261 13.706 32.2429 13.706C32.0658 13.706 31.91 13.6712 31.7758 13.6017C31.6393 13.5322 31.5265 13.4324 31.4369 13.3018C31.3452 13.1712 31.2762 13.0139 31.2293 12.8302C31.1824 12.6465 31.159 12.4414 31.159 12.2149V11.5565ZM28.4727 9.58146H33.1617V10.151H28.4727V9.58146ZM28.4727 8.05664H33.1617V8.62623H28.4727V8.05664Z" fill="black"/>
<path d="M64.9279 23.9938V22.5179C64.9279 22.1832 64.9787 21.9005 65.0803 21.6698C65.1822 21.437 65.3328 21.2606 65.5323 21.1401C65.7298 21.0176 65.9728 20.9565 66.262 20.9565C66.4654 20.9565 66.6517 20.9983 66.8205 21.0819C66.9875 21.1637 67.13 21.282 67.248 21.437C67.3639 21.5901 67.4504 21.7737 67.5075 21.9883L67.5715 22.1536V23.5405L67.0922 23.5468V22.4996C67.0922 22.2872 67.0555 22.1105 66.9823 21.9697C66.907 21.8289 66.8062 21.7228 66.6801 21.6515C66.554 21.5799 66.4146 21.5443 66.262 21.5443C66.0908 21.5443 65.9413 21.5778 65.8131 21.6452C65.685 21.7126 65.5862 21.8187 65.5169 21.9637C65.4458 22.1066 65.4101 22.2913 65.4101 22.5179V23.4028H69.3727V23.9938H64.9279ZM69.3727 21.3881L67.3579 22.4719L67.3548 21.8566L69.3359 20.7574H69.3727V21.3881ZM69.4336 18.8406C69.4336 19.0713 69.3951 19.2804 69.3177 19.4682C69.2382 19.654 69.1275 19.8142 68.985 19.949C68.8425 20.0817 68.6735 20.1839 68.4781 20.2552C68.2827 20.3265 68.0691 20.3623 67.837 20.3623H67.7088C67.4403 20.3623 67.2011 20.3226 66.9914 20.2429C66.7799 20.1632 66.6006 20.0551 66.4542 19.9184C66.3076 19.7815 66.1969 19.6266 66.1216 19.4531C66.046 19.2796 66.0085 19.0998 66.0085 18.9141C66.0085 18.6773 66.0492 18.4733 66.1307 18.3016C66.212 18.1281 66.3261 17.9863 66.4725 17.876C66.6171 17.766 66.7879 17.6842 66.9854 17.6312C67.1808 17.5781 67.3944 17.5515 67.6265 17.5515H67.88V20.0255H67.4189V18.1179H67.3762C67.2295 18.126 67.0873 18.1569 66.9487 18.2099C66.8104 18.2609 66.6965 18.3426 66.6069 18.4547C66.5173 18.5671 66.4725 18.7202 66.4725 18.9141C66.4725 19.0426 66.5001 19.161 66.5551 19.2694C66.6079 19.3776 66.6871 19.4703 66.7932 19.5479C66.8989 19.6255 67.0281 19.6856 67.1808 19.7285C67.3334 19.7713 67.5095 19.7927 67.7088 19.7927H67.837C67.9938 19.7927 68.1413 19.7713 68.2799 19.7285C68.4161 19.6835 68.5362 19.6192 68.6401 19.5356C68.7438 19.4499 68.8251 19.3467 68.8842 19.2263C68.9434 19.104 68.9728 18.965 68.9728 18.8101C68.9728 18.6099 68.9322 18.4406 68.8506 18.3016C68.7693 18.1629 68.6605 18.0414 68.5239 17.9374L68.7957 17.5943C68.9035 17.6659 69.0064 17.7566 69.1041 17.8669C69.2018 17.9771 69.281 18.113 69.3422 18.2742C69.4031 18.4333 69.4336 18.6222 69.4336 18.8406ZM68.9697 15.5645C68.9697 15.4296 68.9423 15.3053 68.8873 15.1908C68.8324 15.0767 68.7571 14.9826 68.6615 14.9092C68.5638 14.8358 68.4528 14.794 68.3286 14.7838V14.2448C68.5239 14.2549 68.706 14.3213 68.8751 14.4438C69.0418 14.5643 69.1773 14.7224 69.281 14.9183C69.3828 15.1143 69.4336 15.3296 69.4336 15.5645C69.4336 15.8135 69.3899 16.0309 69.3023 16.2166C69.2151 16.4003 69.095 16.5534 68.9423 16.6759C68.7897 16.7964 68.6146 16.8871 68.4171 16.9485C68.2176 17.0075 68.0071 17.0373 67.7852 17.0373H67.657C67.435 17.0373 67.2256 17.0075 67.0281 16.9485C66.8286 16.8871 66.6527 16.7964 66.5001 16.6759C66.3474 16.5534 66.2273 16.4003 66.1398 16.2166C66.0523 16.0309 66.0085 15.8135 66.0085 15.5645C66.0085 15.3053 66.0614 15.0785 66.1672 14.8846C66.2711 14.6908 66.4136 14.5387 66.5947 14.4284C66.7736 14.3161 66.9773 14.2549 67.2053 14.2448V14.7838C67.0688 14.794 66.9458 14.8326 66.8359 14.9C66.7259 14.9654 66.6384 15.0552 66.5733 15.1694C66.5061 15.2818 66.4725 15.4135 66.4725 15.5645C66.4725 15.738 66.5071 15.8838 66.5764 16.0024C66.6434 16.1186 66.7351 16.2114 66.851 16.2809C66.9651 16.3483 67.0922 16.3972 67.2326 16.4277C67.371 16.4565 67.5124 16.4708 67.657 16.4708H67.7852C67.9297 16.4708 68.0722 16.4565 68.2126 16.4277C68.3531 16.3993 68.4802 16.3514 68.5943 16.284C68.7081 16.2145 68.7998 16.1218 68.8689 16.0052C68.9361 15.8869 68.9697 15.74 68.9697 15.5645ZM68.8079 11.6544H67.1076C66.9773 11.6544 66.8643 11.6811 66.7687 11.7341C66.671 11.7851 66.5957 11.8627 66.5428 11.9667C66.4899 12.0709 66.4634 12.1995 66.4634 12.3526C66.4634 12.4955 66.4878 12.6209 66.5366 12.7291C66.5855 12.8352 66.6496 12.919 66.7291 12.9802C66.8083 13.0395 66.8937 13.069 66.9854 13.069V13.6355C66.8674 13.6355 66.7504 13.6049 66.6343 13.5435C66.5183 13.4823 66.4136 13.3946 66.3198 13.2804C66.2242 13.1638 66.1489 13.0251 66.094 12.8639C66.0369 12.7006 66.0085 12.519 66.0085 12.3189C66.0085 12.078 66.0492 11.8658 66.1307 11.6819C66.212 11.4964 66.3352 11.3514 66.5001 11.2471C66.6629 11.141 66.8674 11.088 67.1136 11.088H68.6521C68.762 11.088 68.879 11.0788 69.0033 11.0606C69.1275 11.0399 69.2343 11.0104 69.3237 10.9717H69.3727V11.5625C69.3075 11.5912 69.2211 11.6137 69.1132 11.6299C69.0033 11.6463 68.9014 11.6544 68.8079 11.6544ZM67.3699 11.5565L67.7669 11.5505V12.1229C67.7669 12.2841 67.7802 12.4281 67.8065 12.5545C67.831 12.6813 67.8688 12.7873 67.9196 12.873C67.9704 12.9587 68.0345 13.0241 68.1118 13.069C68.1871 13.1139 68.2757 13.1364 68.3775 13.1364C68.4812 13.1364 68.5758 13.1129 68.6615 13.0659C68.7469 13.0191 68.8149 12.9486 68.866 12.8548C68.9147 12.7589 68.9392 12.6413 68.9392 12.5026C68.9392 12.3291 68.9025 12.176 68.8293 12.0432C68.7561 11.9105 68.6664 11.8055 68.5607 11.7279C68.4549 11.6484 68.352 11.6053 68.2522 11.5993L68.5239 11.3574C68.6094 11.3717 68.7042 11.4104 68.8079 11.4739C68.9116 11.5371 69.0114 11.6218 69.107 11.7279C69.2007 11.8321 69.2791 11.9565 69.3422 12.1015C69.4031 12.2444 69.4336 12.4056 69.4336 12.5851C69.4336 12.8098 69.3899 13.0068 69.3023 13.1761C69.2151 13.3436 69.0978 13.4742 68.9514 13.568C68.8027 13.66 68.637 13.706 68.4539 13.706C68.2767 13.706 68.1209 13.6712 67.9868 13.6017C67.8503 13.5322 67.7375 13.4324 67.6479 13.3018C67.5562 13.1712 67.4871 13.0139 67.4402 12.8302C67.3934 12.6465 67.3699 12.4414 67.3699 12.2149V11.5565ZM64.6836 9.58146H69.3727V10.151H64.6836V9.58146ZM64.6836 8.05664H69.3727V8.62623H64.6836V8.05664Z" fill="black"/>
<path d="M119.897 23.9938V22.5179C119.897 22.1832 119.947 21.9005 120.049 21.6698C120.151 21.437 120.302 21.2606 120.501 21.1401C120.699 21.0176 120.942 20.9565 121.231 20.9565C121.434 20.9565 121.62 20.9983 121.789 21.0819C121.956 21.1637 122.099 21.282 122.217 21.437C122.333 21.5901 122.419 21.7737 122.476 21.9883L122.54 22.1536V23.5405L122.061 23.5468V22.4996C122.061 22.2872 122.024 22.1105 121.951 21.9697C121.876 21.8289 121.775 21.7228 121.649 21.6515C121.523 21.5799 121.383 21.5443 121.231 21.5443C121.06 21.5443 120.91 21.5778 120.782 21.6452C120.654 21.7126 120.555 21.8187 120.486 21.9637C120.415 22.1066 120.379 22.2913 120.379 22.5179V23.4028H124.341V23.9938H119.897ZM124.341 21.3881L122.327 22.4719L122.324 21.8566L124.305 20.7574H124.341V21.3881ZM124.402 18.8406C124.402 19.0713 124.364 19.2804 124.286 19.4682C124.207 19.654 124.096 19.8142 123.954 19.949C123.811 20.0817 123.642 20.1839 123.447 20.2552C123.251 20.3265 123.038 20.3623 122.806 20.3623H122.678C122.409 20.3623 122.17 20.3226 121.96 20.2429C121.749 20.1632 121.569 20.0551 121.423 19.9184C121.276 19.7815 121.166 19.6266 121.09 19.4531C121.015 19.2796 120.977 19.0998 120.977 18.9141C120.977 18.6773 121.018 18.4733 121.099 18.3016C121.181 18.1281 121.295 17.9863 121.441 17.876C121.586 17.766 121.757 17.6842 121.954 17.6312C122.15 17.5781 122.363 17.5515 122.595 17.5515H122.849V20.0255H122.388V18.1179H122.345C122.198 18.126 122.056 18.1569 121.917 18.2099C121.779 18.2609 121.665 18.3426 121.576 18.4547C121.486 18.5671 121.441 18.7202 121.441 18.9141C121.441 19.0426 121.469 19.161 121.524 19.2694C121.577 19.3776 121.656 19.4703 121.762 19.5479C121.868 19.6255 121.997 19.6856 122.15 19.7285C122.302 19.7713 122.478 19.7927 122.678 19.7927H122.806C122.963 19.7927 123.11 19.7713 123.249 19.7285C123.385 19.6835 123.505 19.6192 123.609 19.5356C123.713 19.4499 123.794 19.3467 123.853 19.2263C123.912 19.104 123.942 18.965 123.942 18.8101C123.942 18.6099 123.901 18.4406 123.819 18.3016C123.738 18.1629 123.629 18.0414 123.493 17.9374L123.764 17.5943C123.872 17.6659 123.975 17.7566 124.073 17.8669C124.171 17.9771 124.25 18.113 124.311 18.2742C124.372 18.4333 124.402 18.6222 124.402 18.8406ZM123.938 15.5645C123.938 15.4296 123.911 15.3053 123.856 15.1908C123.801 15.0767 123.726 14.9826 123.63 14.9092C123.533 14.8358 123.422 14.794 123.297 14.7838V14.2448C123.493 14.2549 123.675 14.3213 123.844 14.4438C124.011 14.5643 124.146 14.7224 124.25 14.9183C124.352 15.1143 124.402 15.3296 124.402 15.5645C124.402 15.8135 124.359 16.0309 124.271 16.2166C124.184 16.4003 124.064 16.5534 123.911 16.6759C123.758 16.7964 123.583 16.8871 123.386 16.9485C123.186 17.0075 122.976 17.0373 122.754 17.0373H122.626C122.404 17.0373 122.194 17.0075 121.997 16.9485C121.797 16.8871 121.622 16.7964 121.469 16.6759C121.316 16.5534 121.196 16.4003 121.109 16.2166C121.021 16.0309 120.977 15.8135 120.977 15.5645C120.977 15.3053 121.03 15.0785 121.136 14.8846C121.24 14.6908 121.382 14.5387 121.563 14.4284C121.742 14.3161 121.946 14.2549 122.174 14.2448V14.7838C122.038 14.794 121.915 14.8326 121.805 14.9C121.695 14.9654 121.607 15.0552 121.542 15.1694C121.475 15.2818 121.441 15.4135 121.441 15.5645C121.441 15.738 121.476 15.8838 121.545 16.0024C121.612 16.1186 121.704 16.2114 121.82 16.2809C121.934 16.3483 122.061 16.3972 122.201 16.4277C122.34 16.4565 122.481 16.4708 122.626 16.4708H122.754C122.898 16.4708 123.041 16.4565 123.181 16.4277C123.322 16.3993 123.449 16.3514 123.563 16.284C123.677 16.2145 123.769 16.1218 123.838 16.0052C123.905 15.8869 123.938 15.74 123.938 15.5645ZM123.777 11.6544H122.076C121.946 11.6544 121.833 11.6811 121.737 11.7341C121.64 11.7851 121.564 11.8627 121.512 11.9667C121.459 12.0709 121.432 12.1995 121.432 12.3526C121.432 12.4955 121.457 12.6209 121.505 12.7291C121.554 12.8352 121.618 12.919 121.698 12.9802C121.777 13.0395 121.862 13.069 121.954 13.069V13.6355C121.836 13.6355 121.719 13.6049 121.603 13.5435C121.487 13.4823 121.382 13.3946 121.289 13.2804C121.193 13.1638 121.118 13.0251 121.063 12.8639C121.006 12.7006 120.977 12.519 120.977 12.3189C120.977 12.078 121.018 11.8658 121.099 11.6819C121.181 11.4964 121.304 11.3514 121.469 11.2471C121.632 11.141 121.836 11.088 122.082 11.088H123.621C123.731 11.088 123.848 11.0788 123.972 11.0606C124.096 11.0399 124.203 11.0104 124.292 10.9717H124.341V11.5625C124.276 11.5912 124.19 11.6137 124.082 11.6299C123.972 11.6463 123.87 11.6544 123.777 11.6544ZM122.339 11.5565L122.736 11.5505V12.1229C122.736 12.2841 122.749 12.4281 122.775 12.5545C122.8 12.6813 122.838 12.7873 122.888 12.873C122.939 12.9587 123.003 13.0241 123.081 13.069C123.156 13.1139 123.244 13.1364 123.346 13.1364C123.45 13.1364 123.545 13.1129 123.63 13.0659C123.716 13.0191 123.784 12.9486 123.835 12.8548C123.883 12.7589 123.908 12.6413 123.908 12.5026C123.908 12.3291 123.871 12.176 123.798 12.0432C123.725 11.9105 123.635 11.8055 123.529 11.7279C123.424 11.6484 123.321 11.6053 123.221 11.5993L123.493 11.3574C123.578 11.3717 123.673 11.4104 123.777 11.4739C123.88 11.5371 123.98 11.6218 124.076 11.7279C124.169 11.8321 124.248 11.9565 124.311 12.1015C124.372 12.2444 124.402 12.4056 124.402 12.5851C124.402 12.8098 124.359 13.0068 124.271 13.1761C124.184 13.3436 124.067 13.4742 123.92 13.568C123.771 13.66 123.606 13.706 123.423 13.706C123.245 13.706 123.09 13.6712 122.956 13.6017C122.819 13.5322 122.706 13.4324 122.617 13.3018C122.525 13.1712 122.456 13.0139 122.409 12.8302C122.362 12.6465 122.339 12.4414 122.339 12.2149V11.5565ZM119.652 9.58146H124.341V10.151H119.652V9.58146ZM119.652 8.05664H124.341V8.62623H119.652V8.05664Z" fill="black"/>
</svg>
