<svg width="54" height="67" viewBox="0 0 54 67" fill="none" xmlns="http://www.w3.org/2000/svg">
<path d="M34.0275 3.20315L36.2639 23.1752C36.3782 24.1957 36.9001 25.162 37.6984 25.8314L52.2049 37.9937C53.8675 39.3876 53.4672 42.0167 51.5292 42.4318L34.6194 46.0535C33.6888 46.2528 32.9258 46.8699 32.5222 47.7496L24.6234 64.9663C23.6 67.197 20.266 66.2906 19.9762 63.703L17.7399 43.7309C17.6256 42.7105 17.1037 41.7441 16.3053 41.0747L1.79886 28.9124C0.136286 27.5185 0.536594 24.8894 2.47461 24.4743L19.3844 20.8526C20.315 20.6533 21.078 20.0363 21.4816 19.1566L29.3804 1.9398C30.4038 -0.290866 33.7378 0.615495 34.0275 3.20315Z" fill="#FFCD48" stroke="black"/>
</svg>
