<svg width="50" height="51" viewBox="0 0 50 51" fill="none" xmlns="http://www.w3.org/2000/svg">
<path d="M20.1848 2.16104L29.2279 13.9422C29.8498 14.7524 30.7947 15.2506 31.8146 15.3059L46.6086 16.1088C48.9131 16.2338 49.8319 19.1481 48.016 20.5723L36.3579 29.7154C35.5542 30.3458 35.0659 31.2958 35.0212 32.3162L34.3709 47.1537C34.2687 49.4851 31.3111 50.4176 29.8902 48.5665L20.847 36.7853C20.2251 35.9751 19.2802 35.4769 18.2603 35.4216L3.46629 34.6187C1.16184 34.4937 0.242997 31.5795 2.05896 30.1552L13.717 21.0121C14.5207 20.3817 15.009 19.4317 15.0537 18.4113L15.704 3.5738C15.8062 1.24243 18.7638 0.309897 20.1848 2.16104Z" fill="#FFCD48" stroke="black"/>
</svg>
