<svg width="56" height="68" viewBox="0 0 56 68" fill="none" xmlns="http://www.w3.org/2000/svg">
<path d="M30.412 2.81253L35.5385 21.6232C35.7998 22.5819 36.4562 23.3843 37.3441 23.8304L53.4399 31.9172C55.2768 32.84 55.2768 35.4621 53.4399 36.385L37.3441 44.4718C36.4562 44.9179 35.7998 45.7203 35.5385 46.679L30.412 65.4896C29.7425 67.9465 26.2575 67.9465 25.588 65.4896L20.4615 46.679C20.2002 45.7203 19.5438 44.9179 18.6559 44.4718L2.56006 36.385C0.723193 35.4621 0.723192 32.84 2.56006 31.9172L18.6559 23.8304C19.5438 23.3843 20.2002 22.5819 20.4615 21.6232L25.588 2.81253C26.2575 0.355672 29.7425 0.355672 30.412 2.81253Z" fill="#FFCD48" stroke="black"/>
</svg>
