<svg width="107" height="107" viewBox="0 0 107 107" fill="none" xmlns="http://www.w3.org/2000/svg">
<path fill-rule="evenodd" clip-rule="evenodd" d="M99 53.5C99 78.629 78.629 99 53.5 99C28.371 99 8 78.629 8 53.5C8 28.371 28.371 8 53.5 8C78.629 8 99 28.371 99 53.5ZM107 53.5C107 83.0472 83.0472 107 53.5 107C23.9528 107 0 83.0472 0 53.5C0 23.9528 23.9528 0 53.5 0C83.0472 0 107 23.9528 107 53.5ZM54 78C67.8071 78 79 66.8071 79 53C79 39.1929 67.8071 28 54 28C40.1929 28 29 39.1929 29 53C29 66.8071 40.1929 78 54 78Z" fill="black"/>
</svg>
