<svg width="107" height="141" viewBox="0 0 107 141" fill="none" xmlns="http://www.w3.org/2000/svg">
<path fill-rule="evenodd" clip-rule="evenodd" d="M10 8H20V37C20 37.1532 20.0115 37.3037 20.0336 37.4508C19.9026 38.3209 20.1537 39.2404 20.7976 39.9366C21.9227 41.1529 23.8207 41.2269 25.0371 40.1019L31.4902 34.1331L37.8486 40.089C39.0578 41.2217 40.9563 41.1596 42.089 39.9504C42.6602 39.3405 42.9276 38.5554 42.8972 37.7816C42.9642 37.5324 43 37.2704 43 37V8H97C98.1046 8 99 8.89543 99 10V131C99 132.105 98.1046 133 97 133H10C8.89543 133 8 132.105 8 131V10C8 8.89543 8.89543 8 10 8ZM37 31.073V8H26V31.0382L28.9629 28.2976C29.6728 27.6411 30.6149 27.3929 31.5 27.5418C32.3914 27.3918 33.3402 27.6448 34.0509 28.3105L37 31.073ZM0 10C0 4.47715 4.47715 0 10 0H97C102.523 0 107 4.47715 107 10V131C107 136.523 102.523 141 97 141H10C4.47715 141 0 136.523 0 131V10ZM22 65C20.3431 65 19 66.3431 19 68C19 69.6569 20.3431 71 22 71H86C87.6568 71 89 69.6569 89 68C89 66.3431 87.6568 65 86 65H22ZM19 80C19 78.3431 20.3431 77 22 77H86C87.6568 77 89 78.3431 89 80C89 81.6569 87.6568 83 86 83H22C20.3431 83 19 81.6569 19 80ZM22 89C20.3431 89 19 90.3431 19 92C19 93.6569 20.3431 95 22 95H86C87.6568 95 89 93.6569 89 92C89 90.3431 87.6568 89 86 89H22ZM19 104C19 102.343 20.3431 101 22 101H86C87.6568 101 89 102.343 89 104C89 105.657 87.6568 107 86 107H22C20.3431 107 19 105.657 19 104ZM22 113C20.3431 113 19 114.343 19 116C19 117.657 20.3431 119 22 119H86C87.6568 119 89 117.657 89 116C89 114.343 87.6568 113 86 113H22Z" fill="black"/>
</svg>
