<svg width="107" height="141" viewBox="0 0 107 141" fill="none" xmlns="http://www.w3.org/2000/svg">
<path fill-rule="evenodd" clip-rule="evenodd" d="M20 8H10C8.89543 8 8 8.89543 8 10V131C8 132.105 8.89543 133 10 133H97C98.1046 133 99 132.105 99 131V10C99 8.89543 98.1046 8 97 8H43V37C43 37.2704 42.9642 37.5324 42.8972 37.7816C42.9276 38.5554 42.6602 39.3405 42.089 39.9504C40.9563 41.1596 39.0578 41.2217 37.8486 40.089L31.4902 34.1331L25.0371 40.1019C23.8207 41.2269 21.9227 41.1529 20.7976 39.9366C20.1537 39.2404 19.9026 38.3209 20.0336 37.4508C20.0115 37.3037 20 37.1532 20 37V8ZM37 8V31.073L34.0509 28.3105C33.3402 27.6448 32.3914 27.3918 31.5 27.5418C30.6149 27.3929 29.6728 27.6411 28.9629 28.2976L26 31.0382V8H37ZM10 0C4.47715 0 0 4.47715 0 10V131C0 136.523 4.47715 141 10 141H97C102.523 141 107 136.523 107 131V10C107 4.47715 102.523 0 97 0H10ZM19 68C19 66.3431 20.3431 65 22 65H86C87.6568 65 89 66.3431 89 68C89 69.6569 87.6568 71 86 71H22C20.3431 71 19 69.6569 19 68ZM22 81C20.3431 81 19 82.3431 19 84C19 85.6569 20.3431 87 22 87H86C87.6568 87 89 85.6569 89 84C89 82.3431 87.6568 81 86 81H22ZM19 100C19 98.3431 20.3431 97 22 97H86C87.6568 97 89 98.3431 89 100C89 101.657 87.6568 103 86 103H22C20.3431 103 19 101.657 19 100ZM22 113C20.3431 113 19 114.343 19 116C19 117.657 20.3431 119 22 119H86C87.6568 119 89 117.657 89 116C89 114.343 87.6568 113 86 113H22Z" fill="black"/>
</svg>
