<svg width="201" height="158" viewBox="0 0 201 158" fill="none" xmlns="http://www.w3.org/2000/svg">
<path fill-rule="evenodd" clip-rule="evenodd" d="M9.18902 40.7143L82.2727 8.1754C83.2817 7.72613 84.464 8.17995 84.9132 9.18902L100.8 44.8706V45.1313L108.8 63.0513V62.8389L131.71 114.295C132.159 115.304 131.705 116.487 130.696 116.936L114.993 123.927L115 124L100.8 130.234V130.247L57.6123 149.475C56.6033 149.924 55.421 149.47 54.9718 148.461L8.1754 43.3549C7.72613 42.3458 8.17995 41.1636 9.18902 40.7143ZM95.5134 83.5954L95.5086 83.8318C94.8529 84.7001 94.0217 85.6466 93.0148 86.6713C91.9931 87.7333 90.9064 88.7543 89.7547 89.7341C88.6593 90.7355 87.618 91.5961 86.6307 92.3159C85.3778 90.8655 84.2311 89.6013 83.1907 88.5232C81.104 90.76 78.5796 92.5378 75.6172 93.8567C72.577 95.2103 69.5276 95.9141 66.4691 95.9681C63.4323 95.9658 60.5077 95.3764 57.6954 94.1999C54.922 93.006 52.4018 91.2791 50.1346 89.0192C47.85 86.7204 45.9876 83.9533 44.5472 80.7182C43.1068 77.483 42.3054 74.2669 42.143 71.0699C41.9633 67.8339 42.3577 64.786 43.3262 61.9261C44.3337 59.0489 45.8613 56.5006 47.9089 54.2812C49.9782 52.0055 52.533 50.1908 55.5733 48.8372C58.6135 47.4836 61.6716 46.7993 64.7474 46.7843C67.8059 46.7303 70.7218 47.3002 73.4951 48.4941C76.3075 49.6706 78.8364 51.4169 81.082 53.7332C83.3492 55.9931 85.203 58.7406 86.6433 61.9757C87.9102 64.8211 88.6897 67.6733 88.9818 70.5324C89.2566 73.3524 89.0981 76.0385 88.5062 78.5905C91.0999 79.8724 93.4356 81.5407 95.5134 83.5954ZM92.2216 5.93512L101.797 27.4415L101.807 27.4199L108.8 42.851V43.1701L131.54 94.2464C132.937 89.9687 134.41 85.6732 135.96 81.3599C138.904 73.1253 142.04 65.1253 145.368 57.3599C146.947 57.1893 148.696 57.0399 150.616 56.9119C152.579 56.7839 154.584 56.7199 156.632 56.7199C159.235 63.0346 162.008 70.3306 164.952 78.6079C167.896 86.8853 170.925 95.8026 174.04 105.36C171.565 105.787 169.219 106.107 167 106.32C164.824 106.533 162.605 106.64 160.344 106.64C159.448 103.056 158.445 99.2799 157.336 95.3119C153.539 95.7813 149.592 96.0159 145.496 96.0159H142.04C140.888 95.9733 139.693 95.9093 138.456 95.8239C137.671 98.6077 136.886 101.496 136.1 104.489L139.018 111.042C141.264 116.087 138.995 121.998 133.95 124.244L108.8 135.442V135.524L100.8 139.014V139.004L60.8662 156.783C55.8209 159.03 49.9098 156.761 47.6634 151.715L0.867038 46.6088C-1.37931 41.5634 0.889752 35.6523 5.93512 33.406L79.0188 0.867037C84.0641 -1.37931 89.9752 0.889752 92.2216 5.93512ZM100.8 146.329V146.853C100.8 152.376 105.277 156.853 110.8 156.853H190.8C196.323 156.853 200.8 152.376 200.8 146.853V31.7997C200.8 26.2769 196.323 21.7997 190.8 21.7997H110.8C109.025 21.7997 107.359 22.2619 105.914 23.0724L109.426 30.3463C109.784 30.0075 110.268 29.7997 110.8 29.7997H190.8C191.904 29.7997 192.8 30.6952 192.8 31.7997V146.853C192.8 147.958 191.904 148.853 190.8 148.853H110.8C109.695 148.853 108.8 147.958 108.8 146.853V142.565L100.8 146.329ZM58.2782 81.19C56.6523 79.1117 55.2406 76.7278 54.0432 74.0383C52.6549 70.9201 51.8299 68.0181 51.5682 65.3323C51.3065 62.6465 51.5909 60.3481 52.4214 58.4371C53.2909 56.5088 54.6611 55.1281 56.5321 54.2951C58.7538 53.3059 61.1517 53.2892 63.7256 54.2449C66.2821 55.1616 68.7461 56.8669 71.1174 59.3606C73.4887 61.8544 75.4987 64.9527 77.1473 68.6556C78.2927 71.2282 79.0611 73.6883 79.4525 76.0361C76.4069 75.8042 73.6562 76.2348 71.2006 77.3281C67.4588 78.9941 64.8614 81.972 63.4086 86.2618C61.6143 84.959 59.9041 83.2684 58.2782 81.19ZM78.5809 84.6208C77.7199 86.3586 76.4124 87.6179 74.6584 88.3988C72.8265 89.2145 70.8056 89.3436 68.5959 88.7862C69.0013 86.1303 70.159 84.3772 72.069 83.5269C73.9789 82.6765 76.1495 83.0412 78.5809 84.6208ZM144.6 74.3199C145.965 70.0106 147.096 66.6399 147.992 64.2079C148.675 66.1279 149.443 68.4533 150.296 71.1839C151.149 73.8719 152.045 76.8373 152.984 80.0799C153.965 83.2799 154.925 86.5866 155.864 89.9999C155.181 89.9999 154.435 90.0213 153.624 90.0639H151.32C149.229 90.0639 147.267 90.0213 145.432 89.9359C143.64 89.8506 141.891 89.7013 140.184 89.4879C141.805 83.6853 143.277 78.6293 144.6 74.3199Z" fill="white"/>
</svg>
