<svg width="180" height="167" viewBox="0 0 180 167" fill="none" xmlns="http://www.w3.org/2000/svg">
<g clip-path="url(#clip0_566_959)">
<path fill-rule="evenodd" clip-rule="evenodd" d="M24.6217 67.5542L24.6712 67.2902L31.0681 33.1532L31.1532 32.6989L31.1854 32.2378L32.75 9.86374C32.8351 8.64678 33.9805 7.78884 35.1723 8.04941L96.2445 21.4017L96.2373 21.3962L118.621 18.9632C117.532 18.1719 116.269 17.5906 114.882 17.2873L36.881 0.234016C30.922 -1.0688 25.195 3.22082 24.7695 9.30569L23.2049 31.6798L16.8081 65.8167L8.55561 97.819L0.736646 117.119C-1.58069 122.839 1.78553 129.272 7.80609 130.629L68.5044 144.311L66.4015 135.636L9.56516 122.825C8.36106 122.554 7.68781 121.267 8.15128 120.123L15.9702 100.823L16.1696 100.331L16.3022 99.8166L24.5547 67.8143L24.6217 67.5542ZM114.706 27.6881L114.707 27.6863L115.196 27.6164L150.692 22.4176C156.727 21.5336 162.141 26.2123 162.141 32.312V54.7407L166.141 89.2407L172.141 121.741L178.594 141.539C180.507 147.407 176.7 153.589 170.6 154.523L92.5942 166.463C87.7732 167.201 83.1231 164.353 81.5889 159.724L73.6407 135.741L66.2457 103.241L63.1409 68.7407L63.1406 43.8828C63.1406 38.9197 66.7807 34.7075 71.6914 33.9883L114.706 27.6881ZM114.135 35.8572L72.8508 41.9038C71.8686 42.0477 71.1406 42.8901 71.1406 43.8827L71.1408 68.3814L74.1654 101.989L81.3559 133.59L89.1827 157.207C89.4896 158.133 90.4196 158.703 91.3838 158.555L169.389 146.615C170.609 146.429 171.371 145.192 170.988 144.019L164.535 124.22L164.37 123.715L164.274 123.193L158.274 90.6931L158.225 90.4289L158.194 90.1621L154.194 55.6621L154.141 55.203V54.7407V32.312C154.141 31.0921 153.058 30.1563 151.851 30.3331L122.238 34.6704L122.232 34.7542L114.131 35.9114L114.135 35.8572ZM109.499 73.5868L117.808 72.3085L117.799 72.3616L147.614 67.9057C149.253 67.6608 150.78 68.7906 151.025 70.4293C151.27 72.0679 150.14 73.5949 148.501 73.8398L116.799 78.5778L116.798 78.5841L108.492 79.8425L108.496 79.8186L85.2043 83.2996C83.5656 83.5445 82.0387 82.4146 81.7938 80.7759C81.5489 79.1373 82.6788 77.6104 84.3174 77.3655L109.496 73.6025L109.499 73.5868ZM108.019 89.1222L115.096 88.0334L115.086 88.066L129.834 85.8618C131.473 85.6169 133 86.7468 133.245 88.3855C133.49 90.0241 132.36 91.551 130.721 91.7959L110.359 94.839L104.404 95.7552L104.412 95.7278L87.2043 98.2996C85.5656 98.5444 84.0387 97.4146 83.7938 95.7759C83.5489 94.1373 84.6788 92.6104 86.3174 92.3655L108.019 89.1222ZM101.456 105.508L110.191 104.26L110.181 104.291L113.054 103.862C114.692 103.617 116.219 104.747 116.464 106.385C116.709 108.024 115.579 109.551 113.941 109.796L90.2043 113.343C88.5656 113.588 87.0387 112.458 86.7938 110.82C86.5489 109.181 87.6788 107.654 89.3174 107.409L101.428 105.599L101.456 105.508ZM82.3174 62.3655C80.6788 62.6104 79.5489 64.1373 79.7938 65.7759C80.0387 67.4146 81.5656 68.5445 83.2043 68.2996L146.501 58.8398C148.14 58.5949 149.27 57.0679 149.025 55.4293C148.78 53.7906 147.253 52.6608 145.614 52.9057L82.3174 62.3655Z" fill="#F08F53"/>
</g>
<defs>
<clipPath id="clip0_566_959">
<rect width="180" height="167" fill="white"/>
</clipPath>
</defs>
</svg>
