<svg width="155" height="168" viewBox="0 0 155 168" fill="none" xmlns="http://www.w3.org/2000/svg">
<g clip-path="url(#clip0_626_2396)">
<path d="M90.1012 2.88214C89.7952 1.52371 91.3443 0.517722 92.4608 1.34978L118.592 20.8232C119.177 21.2592 119.924 21.4178 120.635 21.2575L152.428 14.0962C153.787 13.7903 154.793 15.3394 153.961 16.4559L134.487 42.5873C134.051 43.1724 133.893 43.9187 134.053 44.6305L141.214 76.4233C141.52 77.7818 139.971 78.7878 138.855 77.9557L112.723 58.4823C112.138 58.0463 111.392 57.8877 110.68 58.048L78.8871 65.2092C77.5287 65.5152 76.5227 63.9661 77.3547 62.8496L96.8281 36.7182C97.2641 36.1331 97.4228 35.3868 97.2624 34.675L90.1012 2.88214Z" fill="#D4BB79" stroke="black"/>
<path d="M22.5 99.5C22.5 104.262 21.3961 108.548 19.6369 111.626C17.8697 114.719 15.5046 116.5 13 116.5C10.4954 116.5 8.13026 114.719 6.36305 111.626C4.60393 108.548 3.5 104.262 3.5 99.5C3.5 94.7384 4.60393 90.4522 6.36305 87.3737C8.13026 84.2811 10.4954 82.5 13 82.5C15.5046 82.5 17.8697 84.2811 19.6369 87.3737C21.3961 90.4522 22.5 94.7384 22.5 99.5Z" fill="white" stroke="black"/>
<path d="M118.5 99.5C118.5 104.262 117.396 108.548 115.637 111.626C113.87 114.719 111.505 116.5 109 116.5C106.495 116.5 104.13 114.719 102.363 111.626C100.604 108.548 99.5 104.262 99.5 99.5C99.5 94.7384 100.604 90.4522 102.363 87.3737C104.13 84.2811 106.495 82.5 109 82.5C111.505 82.5 113.87 84.2811 115.637 87.3737C117.396 90.4522 118.5 94.7384 118.5 99.5Z" fill="white" stroke="black"/>
<path d="M5.5 149C5.5 137.678 14.6782 128.5 26 128.5H95C106.322 128.5 115.5 137.678 115.5 149V164.5H5.5V149Z" fill="white" stroke="black"/>
<path d="M60.6019 140.507C103.182 140.146 116.066 154.709 119.932 162.549C120.497 163.694 120.312 164.786 119.686 165.603C119.05 166.433 117.932 167.007 116.602 167.007H4.61109C3.27796 167.007 2.16422 166.43 1.53792 165.6C0.92222 164.784 0.752308 163.697 1.34048 162.561C5.30126 154.915 18.3027 140.864 60.6019 140.507Z" fill="white" stroke="black"/>
<circle cx="61" cy="100" r="49.5" fill="white" stroke="black"/>
<path d="M98.5 100C98.5 116.754 81.8106 130.5 61 130.5C40.1893 130.5 23.5 116.754 23.5 100C23.5 95.8066 24.5403 92.424 26.3992 89.6996C28.2604 86.9719 30.9646 84.8713 34.3428 83.2821C41.1156 80.0961 50.5233 79 61 79C71.4767 79 80.8844 80.0961 87.6572 83.2821C91.0354 84.8713 93.7396 86.9719 95.6008 89.6996C97.4597 92.424 98.5 95.8066 98.5 100Z" fill="#5F5F5F" stroke="black"/>
</g>
<defs>
<clipPath id="clip0_626_2396">
<rect width="155" height="168" fill="white"/>
</clipPath>
</defs>
</svg>
