<svg width="24" height="5" viewBox="0 0 24 5" fill="none" xmlns="http://www.w3.org/2000/svg">
<path d="M2.57143 5C3.99159 5 5.14286 3.88071 5.14286 2.5C5.14286 1.11929 3.99159 0 2.57143 0C1.15127 0 0 1.11929 0 2.5C0 3.88071 1.15127 5 2.57143 5Z" fill="#969696"/>
<path d="M12.0011 5C13.4213 5 14.5725 3.88071 14.5725 2.5C14.5725 1.11929 13.4213 0 12.0011 0C10.581 0 9.42969 1.11929 9.42969 2.5C9.42969 3.88071 10.581 5 12.0011 5Z" fill="#969696"/>
<path d="M21.4269 5C22.8471 5 23.9983 3.88071 23.9983 2.5C23.9983 1.11929 22.8471 0 21.4269 0C20.0067 0 18.8555 1.11929 18.8555 2.5C18.8555 3.88071 20.0067 5 21.4269 5Z" fill="#969696"/>
</svg>
