<svg width="174" height="177" viewBox="0 0 174 177" fill="none" xmlns="http://www.w3.org/2000/svg">
<path fill-rule="evenodd" clip-rule="evenodd" d="M152.316 32.6472L79.1503 8.10453C78.3234 7.82717 77.4121 8.11761 76.8982 8.82232L8.38829 102.774C7.65576 103.778 8.01353 105.177 9.08337 105.728L9.12977 105.664L16.9721 108.487L16.8955 108.592L19.1466 109.413L19.229 109.3L27.0714 112.123L26.9686 112.264L29.2198 113.085L29.3283 112.936L37.1707 115.759L37.0418 115.936L81.8642 132.273C82.7053 132.58 83.6476 132.29 84.1713 131.564L136.322 59.2569L136.244 59.2308L141.131 52.4319L141.222 52.4625L142.512 50.6748L142.417 50.6429L147.303 43.844L147.412 43.8804L148.701 42.0928L148.589 42.0552L153.377 35.3933V35.2232L153.542 35.2784C153.952 34.246 153.432 33.0214 152.316 32.6472ZM90.6597 136.244L153.726 48.8027L155.456 46.5785L155.354 46.5445L156.627 44.7805C157.63 45.3154 157.996 46.6103 157.38 47.5981L157.116 47.9717L88.1712 143.564C87.6475 144.29 86.7052 144.58 85.8642 144.273L30.9686 124.264L30.9793 124.25L25.5182 122.277L13.3193 117.831L13.3128 117.829L13.1375 117.653L13.0833 117.728C12.2092 117.278 11.8105 116.262 12.0933 115.357L79.1246 139.789C83.3299 141.322 88.0415 139.874 90.6597 136.244ZM18.2413 128.14L16.0933 127.357C15.8105 128.262 16.2093 129.278 17.0834 129.728L17.1175 129.681L20.2451 130.897L89.8642 156.273C90.7052 156.58 91.6475 156.29 92.1712 155.564L161.119 59.9675L161.379 59.5987C161.996 58.6109 161.631 57.3154 160.627 56.7805L94.6597 148.244C92.0414 151.874 87.3298 153.322 83.1245 151.789L26.0633 130.991L26.031 131.035C25.9935 130.999 25.9522 130.965 25.907 130.934L22.2012 129.583L18.2171 128.173L18.2413 128.14ZM169.036 62.0919C170.719 57.6863 169.041 52.6155 165.036 50.0918C166.719 45.6862 165.041 40.6155 161.036 38.0919C162.997 32.957 160.394 26.9184 154.861 25.0625L81.6944 0.519861C77.56 -0.866973 73.0036 0.585274 70.4343 4.10877L1.92435 98.06C-1.5611 102.84 -0.109685 109.404 4.64899 112.403C2.97107 116.798 4.63129 121.871 8.64894 124.403C6.97109 128.798 8.63134 133.871 12.649 136.403C10.7233 141.447 13.1943 147.384 18.5796 149.347L91.1245 175.789C95.3298 177.322 100.041 175.874 102.66 172.244L171.791 76.3931C175.248 71.5993 173.764 65.0709 169.036 62.0919ZM164.626 68.7805L98.6597 160.244C96.0414 163.874 91.3298 165.322 87.1245 163.789L20.0933 139.357C19.7861 140.339 20.2828 141.453 21.3193 141.831L93.8642 168.273C94.7052 168.58 95.6475 168.29 96.1712 167.564L165.302 71.7133C166.024 70.7135 165.67 69.3364 164.626 68.7805ZM78.1208 38.6499C76.549 38.1259 74.85 38.9754 74.3261 40.5472C73.8021 42.1191 74.6516 43.818 76.2234 44.342L112.531 56.4446C114.103 56.9685 115.802 56.1191 116.326 54.5472C116.85 52.9754 116.001 51.2764 114.429 50.7525L78.1208 38.6499ZM71.1208 49.6499C69.549 49.1259 67.85 49.9754 67.3261 51.5472C66.8021 53.1191 67.6516 54.818 69.2234 55.342L105.531 67.4446C107.103 67.9685 108.802 67.1191 109.326 65.5472C109.85 63.9754 109.001 62.2764 107.429 61.7525L71.1208 49.6499ZM58.3261 62.5472C58.85 60.9754 60.549 60.1259 62.1208 60.6499L98.4287 72.7525C100.001 73.2764 100.85 74.9754 100.326 76.5472C99.8021 78.1191 98.1032 78.9685 96.5313 78.4446L60.2234 66.342C58.6516 65.818 57.8021 64.1191 58.3261 62.5472ZM53.3261 72.5472C51.7542 72.0233 50.0553 72.8728 49.5313 74.4446C49.0074 76.0164 49.8569 77.7154 51.4287 78.2393L87.7366 90.342C89.3084 90.8659 91.0074 90.0164 91.5313 88.4446C92.0553 86.8728 91.2058 85.1738 89.634 84.6499L53.3261 72.5472Z" fill="black"/>
</svg>
